<svg width="1727" height="1600" viewBox="0 0 1727 1600" fill="none" xmlns="http://www.w3.org/2000/svg">
<g clip-path="url(#clip0_2_2)">
<path d="M2500 0H0V1600H2500V0Z" fill="#F2C464"/>
<path d="M1235.43 1600H2500V0H1158.22C1147.55 8.23 1137.74 17.42 1130.88 28.9C1120.63 46.06 1118.69 69.85 1131.68 85.05C1160.13 118.35 1215.96 104.75 1212.17 166.1C1209.6 207.61 1176.95 238.1 1154.55 270.16C1132.36 301.92 1117.35 354.61 1159.22 378.34C1187.95 394.62 1241.91 390.56 1257.15 425.76C1274.66 466.26 1218.8 518.49 1198.04 547.75C1166.64 592.01 1138.44 639.9 1129.49 694.23C1127.38 707.03 1126.76 721.44 1134.82 731.62C1141.75 740.38 1153.4 743.74 1164.4 745.78C1211.61 754.53 1496.02 630.95 1487.16 735.02C1485.84 750.52 1476.79 764.2 1467.33 776.56C1395.25 870.64 1274.76 922.76 1188 1002.77C1130.67 1055.65 1072.05 1119.14 1039.84 1190.8C1032.1 1208.03 1027.4 1232.06 1043.04 1242.66C1052.24 1248.9 1064.52 1247.13 1075.37 1244.65C1109.54 1236.82 1448.85 1068.94 1444.85 1148.15C1444.39 1157.29 1438.72 1165.24 1433.05 1172.42C1364.75 1258.97 1257.62 1320.39 1170.6 1386.42C1148.62 1403.1 1079.59 1487.73 1154.74 1470.88C1208.1 1458.91 1276.81 1403.28 1330.83 1409.55C1442.07 1422.45 1254.65 1580.51 1235.43 1600Z" fill="#FDF8EE"/>
<path d="M1497.37 883.04L1491.67 877.2C1491.67 877.2 1469.74 884.84 1460.17 893.12L1444.06 871.43C1444.06 871.43 1404.33 906.94 1412.6 977.43L1408.32 980.22C1408.32 980.22 1380.4 930.53 1336.51 934.26L1460.49 1049.19L1542.78 942.37L1497.37 883.04Z" fill="#F0DFC0"/>
<path d="M1527.75 896.53C1526.2 896.25 1504.1 879.44 1504.1 879.44C1504.1 879.44 1435.68 912.02 1417.62 976.66C1417.62 976.66 1424.15 907.8 1491.67 877.2C1491.67 877.2 1429.48 890.05 1413.47 975.91C1413.47 975.91 1405.33 920.18 1444.06 871.43C1444.06 871.43 1405.27 908.68 1409.81 978.46C1409.81 978.46 1385.17 931.25 1336.52 934.25C1336.52 934.25 1390.14 942.25 1406.53 981.85C1406.53 981.85 1363.61 939.77 1327.53 953.8L1404.34 1002.93L1439.49 991.83L1527.75 896.53Z" fill="#FEF0D8"/>
<path d="M1420.61 984.38C1420.61 984.38 1449.05 910.23 1517.46 888.08C1521.89 886.65 1526.75 887.57 1530.39 890.48L1627.43 968.11C1634.42 973.7 1634.39 984.35 1627.36 989.9C1600.33 1011.23 1542.22 1058.66 1531.25 1080.45L1420.61 984.38Z" fill="#C9785A"/>
<path d="M1402.12 985.39L1320.97 951.03C1319.78 950.53 1318.83 952.11 1319.83 952.92L1464.55 1071.04L1516.22 1089.82L1402.12 985.39Z" fill="#C9785A"/>
<path opacity="0.54" d="M1401.43 989.17L1338.88 964.14L1463.96 1066.21L1498.96 1079.06L1401.43 989.17Z" fill="#FF9E8F"/>
<path d="M1403.83 986.95C1410.04 990.43 1422.81 979.26 1422.81 979.26L1432.98 988.33L1435.48 990.57L1504.82 1052.37L1507.81 1055.04L1512.86 1059.54L1515.41 1061.82L1532.95 1077.44C1532.93 1096.86 1516.21 1089.8 1516.21 1089.8L1500.05 1075.01L1496.41 1071.68C1496.41 1071.68 1496.41 1071.68 1496.38 1071.68L1492.99 1068.58L1490.78 1066.55L1421.26 1002.9L1419.46 1001.25L1403.83 986.95Z" fill="#B14E38"/>
<path d="M1515.41 1061.83C1514.04 1065.63 1509.97 1073.87 1500.05 1075.01L1496.41 1071.68C1500.01 1070.82 1509.14 1067.91 1512.87 1059.55L1515.41 1061.83Z" fill="#9F3B25"/>
<path d="M1504.82 1052.38L1507.81 1055.05C1505.85 1060.4 1501.7 1066.27 1492.99 1068.59L1490.78 1066.56C1495.78 1065.1 1501.7 1061.42 1504.82 1052.38Z" fill="#9F3B25"/>
<path d="M1429.69 988.43L1439.42 997.26C1440.21 997.97 1440.29 999.14 1439.6 999.87L1433.22 1006.64C1432.53 1007.37 1431.34 1007.38 1430.56 1006.67L1420.83 997.84C1420.04 997.13 1419.96 995.96 1420.65 995.23L1427.03 988.46C1427.71 987.73 1428.91 987.72 1429.69 988.43Z" fill="#9F3B25"/>
<path d="M1439.16 1013.07C1438.86 1013.13 1438.53 1013.04 1438.28 1012.81C1437.9 1012.44 1437.87 1011.86 1438.23 1011.5L1445.3 1004.44C1445.65 1004.08 1446.25 1004.1 1446.64 1004.46C1447.02 1004.83 1447.05 1005.41 1446.69 1005.77L1439.62 1012.83C1439.49 1012.95 1439.33 1013.03 1439.16 1013.07Z" fill="#9F3B25"/>
<path d="M1445.52 1018.55C1445.22 1018.61 1444.89 1018.52 1444.64 1018.29C1444.26 1017.92 1444.23 1017.34 1444.59 1016.98L1451.66 1009.92C1452.01 1009.56 1452.61 1009.58 1453 1009.94C1453.38 1010.31 1453.41 1010.89 1453.05 1011.25L1445.98 1018.31C1445.85 1018.43 1445.69 1018.51 1445.52 1018.55Z" fill="#9F3B25"/>
<path d="M1544.67 926.06L1468.75 1004.04C1466.12 1006.74 1461.8 1006.8 1459.11 1004.17L1448.15 993.5C1445.45 990.87 1445.39 986.55 1448.02 983.86L1523.94 905.88C1526.57 903.18 1530.89 903.12 1533.58 905.75L1544.54 916.42C1547.24 919.05 1547.3 923.36 1544.67 926.06Z" fill="#AB4530"/>
<path d="M1620.72 982.32L1607.58 995.81C1605.58 997.87 1602.28 997.91 1600.23 995.91L1598.53 994.26C1596.47 992.26 1596.43 988.96 1598.43 986.91L1611.57 973.42C1613.57 971.36 1616.87 971.32 1618.92 973.32L1620.62 974.97C1622.68 976.97 1622.72 980.26 1620.72 982.32Z" fill="#AB4530"/>
<path d="M1468.17 988.66C1468.21 989.13 1468.18 989.61 1468.06 990.1C1467.94 990.59 1467.77 991.07 1467.54 991.54C1467.31 992.01 1467.04 992.45 1466.74 992.88C1466.43 993.3 1466.11 993.67 1465.78 994C1465.13 994.62 1464.43 995.08 1463.66 995.38C1462.89 995.67 1462.11 995.81 1461.32 995.78C1460.53 995.75 1459.76 995.57 1459 995.23C1458.24 994.89 1457.56 994.4 1456.94 993.76C1456.47 993.27 1456.07 992.74 1455.73 992.17C1455.39 991.6 1455.13 991 1454.94 990.39C1454.75 989.78 1454.64 989.15 1454.6 988.52C1454.57 987.89 1454.62 987.26 1454.76 986.64C1454.9 986.02 1455.13 985.43 1455.44 984.86C1455.76 984.29 1456.17 983.75 1456.69 983.26C1456.88 983.08 1457.09 982.88 1457.33 982.69C1457.56 982.49 1457.81 982.31 1458.06 982.14C1458.31 981.97 1458.57 981.82 1458.84 981.69C1459.11 981.56 1459.38 981.46 1459.64 981.4L1461.92 984.14C1461.58 984.29 1461.26 984.47 1460.96 984.7C1460.66 984.92 1460.39 985.16 1460.13 985.4C1459.77 985.74 1459.49 986.12 1459.29 986.53C1459.09 986.94 1458.97 987.36 1458.94 987.78C1458.91 988.21 1458.97 988.63 1459.12 989.06C1459.27 989.48 1459.52 989.88 1459.88 990.25C1460.1 990.48 1460.35 990.68 1460.62 990.83C1460.89 990.99 1461.17 991.09 1461.46 991.13C1461.75 991.17 1462.04 991.16 1462.33 991.08C1462.62 991 1462.89 990.84 1463.14 990.6C1463.31 990.44 1463.46 990.24 1463.6 990.03C1463.74 989.81 1463.82 989.59 1463.85 989.35L1463.37 988.8L1461.74 990.32L1459.88 988.23C1460.52 987.57 1461.17 986.91 1461.82 986.25C1462.47 985.59 1463.12 984.93 1463.77 984.25L1468.17 988.66Z" fill="#30130D"/>
<path d="M1471.62 975.51C1471.96 975.86 1472.23 976.2 1472.44 976.54C1472.65 976.88 1472.81 977.23 1472.91 977.59C1473.01 977.95 1473.05 978.33 1473.04 978.73C1473.03 979.13 1472.97 979.56 1472.85 980.02L1477.18 981.32L1474.74 984.81L1470.96 982.95L1470.16 983.78L1472.73 986.68L1469.85 989.46C1468.89 988.42 1467.93 987.39 1466.98 986.36C1466.03 985.33 1465.07 984.3 1464.12 983.25C1463.63 982.73 1463.15 982.21 1462.67 981.7C1462.19 981.19 1461.72 980.66 1461.25 980.12C1461.45 979.7 1461.67 979.31 1461.9 978.94C1462.13 978.57 1462.38 978.22 1462.64 977.88C1462.91 977.54 1463.19 977.21 1463.49 976.9C1463.79 976.58 1464.1 976.26 1464.43 975.94C1464.94 975.45 1465.5 975.04 1466.11 974.73C1466.72 974.41 1467.35 974.22 1467.98 974.14C1468.62 974.07 1469.25 974.14 1469.87 974.34C1470.5 974.57 1471.08 974.96 1471.62 975.51ZM1468.83 978.62C1468.65 978.43 1468.46 978.29 1468.26 978.18C1468.06 978.07 1467.85 978.01 1467.64 977.99C1467.43 977.97 1467.22 978 1467.01 978.08C1466.8 978.16 1466.59 978.3 1466.39 978.49C1466.3 978.58 1466.22 978.67 1466.15 978.76C1466.08 978.85 1466.01 978.95 1465.95 979.05L1468.25 981.64L1468.41 981.49C1468.6 981.31 1468.77 981.09 1468.92 980.85C1469.07 980.61 1469.18 980.36 1469.24 980.1C1469.3 979.84 1469.3 979.59 1469.25 979.33C1469.18 979.08 1469.04 978.84 1468.83 978.62Z" fill="#30130D"/>
<path d="M1486.19 972.8L1483.28 976.43L1481.42 975.3L1479.89 976.77L1481.02 978.61L1477.28 981.57L1471.34 970.08L1474.88 966.3L1486.19 972.8ZM1479.21 973.49L1476.45 971.65L1478.2 974.46L1479.21 973.49Z" fill="#30130D"/>
<path d="M1489.34 960.61C1489.94 961.24 1490.41 961.88 1490.73 962.53C1491.05 963.19 1491.26 963.85 1491.35 964.52C1491.44 965.19 1491.42 965.86 1491.29 966.52C1491.17 967.18 1490.95 967.84 1490.65 968.47C1490.35 969.11 1489.98 969.73 1489.53 970.33C1489.08 970.93 1488.57 971.5 1488.01 972.05C1487.8 972.25 1487.59 972.45 1487.38 972.63C1487.17 972.81 1486.95 972.99 1486.72 973.17L1478.24 964C1478.58 963.37 1478.98 962.77 1479.44 962.21C1479.9 961.64 1480.38 961.11 1480.9 960.62C1481.54 960 1482.22 959.53 1482.94 959.21C1483.66 958.88 1484.39 958.72 1485.13 958.7C1485.87 958.69 1486.59 958.84 1487.32 959.15C1488.03 959.46 1488.71 959.95 1489.34 960.61ZM1487.01 963.69C1486.78 963.45 1486.53 963.24 1486.26 963.07C1485.99 962.9 1485.71 962.79 1485.41 962.74C1485.12 962.69 1484.82 962.71 1484.52 962.79C1484.22 962.88 1483.93 963.04 1483.65 963.3L1487.39 967.71C1487.62 967.41 1487.78 967.09 1487.86 966.74C1487.95 966.39 1487.97 966.04 1487.94 965.69C1487.91 965.34 1487.82 965 1487.67 964.67C1487.52 964.34 1487.33 964.05 1487.09 963.78L1487.01 963.69Z" fill="#30130D"/>
<path d="M1495.7 950.37C1496.02 950.7 1496.35 951.08 1496.71 951.51C1497.06 951.94 1497.41 952.4 1497.74 952.89C1498.08 953.38 1498.4 953.9 1498.71 954.45C1499.02 954.99 1499.28 955.55 1499.5 956.12C1499.72 956.69 1499.88 957.25 1500 957.82C1500.11 958.39 1500.15 958.94 1500.11 959.49C1500.07 960.04 1499.94 960.55 1499.72 961.05C1499.5 961.55 1499.17 962.01 1498.73 962.44C1498.21 962.94 1497.68 963.29 1497.14 963.49C1496.6 963.69 1496.05 963.78 1495.51 963.76C1494.97 963.74 1494.42 963.62 1493.89 963.41C1493.35 963.2 1492.83 962.93 1492.32 962.61C1491.82 962.28 1491.33 961.92 1490.87 961.51C1490.41 961.11 1489.98 960.7 1489.59 960.3C1488.99 959.68 1488.42 959.02 1487.88 958.34C1487.34 957.66 1486.83 956.95 1486.35 956.22L1489.6 953.32C1490.16 954.14 1490.73 954.94 1491.33 955.73C1491.92 956.52 1492.57 957.27 1493.26 957.99C1493.33 958.07 1493.45 958.18 1493.6 958.32C1493.75 958.46 1493.93 958.62 1494.12 958.79C1494.32 958.96 1494.53 959.12 1494.75 959.28C1494.97 959.44 1495.19 959.58 1495.4 959.68C1495.61 959.79 1495.81 959.85 1495.99 959.87C1496.17 959.89 1496.32 959.85 1496.43 959.74C1496.56 959.62 1496.62 959.44 1496.6 959.22C1496.58 959 1496.52 958.75 1496.4 958.47C1496.28 958.19 1496.12 957.89 1495.92 957.56C1495.72 957.24 1495.5 956.91 1495.26 956.58C1495.02 956.25 1494.77 955.93 1494.52 955.62C1494.27 955.3 1494.02 955.02 1493.8 954.75C1493.58 954.48 1493.37 954.25 1493.19 954.06C1493.01 953.87 1492.87 953.72 1492.78 953.63C1492.44 953.28 1492.1 952.94 1491.76 952.6C1491.42 952.27 1491.07 951.94 1490.71 951.61L1493.84 948.59C1494.46 949.14 1495.08 949.74 1495.7 950.37Z" fill="#30130D"/>
<path d="M1510.84 949.02L1507.93 952.65L1506.07 951.52L1504.54 952.99L1505.66 954.83L1501.92 957.79L1496 946.3L1499.54 942.52L1510.84 949.02ZM1503.86 949.71L1501.1 947.87L1502.85 950.68L1503.86 949.71Z" fill="#30130D"/>
<path d="M1508.59 933.82L1511.26 936.72L1509.34 938.73L1514.95 945.57L1512.27 948.44L1506.16 942.08L1504.27 944.11L1501.3 940.87L1508.59 933.82Z" fill="#30130D"/>
<path d="M1512.71 930.13L1520.77 939.96L1518.09 942.83L1509.33 933.75L1512.71 930.13Z" fill="#30130D"/>
<path d="M1525.88 926.5C1526.27 926.91 1526.6 927.34 1526.87 927.81C1527.14 928.28 1527.35 928.76 1527.49 929.26C1527.63 929.76 1527.71 930.27 1527.72 930.79C1527.73 931.31 1527.68 931.82 1527.55 932.32C1527.42 932.82 1527.23 933.3 1526.97 933.77C1526.7 934.24 1526.36 934.67 1525.95 935.07C1525.55 935.46 1525.12 935.78 1524.65 936.02C1524.19 936.27 1523.71 936.45 1523.21 936.57C1522.71 936.69 1522.21 936.74 1521.7 936.73C1521.19 936.72 1520.69 936.64 1520.2 936.49C1519.71 936.35 1519.24 936.14 1518.79 935.87C1518.34 935.6 1517.92 935.27 1517.54 934.87C1517.17 934.48 1516.84 934.06 1516.58 933.59C1516.31 933.13 1516.11 932.65 1515.97 932.15C1515.83 931.65 1515.75 931.14 1515.73 930.62C1515.71 930.1 1515.76 929.59 1515.88 929.09C1516 928.59 1516.18 928.11 1516.43 927.65C1516.68 927.19 1517.01 926.76 1517.41 926.38C1518.06 925.76 1518.74 925.29 1519.47 924.97C1520.2 924.66 1520.93 924.51 1521.67 924.51C1522.41 924.52 1523.13 924.69 1523.85 925.02C1524.58 925.36 1525.25 925.85 1525.88 926.5ZM1523.08 929.54C1522.89 929.35 1522.69 929.19 1522.46 929.06C1522.23 928.93 1521.99 928.85 1521.75 928.81C1521.51 928.77 1521.27 928.79 1521.02 928.85C1520.78 928.92 1520.55 929.05 1520.35 929.25C1520.14 929.45 1519.99 929.67 1519.9 929.91C1519.81 930.14 1519.77 930.39 1519.77 930.63C1519.78 930.88 1519.84 931.12 1519.94 931.35C1520.05 931.59 1520.2 931.8 1520.39 932C1520.57 932.19 1520.78 932.35 1521.01 932.49C1521.25 932.63 1521.49 932.72 1521.74 932.77C1521.99 932.82 1522.25 932.81 1522.49 932.75C1522.74 932.69 1522.97 932.56 1523.18 932.36C1523.39 932.16 1523.54 931.94 1523.63 931.69C1523.72 931.45 1523.75 931.2 1523.73 930.94C1523.71 930.69 1523.64 930.44 1523.53 930.2C1523.42 929.96 1523.27 929.74 1523.08 929.54Z" fill="#30130D"/>
<path d="M1530.75 912.39L1539.03 921.93L1535.83 925.64L1529.27 922.59L1533.75 927.83L1530.74 930.74L1521.82 921.01L1525.01 917.62L1531.98 920.21L1527.69 915.55L1530.75 912.39Z" fill="#30130D"/>
<path d="M1476.97 1015.2C1476.5 1015.32 1475.98 1015.2 1475.61 1014.82C1475.07 1014.27 1475.07 1013.38 1475.63 1012.83L1545.32 944.37C1545.87 943.83 1546.76 943.83 1547.31 944.39C1547.85 944.94 1547.85 945.83 1547.29 946.38L1477.6 1014.84C1477.42 1015.02 1477.2 1015.14 1476.97 1015.2Z" fill="#9F3B25"/>
<path d="M1486.86 1024.36C1486.39 1024.48 1485.87 1024.36 1485.5 1023.98C1484.96 1023.43 1484.96 1022.54 1485.52 1021.99L1534.06 974.3C1534.61 973.76 1535.5 973.76 1536.05 974.32C1536.59 974.87 1536.59 975.76 1536.03 976.31L1487.49 1024C1487.31 1024.18 1487.09 1024.3 1486.86 1024.36Z" fill="#9F3B25"/>
<path d="M1500.98 1037.44C1500.51 1037.56 1499.99 1037.44 1499.62 1037.06C1499.08 1036.51 1499.08 1035.62 1499.64 1035.07L1530.78 1004.48C1531.33 1003.94 1532.22 1003.94 1532.77 1004.5C1533.31 1005.05 1533.31 1005.94 1532.75 1006.49L1501.61 1037.08C1501.43 1037.27 1501.21 1037.39 1500.98 1037.44Z" fill="#9F3B25"/>
<path d="M1512.28 1050.03C1511.81 1050.15 1511.29 1050.03 1510.92 1049.65C1510.38 1049.1 1510.38 1048.21 1510.94 1047.66L1559.94 999.52C1560.49 998.98 1561.38 998.98 1561.93 999.54C1562.47 1000.09 1562.47 1000.98 1561.91 1001.53L1512.91 1049.67C1512.73 1049.86 1512.51 1049.97 1512.28 1050.03Z" fill="#9F3B25"/>
<path d="M1490.77 1510.75C1513.44 1510.75 1531.81 1492.38 1531.81 1469.71C1531.81 1447.04 1513.44 1428.67 1490.77 1428.67C1468.1 1428.67 1449.73 1447.04 1449.73 1469.71C1449.73 1492.38 1468.1 1510.75 1490.77 1510.75Z" fill="#FC8945"/>
<path d="M569.12 1550.24C591.786 1550.24 610.16 1531.87 610.16 1509.2C610.16 1486.53 591.786 1468.16 569.12 1468.16C546.454 1468.16 528.08 1486.53 528.08 1509.2C528.08 1531.87 546.454 1550.24 569.12 1550.24Z" fill="#FC8945"/>
<path d="M502.88 1143.98C525.546 1143.98 543.92 1125.61 543.92 1102.94C543.92 1080.27 525.546 1061.9 502.88 1061.9C480.214 1061.9 461.84 1080.27 461.84 1102.94C461.84 1125.61 480.214 1143.98 502.88 1143.98Z" fill="#FC8945"/>
<path d="M1323.62 137.24C1346.29 137.24 1364.66 118.866 1364.66 96.2C1364.66 73.5342 1346.29 55.16 1323.62 55.16C1300.95 55.16 1282.58 73.5342 1282.58 96.2C1282.58 118.866 1300.95 137.24 1323.62 137.24Z" fill="#FC8945"/>
<path d="M461.83 265.2C484.496 265.2 502.87 246.826 502.87 224.16C502.87 201.494 484.496 183.12 461.83 183.12C439.164 183.12 420.79 201.494 420.79 224.16C420.79 246.826 439.164 265.2 461.83 265.2Z" fill="#FC8945"/>
<path d="M1633.14 873.94C1655.81 873.94 1674.18 855.566 1674.18 832.9C1674.18 810.234 1655.81 791.86 1633.14 791.86C1610.47 791.86 1592.1 810.234 1592.1 832.9C1592.1 855.566 1610.47 873.94 1633.14 873.94Z" fill="#FC8945"/>
<path d="M1282.58 531.6C1290.04 531.6 1296.09 525.551 1296.09 518.09C1296.09 510.629 1290.04 504.58 1282.58 504.58C1275.12 504.58 1269.07 510.629 1269.07 518.09C1269.07 525.551 1275.12 531.6 1282.58 531.6Z" fill="#FC8945"/>
<path d="M1027.49 194.55C1034.95 194.55 1041 188.501 1041 181.04C1041 173.579 1034.95 167.53 1027.49 167.53C1020.03 167.53 1013.98 173.579 1013.98 181.04C1013.98 188.501 1020.03 194.55 1027.49 194.55Z" fill="#FC8945"/>
<path d="M414.69 1393.8C422.151 1393.8 428.2 1387.75 428.2 1380.29C428.2 1372.83 422.151 1366.78 414.69 1366.78C407.229 1366.78 401.18 1372.83 401.18 1380.29C401.18 1387.75 407.229 1393.8 414.69 1393.8Z" fill="#FC8945"/>
<path d="M1296.09 1155.94C1303.55 1155.94 1309.6 1149.89 1309.6 1142.43C1309.6 1134.97 1303.55 1128.92 1296.09 1128.92C1288.63 1128.92 1282.58 1134.97 1282.58 1142.43C1282.58 1149.89 1288.63 1155.94 1296.09 1155.94Z" fill="#FC8945"/>
<path d="M742.06 437.86C749.521 437.86 755.57 431.811 755.57 424.35C755.57 416.889 749.521 410.84 742.06 410.84C734.599 410.84 728.55 416.889 728.55 424.35C728.55 431.811 734.599 437.86 742.06 437.86Z" fill="#FC8945"/>
<path d="M1319.41 661.92L1357.42 632.47L1364.66 670.81L1399.8 680.14L1373.45 702.9L1383.74 760.81L1323.62 725.22L1272.66 743.71L1296.09 688.94L1279.93 663.42L1319.41 661.92Z" fill="#FFF081"/>
<path d="M623.81 206.13L636.01 174.05L654.69 194.71L679.57 187.31L671.98 210.98L699.8 242.43L649.94 243.13L625.78 273.35L619.67 231.27L600.32 221.74L623.81 206.13Z" fill="#FFF081"/>
<path d="M623.29 1332.05L661.31 1302.61L668.54 1340.95L703.69 1350.28L677.33 1373.03L687.62 1430.94L627.5 1395.36L576.54 1413.85L599.98 1359.08L583.81 1333.56L623.29 1332.05Z" fill="#FFF081"/>
<path d="M1538.68 1192.39L1573.01 1165.79L1579.54 1200.42L1611.28 1208.85L1587.48 1229.39L1596.78 1281.69L1542.48 1249.56L1496.46 1266.26L1517.62 1216.79L1503.02 1193.75L1538.68 1192.39Z" fill="#FFF081"/>
<path d="M1088.28 441.16L1094.58 406.75L1117.12 424.01L1140.69 412L1137.46 437.12L1171.16 463.5L1121.3 473.41L1102.68 508.17L1088.77 467.12L1067.63 461.15L1088.28 441.16Z" fill="#FFF081"/>
<path d="M1221.15 894.29L1234.29 872.79L1224.03 849.78L1248.54 855.64L1267.26 838.77L1269.26 863.88L1291.09 876.47L1267.82 886.14L1262.6 910.79L1246.21 891.65L1221.15 894.29Z" fill="#FFF081"/>
<path d="M1165.45 157.84L1160.4 141.02L1143.68 135.64L1158.12 125.64L1158.06 108.08L1172.03 118.72L1188.72 113.24L1182.92 129.82L1193.28 143.99L1175.73 143.6L1165.45 157.84Z" fill="#FFF081"/>
<path d="M452.38 916.61L445.17 892.47L421.2 884.72L441.93 870.4L441.89 845.21L461.92 860.5L485.87 852.68L477.51 876.45L492.35 896.81L467.16 896.2L452.38 916.61Z" fill="#FFF081"/>
<path d="M1385.2 1394.38L1382.09 1375.35L1364.66 1367.12L1381.79 1358.29L1384.23 1339.17L1397.93 1352.74L1416.87 1349.15L1408.2 1366.36L1417.47 1383.26L1398.41 1380.34L1385.2 1394.38Z" fill="#FFF081"/>
<path d="M1373.38 346.69L1305.89 400.28L1205.16 293.77L1207.82 293.6L1373.38 346.69Z" fill="#EAB46F"/>
<path d="M1207.82 293.6L1371.62 429.44L1366.02 365.71L1207.82 293.6Z" fill="#FCEBD1"/>
<path d="M1207.82 293.6L1414.06 295.15L1373.38 346.69L1207.82 293.6Z" fill="#FCEBD1"/>
<path d="M428.33 1193.39L516.05 1263.05L646.98 1124.6L643.52 1124.39L428.33 1193.39Z" fill="#EAB46F"/>
<path d="M643.52 1124.39L430.61 1300.95L437.89 1218.11L643.52 1124.39Z" fill="#FCEBD1"/>
<path d="M643.52 1124.39L375.45 1126.4L428.33 1193.39L643.52 1124.39Z" fill="#FCEBD1"/>
<path d="M696.66 104.4L730.41 131.2L780.77 77.94L779.44 77.86L696.66 104.4Z" fill="#EAB46F"/>
<path d="M779.44 77.86L697.54 145.78L700.34 113.91L779.44 77.86Z" fill="#FCEBD1"/>
<path d="M779.44 77.86L676.32 78.63L696.66 104.4L779.44 77.86Z" fill="#FCEBD1"/>
<path d="M1009.06 309.75L1014.46 303.63C1014.46 303.63 1005.21 282.33 996.25 273.4L1016.69 255.73C1016.69 255.73 978.33 218.74 908.65 232.21L905.55 228.15C905.55 228.15 953.04 196.63 946.07 153.13L840.64 285.29L953.26 359.43L1009.06 309.75Z" fill="#F0DFC0"/>
<path d="M997.85 341.04C998.01 339.47 1013.14 316.19 1013.14 316.19C1013.14 316.19 975.58 250.37 909.78 237.15C909.78 237.15 978.93 238.56 1014.45 303.63C1014.45 303.63 997.02 242.56 910.21 232.96C910.21 232.96 965.18 220.72 1016.67 255.72C1016.67 255.72 976.65 219.8 907.39 229.49C907.39 229.49 952.64 201.42 946.05 153.12C946.05 153.12 942.05 207.19 903.77 226.47C903.77 226.47 942.55 180.55 925.89 145.61L882.58 225.85L896.26 260.08L997.85 341.04Z" fill="#FEF0D8"/>
<path d="M902.3 240.7C902.3 240.7 978.35 263.57 1005.51 330.15C1007.27 334.46 1006.71 339.38 1004.08 343.22L933.85 445.75C928.79 453.14 918.17 453.89 912.12 447.29C888.85 421.92 837.24 367.48 814.7 358.15L902.3 240.7Z" fill="#C9785A"/>
<path d="M899.93 222.34L928.19 138.87C928.6 137.65 926.96 136.81 926.22 137.87L819.14 290.94L804.24 343.86L899.93 222.34Z" fill="#C9785A"/>
<path opacity="0.54" d="M896.1 221.94L916.43 157.7L823.91 290L813.69 325.86L896.1 221.94Z" fill="#FF9E8F"/>
<path d="M898.49 224.16C895.48 230.61 907.56 242.52 907.56 242.52L899.27 253.33L897.22 255.99L840.72 329.72L838.28 332.9L834.16 338.27L832.07 340.98L817.79 359.63C798.42 361.05 804.23 343.86 804.23 343.86L817.79 326.64L820.84 322.76C820.84 322.76 820.84 322.76 820.84 322.73L823.68 319.12L825.54 316.76L883.86 242.72L885.38 240.8L898.49 224.16Z" fill="#B14E38"/>
<path d="M832.09 340.99C828.2 339.91 819.68 336.45 817.8 326.65L820.85 322.77C821.98 326.3 825.56 335.18 834.17 338.28L832.09 340.99Z" fill="#9F3B25"/>
<path d="M840.73 329.72L838.29 332.9C832.81 331.34 826.65 327.64 823.69 319.12L825.55 316.76C827.38 321.65 831.48 327.28 840.73 329.72Z" fill="#9F3B25"/>
<path d="M898.94 250.06L890.86 260.42C890.21 261.26 889.05 261.42 888.27 260.79L881.04 254.93C880.26 254.3 880.16 253.11 880.81 252.28L888.89 241.92C889.54 241.08 890.7 240.92 891.48 241.55L898.71 247.41C899.49 248.04 899.59 249.23 898.94 250.06Z" fill="#9F3B25"/>
<path d="M875.07 261.34C874.99 261.04 875.05 260.71 875.27 260.44C875.61 260.03 876.19 259.96 876.57 260.29L884.14 266.81C884.52 267.14 884.55 267.73 884.22 268.14C883.88 268.55 883.3 268.62 882.92 268.29L875.35 261.77C875.21 261.66 875.12 261.5 875.07 261.34Z" fill="#9F3B25"/>
<path d="M870.08 268.08C870 267.78 870.06 267.45 870.28 267.18C870.62 266.77 871.2 266.7 871.58 267.03L879.15 273.55C879.53 273.88 879.56 274.47 879.23 274.88C878.89 275.29 878.31 275.36 877.93 275.03L870.36 268.51C870.22 268.4 870.12 268.24 870.08 268.08Z" fill="#9F3B25"/>
<path d="M969.65 360.11L886.25 290.18C883.36 287.76 882.99 283.46 885.41 280.57L895.23 268.85C897.65 265.96 901.95 265.59 904.84 268.01L988.24 337.94C991.13 340.36 991.5 344.66 989.08 347.55L979.25 359.27C976.84 362.15 972.54 362.53 969.65 360.11Z" fill="#AB4530"/>
<path d="M919.19 440.11L904.76 428.01C902.56 426.16 902.27 422.88 904.12 420.68L905.64 418.87C907.49 416.67 910.77 416.38 912.97 418.23L927.4 430.33C929.6 432.18 929.89 435.46 928.04 437.66L926.52 439.47C924.67 441.67 921.39 441.96 919.19 440.11Z" fill="#AB4530"/>
<path d="M901.56 288.46C901.1 288.54 900.62 288.54 900.12 288.46C899.62 288.38 899.13 288.24 898.64 288.05C898.16 287.86 897.69 287.62 897.25 287.35C896.81 287.07 896.41 286.78 896.07 286.47C895.4 285.87 894.89 285.2 894.54 284.45C894.19 283.71 894 282.94 893.97 282.15C893.94 281.36 894.06 280.58 894.35 279.8C894.63 279.02 895.07 278.3 895.66 277.64C896.11 277.14 896.61 276.69 897.16 276.31C897.71 275.93 898.28 275.62 898.88 275.39C899.48 275.15 900.09 275 900.72 274.91C901.35 274.83 901.98 274.83 902.6 274.93C903.22 275.02 903.83 275.21 904.43 275.48C905.03 275.75 905.59 276.13 906.12 276.6C906.32 276.78 906.52 276.98 906.74 277.19C906.95 277.41 907.15 277.64 907.34 277.88C907.53 278.12 907.7 278.37 907.85 278.63C908 278.89 908.12 279.15 908.2 279.41L905.64 281.89C905.47 281.56 905.26 281.26 905.01 280.98C904.77 280.7 904.51 280.44 904.25 280.21C903.88 279.88 903.48 279.63 903.06 279.45C902.64 279.28 902.21 279.19 901.78 279.19C901.35 279.19 900.93 279.28 900.52 279.46C900.11 279.64 899.73 279.92 899.39 280.31C899.18 280.55 899 280.81 898.86 281.09C898.72 281.37 898.64 281.66 898.62 281.95C898.6 282.24 898.63 282.53 898.74 282.81C898.84 283.09 899.02 283.35 899.28 283.58C899.46 283.74 899.66 283.88 899.89 284C900.12 284.12 900.35 284.19 900.58 284.19L901.09 283.67L899.45 282.15L901.39 280.14C902.1 280.73 902.81 281.33 903.51 281.93C904.21 282.53 904.93 283.13 905.65 283.72L901.56 288.46Z" fill="#30130D"/>
<path d="M914.93 290.92C914.61 291.28 914.28 291.58 913.96 291.82C913.64 292.06 913.3 292.24 912.94 292.36C912.59 292.49 912.21 292.56 911.81 292.57C911.41 292.59 910.98 292.56 910.51 292.48L909.53 296.9L905.86 294.72L907.43 290.81L906.54 290.07L903.84 292.84L900.86 290.17C901.83 289.14 902.79 288.11 903.74 287.08C904.69 286.05 905.66 285.03 906.63 284C907.11 283.48 907.6 282.96 908.07 282.44C908.55 281.92 909.04 281.41 909.54 280.91C909.97 281.08 910.38 281.26 910.76 281.47C911.14 281.67 911.51 281.89 911.87 282.13C912.23 282.37 912.57 282.63 912.91 282.9C913.25 283.18 913.59 283.46 913.93 283.77C914.46 284.24 914.9 284.77 915.26 285.35C915.62 285.93 915.86 286.54 915.98 287.17C916.1 287.8 916.08 288.43 915.92 289.07C915.78 289.73 915.44 290.34 914.93 290.92ZM911.62 288.36C911.79 288.17 911.93 287.96 912.02 287.76C912.11 287.55 912.16 287.34 912.16 287.13C912.16 286.92 912.12 286.71 912.02 286.51C911.92 286.3 911.77 286.11 911.57 285.92C911.48 285.84 911.38 285.76 911.28 285.7C911.18 285.63 911.08 285.57 910.98 285.52L908.56 288L908.73 288.15C908.93 288.33 909.15 288.48 909.4 288.62C909.65 288.75 909.91 288.84 910.17 288.88C910.43 288.92 910.69 288.9 910.94 288.83C911.19 288.75 911.41 288.6 911.62 288.36Z" fill="#30130D"/>
<path d="M918.71 305.25L914.87 302.62L915.86 300.68L914.28 299.27L912.53 300.53L909.3 297.02L920.32 290.25L924.35 293.5L918.71 305.25ZM917.5 298.34L919.13 295.45L916.46 297.41L917.5 298.34Z" fill="#30130D"/>
<path d="M931.1 307.49C930.52 308.14 929.92 308.65 929.29 309.02C928.66 309.39 928.01 309.65 927.35 309.79C926.69 309.93 926.02 309.96 925.35 309.88C924.68 309.8 924.01 309.64 923.36 309.39C922.7 309.14 922.06 308.81 921.43 308.41C920.8 308.01 920.19 307.54 919.61 307.02C919.39 306.83 919.18 306.63 918.99 306.43C918.79 306.23 918.6 306.03 918.4 305.81L926.91 296.67C927.56 296.96 928.19 297.32 928.79 297.73C929.39 298.14 929.95 298.59 930.49 299.06C931.15 299.65 931.67 300.29 932.05 300.99C932.43 301.69 932.65 302.4 932.72 303.13C932.79 303.86 932.69 304.6 932.43 305.34C932.15 306.09 931.71 306.81 931.1 307.49ZM927.86 305.39C928.09 305.14 928.28 304.88 928.42 304.6C928.57 304.32 928.66 304.03 928.68 303.73C928.71 303.43 928.67 303.14 928.56 302.85C928.45 302.56 928.26 302.28 927.99 302.02L923.87 306.07C924.19 306.28 924.52 306.41 924.87 306.47C925.22 306.53 925.57 306.53 925.92 306.47C926.27 306.41 926.6 306.3 926.92 306.12C927.23 305.95 927.52 305.73 927.77 305.47L927.86 305.39Z" fill="#30130D"/>
<path d="M941.78 313.07C941.47 313.41 941.12 313.77 940.72 314.16C940.32 314.54 939.89 314.92 939.42 315.29C938.95 315.66 938.46 316.02 937.94 316.37C937.42 316.72 936.88 317.02 936.34 317.28C935.79 317.54 935.24 317.75 934.68 317.9C934.12 318.05 933.57 318.13 933.03 318.13C932.49 318.13 931.96 318.04 931.44 317.86C930.93 317.68 930.44 317.39 929.98 316.98C929.44 316.5 929.06 316 928.81 315.47C928.57 314.94 928.44 314.41 928.42 313.86C928.4 313.32 928.47 312.77 928.64 312.22C928.81 311.67 929.04 311.13 929.33 310.6C929.62 310.07 929.95 309.56 930.32 309.07C930.69 308.58 931.06 308.12 931.44 307.7C932.02 307.05 932.63 306.43 933.27 305.85C933.91 305.26 934.58 304.7 935.27 304.17L938.41 307.19C937.64 307.8 936.88 308.44 936.13 309.09C935.38 309.74 934.68 310.44 934.02 311.18C933.95 311.26 933.85 311.38 933.72 311.54C933.59 311.7 933.45 311.89 933.29 312.09C933.14 312.3 932.99 312.52 932.84 312.75C932.69 312.98 932.58 313.21 932.49 313.43C932.4 313.65 932.35 313.85 932.34 314.03C932.33 314.21 932.38 314.36 932.5 314.46C932.63 314.58 932.81 314.62 933.03 314.59C933.25 314.56 933.5 314.47 933.77 314.33C934.04 314.19 934.33 314.01 934.64 313.78C934.95 313.56 935.26 313.31 935.57 313.05C935.88 312.79 936.18 312.52 936.48 312.24C936.78 311.96 937.05 311.7 937.29 311.46C937.54 311.22 937.75 311 937.94 310.8C938.12 310.61 938.26 310.46 938.34 310.36C938.66 310 938.98 309.63 939.29 309.27C939.6 308.9 939.9 308.53 940.19 308.15L943.44 311.05C942.92 311.74 942.37 312.41 941.78 313.07Z" fill="#30130D"/>
<path d="M944.25 328.07L940.41 325.44L941.4 323.5L939.82 322.09L938.07 323.35L934.84 319.84L945.86 313.07L949.89 316.32L944.25 328.07ZM943.05 321.16L944.68 318.28L942.01 320.24L943.05 321.16Z" fill="#30130D"/>
<path d="M959.24 324.7L956.54 327.58L954.4 325.82L948 331.93L944.94 329.47L950.83 322.91L948.66 321.17L951.67 317.97L959.24 324.7Z" fill="#30130D"/>
<path d="M963.23 328.54L954.02 337.31L950.96 334.85L959.37 325.44L963.23 328.54Z" fill="#30130D"/>
<path d="M967.83 341.4C967.45 341.82 967.04 342.18 966.6 342.49C966.15 342.79 965.69 343.04 965.2 343.21C964.71 343.39 964.21 343.5 963.69 343.56C963.17 343.61 962.66 343.59 962.15 343.5C961.64 343.41 961.15 343.25 960.66 343.02C960.17 342.79 959.72 342.48 959.29 342.1C958.87 341.73 958.52 341.32 958.24 340.88C957.96 340.44 957.74 339.97 957.58 339.49C957.42 339 957.33 338.51 957.31 338C957.29 337.49 957.33 336.99 957.44 336.49C957.55 335.99 957.72 335.51 957.95 335.04C958.18 334.57 958.49 334.13 958.85 333.72C959.21 333.32 959.61 332.97 960.05 332.67C960.49 332.37 960.96 332.13 961.45 331.95C961.94 331.77 962.44 331.65 962.96 331.6C963.48 331.54 963.99 331.56 964.49 331.64C965 331.72 965.49 331.87 965.97 332.09C966.45 332.31 966.9 332.6 967.31 332.98C967.98 333.58 968.5 334.23 968.87 334.93C969.24 335.63 969.44 336.35 969.49 337.09C969.54 337.82 969.42 338.56 969.15 339.3C968.87 340.02 968.43 340.73 967.83 341.4ZM964.59 338.83C964.77 338.63 964.91 338.41 965.02 338.17C965.13 337.93 965.19 337.69 965.21 337.44C965.23 337.2 965.2 336.95 965.11 336.72C965.03 336.48 964.88 336.27 964.67 336.08C964.45 335.89 964.22 335.75 963.98 335.68C963.74 335.61 963.5 335.58 963.25 335.61C963.01 335.64 962.77 335.71 962.54 335.84C962.31 335.97 962.11 336.13 961.92 336.33C961.75 336.52 961.6 336.74 961.48 336.99C961.36 337.23 961.29 337.48 961.26 337.74C961.23 338 961.25 338.25 961.33 338.49C961.41 338.73 961.55 338.95 961.77 339.15C961.99 339.34 962.22 339.48 962.47 339.55C962.72 339.62 962.97 339.63 963.22 339.6C963.47 339.56 963.71 339.48 963.95 339.34C964.2 339.2 964.4 339.03 964.59 338.83Z" fill="#30130D"/>
<path d="M982.26 345.21L973.35 354.17L969.42 351.26L971.98 344.49L967.09 349.35L963.97 346.56L973.01 336.95L976.63 339.88L974.57 347.02L978.9 342.4L982.26 345.21Z" fill="#30130D"/>
<path d="M875.75 299.2C875.59 298.74 875.68 298.21 876.02 297.82C876.53 297.24 877.42 297.18 878 297.69L951.44 362.11C952.02 362.62 952.08 363.51 951.57 364.09C951.06 364.67 950.17 364.73 949.59 364.22L876.15 299.8C875.96 299.63 875.83 299.43 875.75 299.2Z" fill="#9F3B25"/>
<path d="M867.34 309.74C867.18 309.28 867.27 308.75 867.61 308.36C868.12 307.78 869.01 307.72 869.59 308.23L920.74 353.11C921.32 353.62 921.38 354.51 920.87 355.09C920.36 355.67 919.47 355.73 918.89 355.22L867.74 310.34C867.56 310.17 867.42 309.96 867.34 309.74Z" fill="#9F3B25"/>
<path d="M855.34 324.79C855.18 324.33 855.27 323.8 855.61 323.41C856.12 322.83 857.01 322.77 857.59 323.28L890.41 352.07C890.99 352.58 891.05 353.47 890.54 354.05C890.03 354.63 889.14 354.69 888.56 354.18L855.74 325.39C855.55 325.22 855.42 325.01 855.34 324.79Z" fill="#9F3B25"/>
<path d="M843.62 336.99C843.46 336.53 843.55 336 843.89 335.61C844.4 335.03 845.29 334.97 845.87 335.48L897.51 380.78C898.09 381.29 898.15 382.18 897.64 382.76C897.13 383.34 896.24 383.4 895.66 382.89L844.02 337.59C843.84 337.43 843.7 337.22 843.62 336.99Z" fill="#9F3B25"/>
<path d="M495.1 1606.37L466.3 1484.2C465.24 1479.73 462.11 1476.05 457.87 1474.35C457.73 1474.29 457.59 1474.23 457.45 1474.18C450.14 1471.5 442.82 1469.58 435.58 1468.27C398.66 1461.66 363.77 1471.32 342.09 1479.9V1606.36H495.1V1606.37Z" fill="#FEF0D8"/>
<path d="M508.1 1606.37L481.33 1492.81C480.24 1488.21 476.94 1484.42 472.49 1482.8C417.29 1462.56 361.71 1485.47 342.1 1495.19V1537.39L355.46 1606.38H508.1V1606.37Z" fill="#C9785A"/>
<path d="M359.46 1606.37L359.44 1606.27L342.71 1513.39L342.11 1510.03L342.1 1509.98V1606.37H359.46Z" fill="#B14E38"/>
<path d="M470.57 1530.2L360.77 1545.03C357.04 1545.53 353.6 1542.92 353.1 1539.18L350.99 1523.57C350.49 1519.84 353.1 1516.4 356.84 1515.9L466.64 1501.07C470.37 1500.57 473.81 1503.18 474.31 1506.92L476.42 1522.53C476.92 1526.26 474.3 1529.7 470.57 1530.2Z" fill="#AB4530"/>
<path d="M360.47 1559.08C360.02 1558.88 359.68 1558.46 359.62 1557.93C359.53 1557.15 360.1 1556.44 360.88 1556.35L459.51 1545.26C460.29 1545.17 461 1545.74 461.09 1546.52C461.18 1547.3 460.61 1548.01 459.83 1548.1L361.2 1559.19C360.94 1559.22 360.69 1559.18 360.47 1559.08Z" fill="#9F3B25"/>
<path d="M362.64 1572.61C362.19 1572.41 361.85 1571.99 361.79 1571.46C361.7 1570.68 362.27 1569.97 363.05 1569.88L431.75 1562.16C432.53 1562.07 433.24 1562.64 433.33 1563.42C433.42 1564.2 432.85 1564.91 432.07 1565L363.37 1572.72C363.11 1572.74 362.86 1572.7 362.64 1572.61Z" fill="#9F3B25"/>
<path d="M365.73 1591.92C365.28 1591.72 364.94 1591.3 364.88 1590.77C364.79 1589.99 365.36 1589.28 366.14 1589.19L410.22 1584.24C411 1584.15 411.71 1584.72 411.8 1585.5C411.89 1586.28 411.33 1586.99 410.54 1587.08L366.46 1592.03C366.2 1592.06 365.95 1592.01 365.73 1591.92Z" fill="#9F3B25"/>
<path d="M392.62 1606.37L436.96 1601.39C437.74 1601.3 438.31 1600.6 438.22 1599.81C438.13 1599.03 437.43 1598.46 436.64 1598.55L367.29 1606.35C367.25 1606.35 367.22 1606.37 367.18 1606.37H392.62Z" fill="#9F3B25"/>
<path d="M457.47 1474.18C450.16 1471.5 442.84 1469.58 435.6 1468.27C391.95 1466.15 356.79 1479.92 342.11 1486.85V1486.99C347.26 1484.63 356.44 1481.38 375.81 1477.68C394.44 1474.12 405.74 1471.97 420.68 1471.6C434.43 1471.26 447.09 1472.54 457.88 1474.34C457.75 1474.29 457.6 1474.23 457.47 1474.18Z" fill="#F0DFC0"/>
<path d="M429 6.37C407.24 48.98 412.43 95.43 412.43 95.43L543.16 127.06C542.91 104.66 570.28 41.48 583.31 12.68C584.25 10.61 584.57 8.45 584.39 6.37H429V6.37Z" fill="#FEF0D8"/>
<path d="M437.48 6.37C420.67 46.22 425.15 86.31 425.15 86.31L555.88 117.94C555.64 96.25 581.3 36.29 594.76 6.38H437.48V6.37Z" fill="#C9785A"/>
<path d="M412.55 95.48C419.08 95.7 424.78 81.2 424.78 81.2L436.89 84.3L439.87 85.07L522.48 106.2L526.05 107.11L532.06 108.65L535.1 109.44L555.99 114.77C564.17 130.61 547.56 131.91 547.56 131.91L528.14 126.67L523.77 125.49C523.77 125.49 523.77 125.49 523.74 125.5L519.67 124.4L517.01 123.68L433.48 101.13L431.31 100.54L412.55 95.48Z" fill="#B14E38"/>
<path d="M535.11 109.44C535.6 113.11 535.75 121.55 528.15 126.67L523.77 125.49C526.34 123.27 532.55 117.04 532.07 108.66L535.11 109.44Z" fill="#9F3B25"/>
<path d="M522.49 106.2L526.06 107.11C526.72 112.3 525.81 118.83 519.69 124.4L517.03 123.68C520.49 120.39 523.76 114.89 522.49 106.2Z" fill="#9F3B25"/>
<path d="M434.26 85.77L445.92 88.86C446.86 89.11 447.42 90.03 447.17 90.91L444.83 99.12C444.58 100 443.61 100.52 442.67 100.27L431 97.18C430.06 96.93 429.5 96.01 429.75 95.13L432.09 86.92C432.35 86.03 433.31 85.52 434.26 85.77Z" fill="#9F3B25"/>
<path d="M452.38 101.86C452.16 102.03 451.85 102.1 451.55 102.01C451.08 101.87 450.82 101.41 450.96 100.97L453.74 92.23C453.88 91.79 454.37 91.55 454.84 91.69C455.31 91.83 455.57 92.29 455.43 92.73L452.65 101.47C452.6 101.63 452.5 101.76 452.38 101.86Z" fill="#9F3B25"/>
<path d="M459.87 103.64C459.65 103.81 459.34 103.88 459.04 103.79C458.57 103.65 458.31 103.19 458.45 102.75L461.23 94.01C461.37 93.57 461.86 93.33 462.33 93.47C462.8 93.61 463.06 94.07 462.92 94.51L460.14 103.25C460.09 103.41 459.99 103.54 459.87 103.64Z" fill="#9F3B25"/>
<path d="M467.88 6.37L447.44 73.78C446.35 77.38 448.38 81.19 451.99 82.29L464.35 86.04C467.95 87.13 471.76 85.1 472.86 81.49L495.63 6.37H467.88V6.37Z" fill="#AB4530"/>
<path d="M573.29 6.37L571.31 12.92C570.48 15.67 572.03 18.57 574.78 19.41L576.04 19.79C578.79 20.62 581.69 19.07 582.53 16.32L585.55 6.37H573.29V6.37Z" fill="#AB4530"/>
<path d="M508.2 6.37L482.01 86.28C481.79 86.96 482.16 87.68 482.83 87.91C483.28 88.06 483.76 87.94 484.09 87.64C484.25 87.49 484.38 87.3 484.45 87.08L510.9 6.37H508.2V6.37Z" fill="#9F3B25"/>
<path d="M496.03 90.94C495.7 91.24 495.22 91.35 494.77 91.21C494.09 90.99 493.72 90.26 493.95 89.58L513.4 30.22C513.62 29.54 514.35 29.17 515.03 29.4C515.71 29.62 516.08 30.35 515.85 31.03L496.4 90.39C496.32 90.6 496.19 90.79 496.03 90.94Z" fill="#9F3B25"/>
<path d="M513.06 95.65C512.73 95.95 512.25 96.07 511.8 95.92C511.12 95.7 510.75 94.97 510.98 94.29L523.46 56.21C523.68 55.53 524.41 55.16 525.09 55.39C525.77 55.61 526.14 56.34 525.91 57.02L513.43 95.1C513.35 95.31 513.22 95.5 513.06 95.65Z" fill="#9F3B25"/>
<path d="M527.59 101.14C527.26 101.44 526.78 101.55 526.33 101.41C525.65 101.19 525.28 100.46 525.51 99.78L545.15 39.85C545.37 39.17 546.1 38.8 546.78 39.03C547.46 39.25 547.83 39.98 547.6 40.66L527.96 100.58C527.88 100.81 527.75 101 527.59 101.14Z" fill="#9F3B25"/>
<path d="M434.38 6.37H431.01C414.68 46.9 418.11 82.49 418.19 83.14V83.13C418.74 78.94 415.53 74.88 422.96 44.47C426.92 28.3 429.37 18.3 434.38 6.37Z" fill="#F0DFC0"/>
<path d="M1345.28 1539.07H1198.34V1606.37H1345.28V1539.07Z" fill="#E39468"/>
<path d="M583.33 443.4C581.71 432.97 580.36 423.29 579.32 414.67C579.14 413.14 579 411.61 578.92 410.09C569.93 406.2 562.37 397.73 559.62 388.81C558.71 390.39 558.17 391.36 558.17 391.36C558.17 391.36 555.4 349.32 538.74 338.14C530.72 332.76 533.92 362.65 535.95 377.57C533.46 362.45 526.96 331.29 515.74 330.4C511.65 330.07 510.8 339.54 511.27 351.19C508.97 344.54 505.56 342.42 500.52 351.5C493.76 363.66 498.24 401.8 508.43 450.36C508.86 452.42 509.28 454.9 509.67 457.78C513.57 485.95 516 551.69 519.39 619.42C527.66 614.58 535.84 609.57 543.88 604.34C565.44 590.36 586.25 575.08 605.89 558.45C596.7 519.22 588.61 477.34 583.33 443.4Z" fill="#FDB486"/>
<path d="M533.84 386.36L540.44 384.91C540.38 384.64 535.19 361.08 533.51 351.27C533.21 349.51 531.6 348.3 529.83 348.48C527.89 348.69 526.53 350.49 526.86 352.41C528.59 362.55 533.59 385.26 533.84 386.36Z" fill="#E39468"/>
<path d="M518.45 392.27L524.91 390.29C524.83 390.03 517.59 366.41 515.25 354.82C514.9 353.07 513.25 351.9 511.48 352.14C509.56 352.41 508.25 354.23 508.63 356.14C511.06 368.16 518.12 391.19 518.45 392.27Z" fill="#E39468"/>
<path d="M501.53 386.11C501.53 386.11 498.11 367.6 492.74 369.21C487.37 370.83 497.27 441 509.48 443.51C520.31 445.73 501.53 386.11 501.53 386.11Z" fill="#FDB486"/>
<path d="M504.82 400.52L511.22 398.36C508.5 390.29 505.13 377.73 503.59 371.85C503.12 370.06 501.29 368.98 499.49 369.44H499.48C497.66 369.9 496.57 371.75 497.04 373.56C498.61 379.51 501.99 392.15 504.82 400.52Z" fill="#E39468"/>
<path d="M509.46 401.96C519.85 394.43 537.42 390.59 544.58 389.27C546.36 388.94 547.55 387.27 547.3 385.48V385.46C547.03 383.56 545.25 382.27 543.37 382.61C535.72 384 517.23 388.06 505.57 396.44C503.94 397.61 503.68 399.93 505.01 401.44C506.14 402.72 508.07 402.96 509.46 401.96Z" fill="#E39468"/>
<path d="M605.89 558.45C586.26 575.08 565.44 590.36 543.89 604.34C535.84 609.56 527.66 614.58 519.39 619.41C519.14 614.48 518.9 609.56 518.66 604.66C515.63 542.32 513.28 483.89 509.66 457.78C531.6 453.44 558.74 448.15 583.32 443.39C586.9 466.37 591.76 493 597.39 519.98C600.07 532.85 602.93 545.79 605.89 558.45Z" fill="#FDB486"/>
<path d="M489.25 451.92C476.38 444.22 462.68 443.44 458.65 450.18C454.62 456.92 461.79 468.62 474.66 476.31C487.53 484.01 501.23 484.79 505.26 478.05C509.29 471.32 502.12 459.62 489.25 451.92Z" fill="#FDE3CF"/>
<path d="M457.75 452.48C457.75 452.48 458.98 446 470.79 452.5C482.59 459 489.73 474.94 489.73 474.94L504.52 456.01C504.52 456.01 481.85 439.81 473.96 440.93C466.08 442.04 457.67 447.89 457.75 452.48Z" fill="#FDE3CF"/>
<path opacity="0.79" d="M457.75 452.48C457.75 452.48 458.98 446 470.79 452.5C482.59 459 489.73 474.94 489.73 474.94L504.52 456.01C504.52 456.01 481.85 439.81 473.96 440.93C466.08 442.04 457.67 447.89 457.75 452.48Z" fill="#FDE3CF"/>
<path d="M570.28 296.26C570.28 296.26 550.76 337.42 514.77 383.67C478.78 429.92 458.54 447.06 458.54 447.06C458.54 447.06 472.74 442.05 492.19 457.2C504.09 466.47 505.18 477.59 505.24 478.04C505.24 478.04 527.98 434.35 554.76 395.93C581.53 357.5 610.7 327.3 610.7 327.3C610.7 327.3 605.67 299.65 570.28 296.26Z" fill="#FCF4E8"/>
<path d="M551.46 400.8C551.46 400.8 542.45 383.64 521.12 375.29L528.04 365.59C528.04 365.59 550.83 380.42 558.14 391.29L551.46 400.8Z" fill="#D26B47"/>
<path d="M515.75 378.17C508.26 378.61 500.74 380.26 494.13 383.81C495.05 379.96 495.73 376.06 496.16 372.12C496.19 371.81 496.24 371.47 496.46 371.26C496.61 371.11 496.81 371.05 497.01 370.98C503.21 369.05 509.89 370.04 516.28 371.17C522.5 372.27 528.77 373.51 534.61 376C535.29 376.29 537.7 376.95 537.72 377.82C537.74 378.71 536.24 378.99 535.63 379.05C532.74 379.35 529.3 378.38 526.38 378.21C522.85 378.02 519.3 377.96 515.75 378.17Z" fill="#D27D60"/>
<path d="M518.64 370.21C511.44 368.07 503.82 367.05 496.39 368.14C498.57 364.84 500.54 361.4 502.29 357.85C502.43 357.57 502.58 357.27 502.87 357.14C503.06 357.05 503.27 357.06 503.48 357.07C509.96 357.37 515.91 360.58 521.53 363.82C527 366.98 532.48 370.28 537.12 374.61C537.66 375.11 539.7 376.56 539.42 377.38C539.13 378.22 537.63 377.97 537.03 377.82C534.22 377.12 531.31 375.03 528.62 373.88C525.36 372.48 522.04 371.22 518.64 370.21Z" fill="#D27D60"/>
<g opacity="0.32">
<path d="M515.75 378.17C508.26 378.61 500.74 380.26 494.13 383.81C495.05 379.96 495.73 376.06 496.16 372.12C496.19 371.81 496.24 371.47 496.46 371.26C496.61 371.11 496.81 371.05 497.01 370.98C503.21 369.05 509.89 370.04 516.28 371.17C522.5 372.27 528.77 373.51 534.61 376C535.29 376.29 537.7 376.95 537.72 377.82C537.74 378.71 536.24 378.99 535.63 379.05C532.74 379.35 529.3 378.38 526.38 378.21C522.85 378.02 519.3 377.96 515.75 378.17Z" fill="#D27D60"/>
<path d="M518.64 370.21C511.44 368.07 503.82 367.05 496.39 368.14C498.57 364.84 500.54 361.4 502.29 357.85C502.43 357.57 502.58 357.27 502.87 357.14C503.06 357.05 503.27 357.06 503.48 357.07C509.96 357.37 515.91 360.58 521.53 363.82C527 366.98 532.48 370.28 537.12 374.61C537.66 375.11 539.7 376.56 539.42 377.38C539.13 378.22 537.63 377.97 537.03 377.82C534.22 377.12 531.31 375.03 528.62 373.88C525.36 372.48 522.04 371.22 518.64 370.21Z" fill="#D27D60"/>
</g>
<path d="M546.45 371.88C541.18 368.73 534.35 370.44 531.19 375.72C528.04 380.99 529.75 387.82 535.03 390.98C540.3 394.13 547.13 392.42 550.29 387.14C553.45 381.86 551.73 375.03 546.45 371.88Z" fill="#D27D60"/>
<path d="M546.45 371.88C541.18 368.73 534.35 370.44 531.19 375.72C528.04 380.99 529.75 387.82 535.03 390.98C540.3 394.13 547.13 392.42 550.29 387.14C553.45 381.86 551.73 375.03 546.45 371.88Z" fill="#D27D60"/>
<path d="M532.41 384.37C533.13 386.09 534.38 387.61 536.1 388.64C538.17 389.88 540.59 390.23 542.93 389.65C545.27 389.06 547.23 387.6 548.47 385.53C551.02 381.26 549.63 375.71 545.36 373.16C541.09 370.61 535.54 372 532.99 376.27C531.47 378.82 531.35 381.82 532.41 384.37ZM548.8 377.53C549.83 380 549.72 382.91 548.24 385.38C545.77 389.52 540.39 390.87 536.25 388.4C532.11 385.93 530.76 380.55 533.24 376.41C535.71 372.27 541.09 370.92 545.23 373.39C546.89 374.39 548.1 375.86 548.8 377.53Z" fill="#FCF4E8"/>
<path d="M578.92 410.09C578.07 395.07 581.84 381 581.88 379.52C582.94 335.69 562.9 371.65 559.62 388.8C562.37 397.73 569.93 406.2 578.92 410.09Z" fill="#FDB486"/>
<path d="M543.46 428.77C545.1 428.2 546.06 426.46 545.63 424.78C544.03 418.59 544.46 413.07 546.91 408.35C550.49 401.44 557.62 397.61 561.55 395.95C563.11 395.29 563.93 393.56 563.46 391.93V391.92C562.91 389.96 560.76 388.94 558.89 389.73C554.04 391.78 545.51 396.45 540.95 405.19C537.69 411.44 537.06 418.55 539.06 426.37C539.56 428.3 541.57 429.43 543.46 428.77Z" fill="#E39468"/>
<path d="M605.89 558.45C586.26 575.08 565.44 590.36 543.89 604.34C535.84 609.56 527.66 614.58 519.39 619.41C519.14 614.48 518.9 609.56 518.66 604.66L597.39 519.98C600.07 532.85 602.93 545.79 605.89 558.45Z" fill="#E39468"/>
<path d="M1374.68 1575.87C1371.93 1569.02 1192.12 1599.77 1159.13 1605.47C1155.79 1606.05 1153.96 1606.36 1153.96 1606.36H558.41C558.41 1606.36 700.51 1196 694.56 1123.9C690.26 1071.8 577.8 847.33 515.75 726.82C512.99 721.48 510.34 716.34 507.8 711.43C488.35 673.83 475.53 649.61 475.53 649.61L637.88 531.92L685.01 609.22L768.94 746.91L812.98 819.14L819.35 823.04L970.62 915.74L1017.9 893.19C1017.9 893.19 1098.81 928.53 1138.95 947.1C1147.48 951.05 1154.15 954.23 1157.84 956.17C1158.58 956.56 1159.2 956.9 1159.69 957.18C1160.42 957.62 1160.86 957.91 1160.97 958.07C1161.62 959.04 1166.87 963.34 1174.9 972.53C1195.33 995.95 1233.82 1051.1 1260.88 1163.92C1298.58 1321.11 1377.71 1583.4 1374.68 1575.87Z" fill="#2F3037"/>
<g opacity="0.15">
<path d="M1138.94 947.12C1118.38 952.57 1096.97 955.23 1077.4 963.52C1035.25 981.36 1006.03 1034.33 1027.22 1074.9C1032.99 1085.95 1042.17 1096.15 1042.39 1108.61C1042.72 1126.69 1024.86 1138.77 1010.84 1150.17C991.1 1166.23 975.57 1187.41 966.19 1211.07C957.77 1232.29 953.86 1256.1 939.16 1273.58C924.48 1291.07 892.74 1297.06 880.53 1277.76C876.63 1271.6 875.51 1264.12 874.73 1256.85C870.43 1217.11 873.18 1176.6 882.81 1137.79C886.43 1123.22 891.04 1108.59 890.54 1093.59C890.05 1078.58 883.21 1062.68 869.67 1056.2C856.46 1049.87 840.58 1053.87 826.43 1050.14C808.86 1045.52 796.1 1029.08 791.99 1011.39C787.87 993.7 791.2 975.03 797.16 957.87C807.07 929.3 823.57 895.65 805.12 871.68C792.57 855.38 768.53 851.96 754.98 836.48C743.14 822.93 741.94 802.57 747.37 785.42C751.83 771.32 760.1 758.86 768.94 746.92L812.98 819.15L819.35 823.05L970.62 915.75L1017.9 893.2C1017.89 893.21 1098.81 928.55 1138.94 947.12Z" fill="#2F3037"/>
</g>
<path d="M969.44 1032.75H967.26V1144.91H969.44V1032.75Z" fill="#2F3037"/>
<path d="M955.11 1061.04C957.811 1061.04 960 1058.85 960 1056.15C960 1053.45 957.811 1051.26 955.11 1051.26C952.409 1051.26 950.22 1053.45 950.22 1056.15C950.22 1058.85 952.409 1061.04 955.11 1061.04Z" fill="#2F3037"/>
<path d="M955.11 1098.32C957.811 1098.32 960 1096.13 960 1093.43C960 1090.73 957.811 1088.54 955.11 1088.54C952.409 1088.54 950.22 1090.73 950.22 1093.43C950.22 1096.13 952.409 1098.32 955.11 1098.32Z" fill="#2F3037"/>
<path d="M955.11 1135.59C957.811 1135.59 960 1133.4 960 1130.7C960 1128 957.811 1125.81 955.11 1125.81C952.409 1125.81 950.22 1128 950.22 1130.7C950.22 1133.4 952.409 1135.59 955.11 1135.59Z" fill="#2F3037"/>
<path d="M1157.83 956.2C1094.17 997.09 999.95 1047.29 940.16 1032.13C867.57 1013.73 832.46 886.35 819.34 823.07L827.7 828.2L970.6 915.78L1017.88 893.23C1017.88 893.23 1087.58 923.67 1129.69 942.9C1142.6 948.77 1152.9 953.6 1157.83 956.2Z" fill="#45589A"/>
<path d="M1129.7 942.88C1068.65 979.08 991.64 1014.49 940.16 1001.44C879.55 986.08 845.08 894.76 827.71 828.2L970.61 915.78L1017.89 893.23C1017.89 893.21 1087.6 923.65 1129.7 942.88Z" fill="white"/>
<path d="M824.82 847.37C826.78 844.84 828.8 842.35 830.89 839.92C830.13 837.22 829.4 834.55 828.7 831.92C826.65 834.1 824.68 836.35 822.75 838.62C823.4 841.46 824.09 844.39 824.82 847.37Z" fill="#334273"/>
<path d="M836.62 859.17C834.18 860.88 831.7 862.63 829.15 864.3C829.78 866.65 830.44 869.02 831.11 871.41C833.7 869.65 836.24 867.77 838.78 865.87C838.04 863.63 837.32 861.39 836.62 859.17Z" fill="#334273"/>
<path d="M859.9 923.35C860.44 922.97 860.99 922.6 861.53 922.21C860.21 919.56 858.93 916.89 857.67 914.19C854.29 916.52 850.97 918.93 847.68 921.38C848.79 924.24 849.94 927.09 851.11 929.93C854 927.68 856.91 925.47 859.9 923.35Z" fill="#334273"/>
<path d="M844.1 881.2C841.74 884.54 839.39 887.9 837.08 891.28C838.23 894.88 839.42 898.5 840.67 902.13C841.36 901.08 842.06 900.02 842.75 898.97C844.47 896.36 846.16 893.73 847.84 891.09C846.55 887.81 845.3 884.51 844.1 881.2Z" fill="#334273"/>
<path d="M1079.81 981.1C1078.18 978.19 1076.55 975.28 1074.92 972.37C1071.45 974.03 1067.98 975.64 1064.49 977.22C1069.06 985.31 1073.64 993.39 1078.21 1001.48C1081.62 999.82 1085.01 998.13 1088.38 996.41C1085.53 991.3 1082.67 986.2 1079.81 981.1Z" fill="#334273"/>
<path d="M1103.18 980.2C1102.57 972.95 1102.26 965.66 1102.35 958.38C1098.73 960.34 1095.07 962.27 1091.4 964.17C1091.52 968.13 1091.74 972.07 1092.04 975.99C1092.48 981.88 1093.11 987.74 1093.88 993.58C1097.28 991.81 1100.65 990.01 1104 988.19C1103.68 985.53 1103.41 982.87 1103.18 980.2Z" fill="#334273"/>
<path d="M1008.52 997.7C1004.93 998.65 1001.38 999.51 997.85 1000.26C999.33 1009.8 1001.2 1019.28 1003.54 1028.65C1003.62 1028.96 1003.69 1029.28 1003.77 1029.6C1007.32 1028.74 1010.9 1027.78 1014.5 1026.74C1012.05 1017.15 1010.06 1007.46 1008.52 997.7Z" fill="#334273"/>
<path d="M1044.19 1016.52C1044.52 1013.57 1044.85 1010.62 1045.21 1007.68C1046.21 999.54 1047.52 991.38 1049.91 983.52C1045.57 985.3 1041.24 987 1036.92 988.61C1034.69 998.88 1033.69 1009.49 1032.5 1019.91C1032.46 1020.26 1032.42 1020.61 1032.38 1020.96C1036.31 1019.55 1040.25 1018.07 1044.19 1016.52Z" fill="#334273"/>
<path d="M902.15 979.78C897.78 985.49 893.82 991.59 890.07 997.76C892.14 1000.22 894.26 1002.57 896.43 1004.84C900.31 998.23 904.42 991.68 909.02 985.63C906.68 983.8 904.39 981.85 902.15 979.78Z" fill="#334273"/>
<path d="M884.8 960.46C882.65 957.62 880.55 954.69 878.51 951.66C877.57 953.91 876.6 956.15 875.6 958.36C873.9 962.14 872.21 965.89 870.56 969.65C872.57 973.09 874.64 976.45 876.77 979.72C879.41 973.3 882.16 966.91 884.8 960.46Z" fill="#334273"/>
<path d="M1139.67 962.17C1134.41 956.95 1129.49 951.39 1124.43 945.98C1121.08 947.93 1117.68 949.88 1114.25 951.82C1114.79 952.41 1115.33 953 1115.87 953.58C1121.39 959.62 1126.79 965.98 1132.65 971.82C1136.2 969.7 1139.68 967.58 1143.1 965.47C1141.89 964.33 1140.74 963.22 1139.67 962.17Z" fill="#334273"/>
<path d="M970.72 1004.06C970.73 1004.04 970.74 1004.03 970.74 1004.01C966.78 1004.22 962.9 1004.24 959.1 1004.08C956.52 1009.46 954.07 1014.91 951.62 1020.26C949.64 1024.58 947.64 1028.96 945.5 1033.27C948.99 1033.91 952.58 1034.35 956.27 1034.6C961.23 1024.51 965.62 1014.11 970.72 1004.06Z" fill="#334273"/>
<path d="M930.79 1021.65C932.33 1014.45 933.87 1007.25 935.41 1000.04C932.23 999 929.11 997.76 926.08 996.31C924.36 1003.85 922.64 1011.38 920.92 1018.92C920.56 1020.5 920.19 1022.08 919.81 1023.66C922.9 1025.46 926.06 1027.06 929.31 1028.43C929.81 1026.18 930.31 1023.92 930.79 1021.65Z" fill="#334273"/>
<path d="M1109.79 741.54C1109.75 743.67 1109.48 745.8 1108.94 747.87C1108.84 748.24 1108.53 748.48 1108.19 748.51C1108.09 748.52 1107.98 748.51 1107.89 748.49C1107.43 748.38 1107.14 747.91 1107.27 747.45C1107.76 745.59 1108.01 743.69 1108.07 741.77C1108.34 732.6 1103.78 723.31 1096.06 718.23C1092.1 715.63 1087.41 714.06 1082.88 712.57C1077.64 710.83 1072.22 709.03 1067.76 705.58C1058.04 698.08 1055.79 685.12 1055.29 678.06C1054.91 672.39 1055.22 666.64 1055.53 661.09C1055.77 656.67 1056.02 652.09 1055.92 647.61C1055.84 644.51 1055.57 641.28 1054.03 638.65C1052.95 636.8 1051.23 635.19 1048.87 633.84C1042.4 630.12 1034.04 630.22 1027.58 633.9H1027.56L1025.59 633.11C1032.7 628.47 1042.34 628.11 1049.72 632.36C1052.33 633.85 1054.27 635.68 1055.51 637.79C1057.23 640.76 1057.55 644.25 1057.63 647.57C1057.74 652.11 1057.48 656.73 1057.24 661.19C1056.94 666.69 1056.63 672.38 1057 677.93C1057.47 684.72 1059.62 697.14 1068.79 704.22C1073.02 707.49 1078.3 709.25 1083.4 710.93C1088.04 712.48 1092.83 714.07 1097 716.81C1105.13 722.13 1109.96 731.88 1109.79 741.54Z" fill="#2F3037"/>
<path d="M1129.59 788.11L1122.92 788.28C1122.91 787.8 1122.83 787.33 1122.75 786.86C1121.64 779.67 1120.54 772.48 1119.36 765.26C1118.81 762.01 1118.21 758.65 1116.69 755.69C1117.71 762.38 1118.67 769.07 1119.02 775.86C1119.21 779.22 1119.23 782.59 1119.04 785.95C1118.99 786.47 1118.84 787.4 1118.8 788.4L1095.7 789C1095.17 777.56 1095.23 765.89 1096.52 754.47C1094.05 765.96 1093.17 777.31 1092.81 789.07L1081.82 789.35C1081.82 789.35 1086.45 729.42 1105.37 726.84C1124.26 724.3 1129.59 788.11 1129.59 788.11Z" fill="#2F3037"/>
<path d="M1086.3 623.07L1033.2 675.64L952.36 755.69C950.81 757.23 948.49 757.66 946.49 756.79L839.95 710.28L773.74 681.37C770.28 679.86 769.44 675.35 772.12 672.71L806.52 638.66L906.07 540.08C907.62 538.54 909.95 538.12 911.94 538.98L976.19 567.03L999.69 577.29L1084.69 614.4C1088.13 615.91 1088.97 620.42 1086.3 623.07Z" fill="#2F3037"/>
<path d="M944.74 731.56C949.1 730.76 953.07 728.69 956.22 725.57L1036.18 646.4C1041.35 641.28 1043.64 633.95 1042.31 626.8C1040.98 619.65 1036.2 613.64 1029.53 610.72L926.39 565.7C922.37 563.95 917.98 563.44 913.67 564.23C909.31 565.03 905.34 567.1 902.19 570.22L822.23 649.39C817.06 654.51 814.77 661.84 816.1 668.99C817.43 676.14 822.21 682.15 828.88 685.06L932.01 730.08C936.03 731.84 940.43 732.34 944.74 731.56Z" fill="#282A37"/>
<path d="M1086.13 921.33C1054.46 972.26 991.32 895.91 991.32 895.91L982.09 866.1L980.11 859.72C966.09 814.47 968.49 765.77 986.79 722.18C987.39 720.74 988.02 719.31 988.65 717.87L988.67 717.84L1008.91 672.56L1016.53 655.53L1016.72 655.11C1016.72 655.11 1017.17 656.46 1018.02 658.84C1018.36 659.79 1018.78 660.91 1019.25 662.17C1019.26 662.19 1019.27 662.21 1019.27 662.22C1020.45 665.34 1022.03 669.32 1023.98 673.85C1030.3 688.5 1040.52 708.8 1053.72 723.61C1086.99 760.93 1055.03 772.5 1067.02 800.41C1079.03 828.34 1134.53 843.53 1086.13 921.33Z" fill="#AB4D17"/>
<path d="M1045.31 915.35C1039.93 918.47 1025.49 897.21 1022.06 902.99C1002.79 892.12 987.62 875.69 987.62 875.69L982.09 866.1L980.11 859.72C965.63 812.97 968.66 762.55 988.65 717.87L988.67 717.84C995.71 722.01 1002.87 726 1010.19 729.8C1052.8 760.24 1024.12 806.39 1060.51 835.68C1090.98 860.22 1063.26 904.92 1045.31 915.35Z" fill="#8A3E13"/>
<path d="M1005.84 907.33L983.16 783.5L918.07 798.02L940.3 919.34C943.36 921.81 954.09 929.86 969.33 929.34C992.31 928.56 1004.81 909.02 1005.84 907.33Z" fill="#FDB486"/>
<path d="M990.3 982.18C989.14 980.44 987.67 979 986.25 977.6C985.83 977.19 985.41 976.77 985 976.35C977.33 968.48 972.82 957.68 972.31 946.72L972.36 944.3C973.68 952.02 975.67 959.32 981.03 965.95C981.82 966.93 982.83 967.95 984.31 968.09C984.41 968.1 984.51 968.1 984.61 968.1C985.54 968.1 986.34 967.68 986.83 966.92C989.74 962.45 980.16 943.03 980.05 942.84L973.91 931.82C973.57 931.21 972.85 930.93 972.21 931.12C971.56 930.93 970.85 931.21 970.51 931.82L964.37 942.84C963.9 943.68 963.39 944.56 962.85 945.48C959.44 951.3 955.2 958.55 957.13 965.5C957.68 967.5 959.05 968.77 960.59 968.77C960.7 968.77 960.81 968.76 960.92 968.75C961.95 968.63 962.68 968 963.2 967.46C965.85 964.73 967.74 960.9 969.15 956.66C968.97 964.88 968.39 972.69 963.81 978.14C962.35 979.88 960.54 981.3 958.63 982.8C957.91 983.37 957.18 983.94 956.48 984.52C947.38 992.09 941.16 1003.14 939.42 1014.85C939.3 1015.66 939.86 1016.41 940.67 1016.53C940.74 1016.54 940.82 1016.55 940.89 1016.55C941.61 1016.55 942.24 1016.02 942.35 1015.29C943.98 1004.29 949.82 993.91 958.37 986.81C959.05 986.24 959.76 985.69 960.46 985.14C962.41 983.61 964.42 982.04 966.08 980.06C970.53 974.77 971.64 967.88 971.99 960.51C974.28 967.18 977.97 973.37 982.89 978.42C983.31 978.86 983.75 979.28 984.18 979.71C985.55 981.06 986.85 982.34 987.85 983.83C990.97 988.5 990.55 995.22 986.86 999.46C986.32 1000.08 986.39 1001.01 987.01 1001.55C987.29 1001.79 987.64 1001.91 987.98 1001.91C988.39 1001.91 988.81 1001.74 989.1 1001.4C993.62 996.19 994.14 987.92 990.3 982.18ZM977.46 944.28C979.5 947.94 985.29 962.31 984.43 965.09C984.02 964.93 983.53 964.32 983.34 964.08C977.38 956.71 975.88 948.13 974.54 939.04L977.46 944.28ZM961.06 965.4C960.72 965.75 960.59 965.8 960.61 965.81C960.47 965.75 960.15 965.34 959.97 964.71C958.38 958.96 962.27 952.32 965.39 946.98C965.94 946.05 966.46 945.15 966.94 944.29L969.49 939.71L969.47 940.52C969.41 941.21 969.35 941.91 969.32 942.6C967.97 951.02 965.85 960.47 961.06 965.4Z" fill="#FF8A65"/>
<path d="M932.49 911.6L923.71 919.85L960.83 946.08L932.49 911.6Z" fill="#EEEEEE"/>
<path d="M1005.92 911.6L1016.68 921.71L981.32 945.53L1005.92 911.6Z" fill="#EEEEEE"/>
<path d="M936.85 905.94L971.56 930.5L964.96 944.52C964.16 946.42 961.73 946.99 960.17 945.65L927.76 917.78L936.85 905.94Z" fill="white"/>
<path d="M1006.83 905.94L971.55 930.5L977.92 943.75C978.72 945.62 981.1 946.2 982.67 944.9L1015.36 917.79L1006.83 905.94Z" fill="white"/>
<path d="M983.57 785.74L994.51 845.46C975.75 859.7 956.16 874.59 937.31 888.92L920.52 797.29L983.57 785.74Z" fill="#E39468"/>
<path d="M1018.32 731.94C1018.32 731.94 1022.8 720.17 1037.01 722.95C1051.21 725.73 1051.33 760.2 1032.24 768.1C1032.24 768.1 1025.41 771.02 1018.9 766.98C1018.9 766.98 1019.27 741.44 1018.32 731.94Z" fill="#EF9C70"/>
<path d="M866.18 759.81C866.18 759.81 857.82 750.39 845.52 758.03C833.23 765.67 845.33 797.94 865.99 798.55C865.99 798.55 873.41 798.86 878.07 792.77C878.06 792.78 868.66 769.03 866.18 759.81Z" fill="#EF9C70"/>
<path d="M1014.3 702.96C1015.8 711.15 1017.62 722.84 1018.81 735.76C1020.73 756.57 1021.03 780.59 1015.78 798.48C1007.8 825.72 989.5 842.93 962.44 848.72C935.37 854.5 913.21 847.9 891.04 818.51C881.3 805.61 873.97 787.31 868.81 770.85C862.22 749.82 859.17 731.79 859.17 731.79C859.17 731.79 845.17 655.39 921.93 641.33C1002.79 626.51 1014.3 702.96 1014.3 702.96Z" fill="#FDB486"/>
<path d="M1014.3 702.96C1015.8 711.15 1017.62 722.84 1018.81 735.76C998.21 705.82 955.85 720.2 941.28 723.42C925.18 726.98 905.08 706.78 905.08 706.78C905.08 706.78 897.18 712.46 884.38 730.07C879.05 737.41 873.5 753.8 868.8 770.86C862.21 749.83 859.16 731.8 859.16 731.8C859.16 731.8 845.16 655.4 921.92 641.34C1002.79 626.51 1014.3 702.96 1014.3 702.96Z" fill="#E39468"/>
<path d="M919.86 753.93C920.48 757.33 918.33 760.57 915.06 761.17C911.78 761.77 908.62 759.5 908 756.1C907.38 752.7 909.53 749.46 912.8 748.86C916.08 748.26 919.24 750.53 919.86 753.93Z" fill="#37141E"/>
<path d="M986.6 742.28C987.22 745.68 985.07 748.92 981.8 749.52C978.52 750.12 975.36 747.85 974.74 744.45C974.12 741.05 976.27 737.81 979.54 737.21C982.82 736.61 985.98 738.88 986.6 742.28Z" fill="#37141E"/>
<path d="M927.7 728.92L887.66 747.91C887.66 747.91 887.33 735.31 903.74 727.71C920.15 720.1 927.7 728.92 927.7 728.92Z" fill="#37141E"/>
<path d="M954.46 724.02L998.63 727.59C998.63 727.59 994.47 715.69 976.43 714.4C958.39 713.1 954.46 724.02 954.46 724.02Z" fill="#37141E"/>
<path d="M945.21 745.19L955.68 783.3C955.69 783.29 926.72 783.9 945.21 745.19Z" fill="#E39468"/>
<path d="M989.52 777.9C997.62 776.35 1003.68 772.46 1003.06 769.21C1002.44 765.96 995.37 764.59 987.28 766.14C979.18 767.69 973.12 771.58 973.74 774.82C974.36 778.06 981.43 779.45 989.52 777.9Z" fill="#F09882"/>
<path d="M911.25 792.11C917.79 790.86 922.69 787.72 922.19 785.09C921.69 782.47 915.98 781.36 909.44 782.61C902.9 783.86 898 787 898.5 789.63C899 792.25 904.71 793.36 911.25 792.11Z" fill="#F09882"/>
<path d="M945.62 816.83C949.1 817.79 953.26 817.98 958.22 816.93C963.51 815.81 967.38 813.82 970.2 811.41C976.36 806.13 977.5 798.8 977.46 793.94C977.43 791.22 975.06 789.13 972.53 789.61L971.87 789.73L934.3 796.78L933.53 796.92C930.94 797.41 929.52 800.34 930.66 802.88C932.82 807.7 937.25 814.52 945.62 816.83Z" fill="#3F2645"/>
<path d="M945.03 802.65L963.46 799.83C968.33 799.08 971.8 794.77 971.87 789.72L934.3 796.77C936.32 800.88 940.63 803.33 945.03 802.65Z" fill="white"/>
<path d="M945.62 816.83C949.1 817.79 953.26 817.98 958.22 816.93C963.51 815.81 967.38 813.82 970.2 811.41C966.9 808.53 962 807.17 956.96 808.15C951.6 809.18 947.41 812.59 945.62 816.83Z" fill="#FF63AE"/>
<path d="M1024.27 750.41C1027.45 726.06 1004.92 719.88 1004.92 719.88C998.3 721.37 992.28 722.1 986.8 722.18C966.66 722.57 954 714.6 946.37 706.41L956.63 723.18C931.21 722.71 913.42 711.68 901.4 699.26C897.38 695.1 893.99 690.78 891.2 686.66C882.94 674.49 879.7 663.97 879.7 663.97C879.68 662.39 879.72 660.84 879.84 659.32C880.16 654.54 881.07 650.1 882.47 646.01C897.18 602.8 966.81 597.63 995.74 628.05C1006.85 639.73 1013.01 648.37 1016.55 655.53C1017.11 656.67 1017.61 657.76 1018.04 658.84C1018.52 659.98 1018.93 661.09 1019.27 662.17C1019.28 662.19 1019.29 662.21 1019.29 662.22C1020.61 666.27 1021.17 669.93 1021.58 673.59C1021.73 674.82 1021.85 676.05 1021.99 677.3C1022.68 683.7 1023.56 690.54 1027.82 699.9C1027.92 700.13 1028.01 700.35 1028.12 700.58C1041.35 729.05 1024.27 750.41 1024.27 750.41Z" fill="#8A3E13"/>
<path d="M883.08 790.54C895.43 828.69 930.23 847.68 930.23 847.68C930.23 847.68 935.02 857.1 938.41 904.81C941.8 952.53 875.85 997.1 836.2 943.35C796.56 889.6 882.67 850.85 854.67 831.41C826.66 811.98 819.63 790.29 834.22 761.47C841.66 746.76 842.02 729.22 842.71 711.58C843.04 702.95 843.45 694.3 844.81 685.96C846.12 677.97 848.28 670.24 852.11 663.1C860.24 647.85 872.45 645.08 882.46 646.03C887.63 646.51 892.21 647.98 895.32 649.24C897.99 650.31 899.6 651.23 899.6 651.23C905.98 663.52 908.02 673.3 907.34 681.64C906.8 688.25 904.55 693.95 901.39 699.27C898.21 704.64 894.09 709.64 889.85 714.81C876.11 731.6 870.75 752.38 883.08 790.54Z" fill="#AB4D17"/>
<path d="M844.46 913.3C836.22 902.33 833.62 893.1 834.37 885.03C824.86 901.74 819.94 921.28 836.21 943.34C875.85 997.09 941.8 952.52 938.41 904.81C938.33 903.75 938.26 902.74 938.18 901.71C918.9 924.46 874.88 953.79 844.46 913.3Z" fill="#8A3E13"/>
<path d="M1024 673.87C1023.2 673.77 1022.39 673.69 1021.58 673.6C1017.38 673.16 1013.14 672.83 1008.92 672.57C970.4 670.24 931.83 675.02 907.34 681.63C901.67 683.14 896.3 684.84 891.19 686.66C870.98 693.82 854.93 702.94 842.71 711.56C843.04 702.93 843.45 694.28 844.81 685.94C846.12 677.95 848.28 670.22 852.11 663.08C860.24 647.83 872.45 645.06 882.46 646.01C897.17 602.8 966.8 597.63 995.73 628.05C1006.84 639.73 1013 648.37 1016.54 655.53L1016.73 655.11C1016.73 655.11 1017.18 656.46 1018.03 658.84C1018.51 659.98 1018.92 661.09 1019.26 662.17C1019.27 662.19 1019.28 662.21 1019.28 662.22C1020.47 665.36 1022.05 669.34 1024 673.87Z" fill="#3D1D27"/>
<path d="M831.62 676.74L839.94 710.29C839.94 710.29 841.7 708.85 845.02 706.48C845.03 706.48 845.03 706.47 845.03 706.47C864.76 692.33 939.31 644.98 1023.44 669.22L1023.02 666.29L1017.25 626.31C1017.24 626.31 889.54 559.93 831.62 676.74Z" fill="#232537"/>
<path d="M1023.44 669.22C939.31 644.98 864.76 692.33 845.03 706.47C845.03 706.47 845.03 706.48 845.02 706.48C841.7 708.85 839.94 710.29 839.94 710.29L832.93 682.02C890.27 567.75 1014.87 630.65 1018.1 632.3L1023.01 666.29L1023.44 669.22Z" fill="#2F3037"/>
<path d="M845.03 706.47C864.76 692.33 939.31 644.98 1023.44 669.22L1023.02 666.29C1007.72 659.79 983.55 652.9 946.94 658.29C886.95 667.11 856.32 691.42 845.03 706.47Z" fill="#232537"/>
<g opacity="0.15">
<path d="M976.18 567.03C954.64 593.81 928.82 618.56 899.63 640.39C884.62 651.61 867.67 662.48 848.2 665.52C868.03 640.53 883.92 613.75 895.32 586.1C897.69 580.32 899.82 573.81 896.44 568.84C870.92 595.41 841.15 620.36 806.51 638.65L906.06 540.07C907.61 538.53 909.94 538.11 911.93 538.97L976.18 567.03Z" fill="#2F3037"/>
</g>
<g opacity="0.15">
<path d="M1084.67 614.4L999.67 577.29C1000.09 581.07 999.95 584.98 999.5 588.72C998.19 599.88 995.11 610.87 990.83 621.7C986.22 633.43 980.18 644.98 973.48 656.36C995.72 656.53 1011.76 661.51 1023.01 666.29L1032 675.32C1032.46 675.45 1032.86 675.56 1033.19 675.64L1086.29 623.07C1088.97 620.42 1088.12 615.91 1084.67 614.4Z" fill="#2F3037"/>
</g>
<path d="M1020.09 730.81C1019.45 729.88 1018.76 729.03 1018.04 728.24L1010 730.32C1009.08 726.56 1007.46 723.07 1005.28 720C999.73 712.16 990.59 707.02 980.27 707.02C971.85 707.02 964.23 710.42 958.69 715.94C957.3 717.31 956.05 718.82 954.95 720.44C954.37 721.28 953.84 722.16 953.34 723.06C950.98 727.4 949.64 732.37 949.64 737.64C949.64 738.77 949.71 739.89 949.83 740.99L936.53 743.67C933.3 730.21 921.18 720.17 906.74 720.17C891.77 720.17 879.27 730.98 876.63 745.2C876.3 747.02 876.12 748.89 876.12 750.8C876.12 751.42 876.14 752.05 876.19 752.66C876.25 753.79 876.38 754.91 876.57 756L876.24 756.09C876.27 757.09 876.33 758.1 876.41 759.14L877.22 758.93C880.79 771.88 892.67 781.43 906.74 781.43C923.63 781.43 937.37 767.69 937.37 750.8C937.37 749.38 937.27 747.99 937.08 746.62L950.3 743.95C953.21 757.82 965.54 768.27 980.27 768.27C997.16 768.27 1010.9 754.53 1010.9 737.64C1010.9 736.16 1010.78 734.7 1010.58 733.27L1020.09 730.81ZM906.74 778.43C893.05 778.43 881.51 767.86 879.42 754.48C877.33 741.14 886.25 727.95 899.09 724.25C901.57 723.53 904.15 723.17 906.74 723.17C921.98 723.17 934.37 735.56 934.37 750.8C934.37 766.03 921.98 778.43 906.74 778.43ZM980.27 765.27C965.03 765.27 952.64 752.88 952.64 737.64C952.64 729.62 956.07 722.39 961.55 717.36C966.47 712.8 973.05 710.02 980.27 710.02C989.03 710.02 996.86 714.12 1001.92 720.51C1005.67 725.22 1007.9 731.18 1007.9 737.64C1007.9 752.88 995.5 765.27 980.27 765.27Z" fill="#37141E"/>
<g opacity="0.15">
<path d="M1374.68 1575.87C1371.93 1569.02 1192.12 1599.77 1159.13 1605.47C1155.79 1606.05 1153.96 1606.36 1153.96 1606.36H803.04C803.96 1603.03 805.2 1599.81 806.75 1596.76C817.6 1575.45 839.83 1562.06 862.64 1554.9C885.46 1547.76 909.53 1545.78 932.92 1540.85C963.23 1534.45 992.47 1523.02 1019.07 1507.16C1046.87 1490.59 1074.09 1464.24 1072.48 1431.93C1071.44 1411.2 1058.66 1393.19 1046.97 1376.02C1028 1348.19 1010.37 1318.47 1003.85 1285.42C997.32 1252.37 1003.59 1215.17 1027.23 1191.19C1041.69 1176.51 1062.35 1166.6 1070.05 1147.49C1081.27 1119.61 1058.9 1088.65 1062.95 1058.87C1066.31 1034.1 1086.86 1015.76 1106.05 999.75C1123.5 985.2 1141.19 970.5 1159.69 957.19C1160.42 957.63 1160.86 957.92 1160.97 958.08C1161.62 959.05 1166.87 963.35 1174.9 972.54C1195.33 995.96 1233.82 1051.11 1260.88 1163.93C1298.58 1321.11 1377.71 1583.4 1374.68 1575.87Z" fill="#2F3037"/>
</g>
<path d="M1374.68 1575.87C1371.93 1569.02 1192.12 1599.77 1159.13 1605.47C1154.05 1587.25 1148.42 1566.2 1142.78 1542.93C1105.1 1387.78 1066.12 1134.68 1174.89 972.56C1195.32 995.98 1233.81 1051.13 1260.87 1163.95C1283.74 1259.29 1321.87 1393.35 1347.65 1482.36C1364.35 1540.06 1375.87 1578.83 1374.68 1575.87Z" fill="#2F3037"/>
<path d="M1374.68 1575.87C1371.93 1569.02 1192.12 1599.77 1159.13 1605.47C1154.05 1587.25 1148.42 1566.2 1142.78 1542.93C1187.48 1515.58 1252.69 1491.37 1347.65 1482.36C1364.35 1540.06 1375.87 1578.83 1374.68 1575.87Z" fill="#616E9A"/>
<path d="M685.01 609.24C623.64 644.87 552.85 685.83 507.81 711.44C488.36 673.84 475.54 649.62 475.54 649.62L637.89 531.93L685.01 609.24Z" fill="#616E9A"/>
<g opacity="0.15">
<path d="M751.88 1286.13C742.34 1300.18 727.67 1309.71 714.55 1320.5C663.28 1362.62 633.19 1429.32 635.55 1495.63C636.86 1532.63 647.57 1569.72 654.49 1606.37H558.41C558.41 1606.37 700.51 1196.01 694.56 1123.91C690.26 1071.81 577.8 847.34 515.75 726.83C527.39 725.04 540.31 725.74 551.63 725.3C559.05 725.02 566.89 725.32 573.2 729.22C596.21 743.41 577.14 784.84 596.51 803.7C608.72 815.6 630.62 812.22 642.58 824.39C664.33 846.54 629.94 889.04 649.16 913.42C660.93 928.35 684.42 925.04 701.95 917.68C719.49 910.33 738.32 900.16 756.42 906.02C757.96 906.52 759.54 907.19 760.58 908.43C763.63 912.09 760.27 917.48 756.95 920.91C729.05 949.6 692.43 976.6 688.84 1016.45C685.85 1049.72 707.44 1079.41 723.9 1108.48C740.49 1137.75 752.68 1169.53 759.93 1202.39C766.15 1230.56 768.1 1262.26 751.88 1286.13Z" fill="#2F3037"/>
</g>
<path d="M876.63 745.2C876.35 747.58 876.2 750.06 876.19 752.66C876.14 752.05 876.12 751.42 876.12 750.8C876.12 748.89 876.3 747.02 876.63 745.2Z" fill="#AB4D17"/>
</g>
<defs>
<clipPath id="clip0_2_2">
<rect width="1727" height="1600" fill="white"/>
</clipPath>
</defs>
</svg>
