<?xml version="1.0" encoding="utf-8"?>
<!-- Generator: Adobe Illustrator 25.4.1, SVG Export Plug-In . SVG Version: 6.00 Build 0)  -->
<svg version="1.1" xmlns="http://www.w3.org/2000/svg" xmlns:xlink="http://www.w3.org/1999/xlink" x="0px" y="0px"
	 viewBox="0 0 4000 2400" style="enable-background:new 0 0 4000 2400;" xml:space="preserve">
<style type="text/css">
	.st0{fill:#F2F2F2;}
	.st1{fill:#F9C52A;}
	.st2{fill:#343C54;}
	.st3{fill:#4A5578;}
	.st4{fill:#BAC4D9;}
</style>
<g id="Layer_2">
	<rect class="st0" width="4000" height="2400"/>
</g>
<g id="Layer_4">
	<g>
		<g>
			<g>
				<path class="st1" d="M1296.27,998.9c17.74,8.4,30.96,19.84,39.68,34.31c8.71,14.47,13.07,31.2,13.07,50.18
					c0,20.23-4.57,38.21-13.7,53.92c-9.13,15.72-22.91,28.01-41.33,36.88c-18.42,8.87-40.85,13.3-67.3,13.3h-38.73v101.3h-64.42
					V986.29h105.97C1256.27,986.29,1278.53,990.49,1296.27,998.9z M1265.14,1123.31c10.48-7.31,15.73-19.99,15.73-38.05
					c0-15.24-4.69-26.68-14.06-34.31c-9.37-7.62-22.47-11.44-39.3-11.44h-39.54v94.77h32.39
					C1239.73,1134.28,1254.65,1130.62,1265.14,1123.31z"/>
				<path class="st2" d="M1191.96,1292.8h-72.42V982.29h109.97c27.24,0,50.27,4.37,68.47,12.99h0c18.38,8.7,32.3,20.77,41.4,35.86
					c9.05,15.04,13.64,32.62,13.64,52.25c0,20.86-4.79,39.67-14.24,55.93c-9.5,16.34-23.98,29.29-43.05,38.47
					c-18.88,9.09-42.1,13.7-69.03,13.7h-34.73V1292.8z M1127.54,1284.8h56.42v-101.3h42.73c25.72,0,47.77-4.34,65.56-12.91
					c17.6-8.48,30.93-20.35,39.61-35.29c8.73-15.02,13.16-32.49,13.16-51.91c0-18.15-4.21-34.34-12.5-48.12
					c-8.26-13.72-21.04-24.74-37.97-32.76l0,0c-17.12-8.11-39-12.22-65.04-12.22h-101.97V1284.8z M1220.36,1138.28h-36.39v-102.77
					h43.54c17.7,0,31.77,4.15,41.83,12.33c10.31,8.4,15.53,20.98,15.53,37.41c0,19.35-5.87,33.26-17.44,41.33l0,0
					C1256.31,1134.35,1240.48,1138.28,1220.36,1138.28z M1191.96,1130.28h28.39c18.45,0,32.75-3.45,42.49-10.25l0,0
					c9.3-6.48,14.01-18.18,14.01-34.77c0-14.1-4.12-24.31-12.58-31.21c-8.59-6.99-20.97-10.54-36.77-10.54h-35.54V1130.28z"/>
			</g>
			<g>
				<path class="st1" d="M1597.37,986.29h64.42v302.51h-64.42v-125.58h-140.52v125.58h-64.42V986.29h64.42v120.91h140.52V986.29z"/>
				<path class="st2" d="M1665.79,1292.8h-72.42v-125.58h-132.52v125.58h-72.42V982.29h72.42v120.91h132.52V982.29h72.42V1292.8z
					 M1601.37,1284.8h56.42V990.29h-56.42v120.91h-148.52V990.29h-56.42v294.51h56.42v-125.58h148.52V1284.8z"/>
			</g>
			<g>
				<path class="st1" d="M1986.7,986.29v3.73l-112.04,172.73v126.04h-64.42v-124.18L1701,990.03v-3.73h74.69l68.16,116.71
					l70.96-116.71H1986.7z"/>
				<path class="st2" d="M1878.66,1292.8h-72.42v-127.03L1697,991.18v-8.88h80.99l65.93,112.89l68.64-112.89h78.14v8.92
					l-112.04,172.73V1292.8z M1814.24,1284.8h56.42v-123.23l111.1-171.28h-64.7l-73.28,120.52l-70.38-120.52h-67.51l108.35,173.18
					V1284.8z"/>
			</g>
			<g>
				<path class="st1" d="M1987.16,1258.92l29.88-46.22c28.94,18.37,57.26,27.54,84.96,27.54c17.74,0,31.66-2.8,41.78-8.4
					c10.11-5.6,15.17-14,15.17-25.21c0-6.84-1.63-12.52-4.9-17.04c-3.27-4.51-9.03-8.87-17.27-13.07
					c-8.25-4.2-20.62-9.57-37.11-16.11l-10.74-4.2c-19.92-7.78-35.95-15.24-48.08-22.41c-12.14-7.16-21.79-16.34-28.94-27.54
					c-7.16-11.2-10.74-25.36-10.74-42.48c0-18.98,5.44-34.78,16.34-47.38c10.89-12.6,24.9-21.86,42.01-27.78
					c17.11-5.91,35.32-8.87,54.62-8.87c17.43,0,35.4,2.88,53.92,8.64c18.51,5.76,36.18,14.24,52.99,25.44l-30.16,45.75
					c-14.85-9.02-28-15.56-39.44-19.61c-11.44-4.04-23.82-6.07-37.11-6.07c-14.85,0-26.06,2.49-33.64,7.47
					c-7.58,4.98-11.37,11.67-11.37,20.07c0,5.3,1.55,10.04,4.64,14.24c3.09,4.2,8.66,8.4,16.7,12.6c8.05,4.2,19.65,9.1,34.81,14.71
					l10.21,3.73c19.8,7.47,35.81,14.47,48.03,21.01c12.22,6.54,22.5,15.87,30.86,28.01c8.35,12.14,12.53,27.86,12.53,47.15
					c0,20.23-5.3,37.27-15.87,51.12c-10.58,13.85-24.97,24.2-43.18,31.04c-18.21,6.84-38.83,10.27-61.86,10.27
					C2059.52,1295.34,2019.84,1283.2,1987.16,1258.92z"/>
				<path class="st2" d="M2106.2,1299.34c-47.34,0-88.2-12.52-121.43-37.2l-3.01-2.24l34.07-52.69l3.35,2.12
					c28.15,17.86,56.01,26.92,82.82,26.92c16.97,0,30.37-2.66,39.84-7.9c8.82-4.89,13.11-11.99,13.11-21.71
					c0-5.95-1.39-10.9-4.14-14.69c-2.88-3.97-8.21-7.96-15.85-11.85c-8.1-4.12-20.47-9.49-36.77-15.95l-10.72-4.2
					c-20.02-7.81-36.39-15.45-48.66-22.69c-12.63-7.44-22.82-17.15-30.28-28.83c-7.54-11.8-11.37-26.81-11.37-44.64
					c0-19.89,5.82-36.71,17.31-50c11.3-13.08,26.01-22.82,43.73-28.94c17.47-6.03,36.28-9.09,55.93-9.09
					c17.74,0,36.28,2.97,55.11,8.82c18.82,5.86,36.99,14.58,54.02,25.93l3.31,2.21l-34.47,52.29l-3.29-2
					c-14.55-8.84-27.57-15.32-38.7-19.25c-10.97-3.88-23.01-5.84-35.78-5.84c-13.98,0-24.56,2.29-31.45,6.81
					c-6.43,4.23-9.56,9.7-9.56,16.73c0,4.46,1.26,8.34,3.86,11.87c2.72,3.69,7.88,7.53,15.33,11.43c7.85,4.1,19.41,8.98,34.34,14.5
					l10.2,3.73c19.9,7.51,36.22,14.65,48.54,21.24c12.73,6.81,23.58,16.66,32.27,29.27c8.78,12.76,13.24,29.39,13.24,49.42
					c0,21.03-5.62,39.05-16.69,53.55c-11,14.4-26.12,25.28-44.95,32.36C2150.88,1295.79,2129.59,1299.34,2106.2,1299.34z
					 M1992.58,1257.91c31.27,22.18,69.48,33.42,113.62,33.42c22.43,0,42.76-3.37,60.45-10.01c17.4-6.54,31.34-16.54,41.41-29.73
					c9.99-13.07,15.05-29.46,15.05-48.69c0-18.38-3.98-33.48-11.83-44.88c-7.95-11.55-17.86-20.55-29.45-26.75
					c-12.01-6.42-28.01-13.42-47.56-20.79l-10.18-3.72c-15.26-5.64-27.13-10.66-35.29-14.92c-8.67-4.53-14.58-9.03-18.07-13.78
					c-3.6-4.89-5.42-10.47-5.42-16.61c0-9.79,4.43-17.67,13.17-23.42c8.21-5.39,20.27-8.13,35.84-8.13c13.68,0,26.61,2.12,38.44,6.3
					c10.78,3.81,23.18,9.86,36.88,17.98l25.84-39.2c-15.42-9.87-31.76-17.53-48.62-22.77c-18.05-5.61-35.8-8.46-52.73-8.46
					c-18.75,0-36.69,2.91-53.31,8.65c-16.37,5.66-29.92,14.61-40.29,26.61c-10.2,11.79-15.37,26.86-15.37,44.77
					c0,16.27,3.4,29.84,10.11,40.33c6.78,10.62,16.07,19.45,27.6,26.25c11.9,7.02,27.89,14.47,47.51,22.13l10.74,4.2
					c16.55,6.56,29.15,12.03,37.47,16.27c8.9,4.54,15.01,9.21,18.7,14.29c3.76,5.19,5.66,11.72,5.66,19.39
					c0,12.71-5.8,22.37-17.23,28.71c-10.67,5.91-25.38,8.9-43.72,8.9c-27.27,0-55.42-8.77-83.74-26.07L1992.58,1257.91z"/>
			</g>
			<g>
				<path class="st1" d="M2277.53,1288.8V986.29h64.42v302.51H2277.53z"/>
				<path class="st2" d="M2345.95,1292.8h-72.42V982.29h72.42V1292.8z M2281.53,1284.8h56.42V990.29h-56.42V1284.8z"/>
			</g>
			<g>
				<path class="st1" d="M2428.08,1253.09c-23.5-28.16-35.25-65.9-35.25-113.21c0-38.28,6.54-69.32,19.61-93.13
					c13.07-23.81,30.42-40.92,52.05-51.35c21.63-10.42,45.98-15.64,73.06-15.64c18.98,0,36.41,2.26,52.29,6.77
					c15.87,4.52,31.74,11.44,47.62,20.77l-24.87,49.02c-22.22-14.31-46.3-21.47-72.27-21.47c-52.88,0-79.32,33.77-79.32,101.3
					c0,33.61,7.35,59.13,22.06,76.56c14.7,17.43,35.51,26.14,62.41,26.14c13.76,0,25.81-1.79,36.14-5.37
					c10.32-3.57,21.12-8.64,32.39-15.17l25.81,46.68c-16.81,9.96-33.23,17.51-49.25,22.64c-16.03,5.14-33.07,7.7-51.12,7.7
					C2488.68,1295.34,2451.57,1281.26,2428.08,1253.09z"/>
				<path class="st2" d="M2539.42,1299.34c-51.74,0-90.23-14.7-114.41-43.69c-24-28.76-36.17-67.71-36.17-115.77
					c0-38.78,6.76-70.76,20.1-95.06c13.42-24.44,31.53-42.28,53.82-53.03c22.08-10.64,47.24-16.04,74.8-16.04
					c19.25,0,37.21,2.33,53.38,6.92c16.13,4.59,32.47,11.71,48.55,21.17l3.24,1.91l-28.58,56.32l-3.73-2.4
					c-21.46-13.83-45.05-20.84-70.11-20.84c-50.68,0-75.32,31.83-75.32,97.3c0,32.49,7.1,57.38,21.11,73.98
					c13.84,16.4,33.81,24.72,59.35,24.72c13.26,0,24.97-1.73,34.83-5.15c10.01-3.47,20.67-8.46,31.69-14.85l3.53-2.05l29.66,53.65
					l-3.34,1.98c-16.96,10.06-33.81,17.8-50.07,23.01C2575.4,1296.68,2557.79,1299.34,2539.42,1299.34z M2537.55,983.76
					c-26.34,0-50.34,5.13-71.32,15.24c-20.76,10.01-37.68,26.72-50.28,49.67c-12.68,23.1-19.11,53.79-19.11,91.21
					c0,46.13,11.55,83.36,34.32,110.64l0,0c22.59,27.08,59.01,40.81,108.27,40.81c17.55,0,34.34-2.53,49.9-7.51
					c14.62-4.69,29.77-11.51,45.08-20.32l-21.96-39.72c-10.21,5.69-20.13,10.22-29.54,13.47c-10.7,3.71-23.29,5.59-37.44,5.59
					c-28.01,0-50.04-9.27-65.47-27.56c-15.26-18.08-23-44.71-23-79.14c0-69.87,28.03-105.3,83.32-105.3
					c25.16,0,48.92,6.65,70.68,19.77l21.18-41.74c-14.44-8.18-29.03-14.4-43.43-18.5C2573.28,985.98,2556.06,983.76,2537.55,983.76z
					"/>
			</g>
			<g>
				<path class="st1" d="M2654.25,1258.92l29.88-46.22c28.94,18.37,57.26,27.54,84.96,27.54c17.74,0,31.66-2.8,41.78-8.4
					c10.11-5.6,15.17-14,15.17-25.21c0-6.84-1.63-12.52-4.9-17.04c-3.27-4.51-9.03-8.87-17.27-13.07
					c-8.25-4.2-20.62-9.57-37.11-16.11l-10.74-4.2c-19.92-7.78-35.95-15.24-48.08-22.41c-12.14-7.16-21.79-16.34-28.94-27.54
					c-7.16-11.2-10.74-25.36-10.74-42.48c0-18.98,5.44-34.78,16.34-47.38c10.89-12.6,24.9-21.86,42.01-27.78
					c17.11-5.91,35.32-8.87,54.62-8.87c17.43,0,35.4,2.88,53.92,8.64c18.51,5.76,36.18,14.24,52.99,25.44l-30.16,45.75
					c-14.85-9.02-28-15.56-39.44-19.61c-11.44-4.04-23.82-6.07-37.11-6.07c-14.85,0-26.06,2.49-33.64,7.47
					c-7.58,4.98-11.36,11.67-11.36,20.07c0,5.3,1.55,10.04,4.64,14.24c3.09,4.2,8.66,8.4,16.7,12.6c8.05,4.2,19.65,9.1,34.81,14.71
					l10.21,3.73c19.8,7.47,35.81,14.47,48.03,21.01c12.22,6.54,22.5,15.87,30.86,28.01c8.35,12.14,12.53,27.86,12.53,47.15
					c0,20.23-5.3,37.27-15.87,51.12c-10.58,13.85-24.98,24.2-43.18,31.04c-18.21,6.84-38.83,10.27-61.86,10.27
					C2726.61,1295.34,2686.93,1283.2,2654.25,1258.92z"/>
				<path class="st2" d="M2773.29,1299.34c-47.34,0-88.2-12.52-121.43-37.2l-3.01-2.24l34.07-52.69l3.35,2.12
					c28.15,17.86,56.01,26.92,82.82,26.92c16.97,0,30.37-2.66,39.84-7.9c8.82-4.89,13.11-11.99,13.11-21.71
					c0-5.95-1.39-10.9-4.14-14.69c-2.88-3.97-8.21-7.96-15.85-11.85c-8.09-4.12-20.47-9.49-36.77-15.95l-10.72-4.2
					c-20.02-7.81-36.39-15.45-48.66-22.69c-12.63-7.44-22.82-17.15-30.28-28.83c-7.54-11.8-11.37-26.81-11.37-44.64
					c0-19.89,5.82-36.71,17.31-50c11.3-13.08,26.02-22.82,43.73-28.94c17.47-6.03,36.28-9.09,55.93-9.09
					c17.74,0,36.28,2.97,55.11,8.82c18.82,5.86,36.99,14.58,54.02,25.93l3.31,2.21l-34.47,52.29l-3.29-2
					c-14.55-8.84-27.57-15.32-38.7-19.25c-10.97-3.88-23.01-5.84-35.78-5.84c-13.98,0-24.56,2.29-31.45,6.81
					c-6.43,4.23-9.56,9.7-9.56,16.73c0,4.46,1.26,8.34,3.86,11.87c2.71,3.69,7.87,7.53,15.33,11.43c7.86,4.1,19.41,8.98,34.34,14.5
					l10.2,3.73c19.9,7.51,36.22,14.65,48.54,21.24c12.73,6.81,23.58,16.66,32.27,29.27c8.78,12.76,13.24,29.39,13.24,49.42
					c0,21.03-5.62,39.05-16.69,53.55c-11,14.4-26.12,25.28-44.95,32.36C2817.97,1295.79,2796.68,1299.34,2773.29,1299.34z
					 M2659.67,1257.91c31.27,22.18,69.48,33.42,113.63,33.42c22.43,0,42.76-3.37,60.45-10.01c17.4-6.54,31.34-16.54,41.41-29.73
					c9.99-13.07,15.05-29.45,15.05-48.69c0-18.38-3.98-33.48-11.83-44.88c-7.95-11.55-17.86-20.55-29.45-26.75
					c-12.01-6.42-28.01-13.42-47.56-20.79l-10.17-3.72c-15.26-5.64-27.13-10.66-35.29-14.92c-8.67-4.53-14.58-9.03-18.07-13.78
					c-3.6-4.89-5.42-10.47-5.42-16.61c0-9.79,4.43-17.67,13.17-23.42c8.22-5.39,20.27-8.13,35.84-8.13c13.68,0,26.61,2.12,38.45,6.3
					c10.78,3.81,23.18,9.86,36.88,17.98l25.84-39.19c-15.42-9.87-31.76-17.53-48.62-22.77c-18.05-5.61-35.8-8.46-52.73-8.46
					c-18.75,0-36.69,2.91-53.31,8.65c-16.37,5.66-29.93,14.61-40.29,26.61c-10.2,11.79-15.37,26.86-15.37,44.77
					c0,16.27,3.4,29.84,10.11,40.33c6.78,10.62,16.07,19.45,27.6,26.25c11.9,7.02,27.89,14.47,47.51,22.13l10.74,4.2
					c16.55,6.56,29.15,12.03,37.47,16.27c8.9,4.54,15.01,9.21,18.7,14.29c3.76,5.19,5.66,11.71,5.66,19.39
					c0,12.71-5.8,22.37-17.23,28.71c-10.67,5.91-25.38,8.9-43.72,8.9c-27.27,0-55.42-8.77-83.74-26.07L2659.67,1257.91z"/>
			</g>
		</g>
	</g>
	<g>
		<g>
			<path class="st2" d="M2019.22,567.62c-12.62,0-24.31-15.75-32.9-44.36c-8.41-27.99-13.03-65.18-13.03-104.71
				c0-39.53,4.63-76.72,13.03-104.71c8.59-28.61,20.27-44.36,32.9-44.36c12.62,0,24.31,15.75,32.9,44.36
				c8.41,27.99,13.04,65.18,13.04,104.71c0,39.53-4.63,76.72-13.04,104.71C2043.52,551.87,2031.84,567.62,2019.22,567.62z
				 M2019.22,272.82c-10.86,0-21.69,15.3-29.7,41.98c-8.31,27.69-12.89,64.53-12.89,103.75c0,39.21,4.58,76.06,12.89,103.75
				c8.01,26.68,18.84,41.98,29.7,41.98s21.69-15.3,29.7-41.98c8.31-27.69,12.89-64.53,12.89-103.75c0-39.21-4.58-76.06-12.89-103.75
				C2040.9,288.13,2030.08,272.82,2019.22,272.82z"/>
		</g>
		<g>
			<path class="st2" d="M2122.2,506.1c-8.48,0-18.78-1.57-30.68-4.73c-28.25-7.5-62.35-23.03-96.03-43.73
				c-33.68-20.7-62.93-44.12-82.38-65.94c-19.87-22.3-27.17-40.5-20.56-51.26c6.61-10.76,26.15-12.46,55.02-4.79
				c28.25,7.5,62.35,23.03,96.03,43.73c33.68,20.7,62.93,44.12,82.38,65.94c19.87,22.3,27.17,40.5,20.56,51.26
				C2142.66,502.9,2134.3,506.1,2122.2,506.1z M1916.86,334.27c-10.78,0-18.22,2.66-21.46,7.92c-5.69,9.25,1.68,26.49,20.21,47.29
				c19.23,21.58,48.22,44.78,81.63,65.32c33.41,20.54,67.19,35.93,95.13,43.35c26.93,7.15,45.63,5.94,51.32-3.31
				c5.69-9.25-1.68-26.49-20.21-47.29c-19.23-21.58-48.22-44.78-81.63-65.32c-33.41-20.54-67.19-35.93-95.13-43.35
				C1935.11,335.8,1925.03,334.27,1916.86,334.27z"/>
		</g>
		<g>
			<path class="st2" d="M1916.38,504.32c-12.78,0-21.53-3.35-25.43-9.96c-6.42-10.87,1.21-28.94,21.47-50.89
				c19.83-21.47,49.49-44.36,83.53-64.46c34.04-20.1,68.41-35.02,96.79-42.02c29-7.15,48.51-5.1,54.93,5.77
				c6.42,10.87-1.21,28.94-21.47,50.89c-19.83,21.47-49.5,44.36-83.53,64.46c-34.04,20.1-68.41,35.02-96.79,42.02
				C1934.52,502.93,1924.61,504.32,1916.38,504.32z M2122.28,336.15c-7.95,0-17.64,1.35-28.73,4.09
				c-28.07,6.92-62.12,21.71-95.89,41.65c-33.77,19.94-63.16,42.62-82.78,63.85c-18.9,20.46-26.57,37.57-21.05,46.92
				c5.52,9.35,24.2,10.89,51.25,4.23c28.07-6.92,62.12-21.71,95.89-41.65l0.85,1.44l-0.85-1.44c33.77-19.94,63.16-42.62,82.78-63.85
				c18.9-20.46,26.57-37.57,21.05-46.92C2141.54,338.95,2133.7,336.15,2122.28,336.15z"/>
		</g>
		<g>
			<path class="st3" d="M2034.14,418.5c0,6.94-5.63,12.57-12.57,12.57c-6.94,0-12.57-5.63-12.57-12.57
				c0-6.94,5.63-12.57,12.57-12.57C2028.51,405.93,2034.14,411.56,2034.14,418.5z"/>
			<path class="st2" d="M2019.17,432.75c-7.85,0-14.24-6.39-14.24-14.24c0-7.85,6.39-14.24,14.24-14.24
				c7.85,0,14.24,6.39,14.24,14.24C2033.41,426.36,2027.02,432.75,2019.17,432.75z M2019.17,407.6c-6.01,0-10.9,4.89-10.9,10.9
				c0,6.01,4.89,10.9,10.9,10.9c6.01,0,10.9-4.89,10.9-10.9C2030.07,412.49,2025.18,407.6,2019.17,407.6z"/>
		</g>
		<g>
			<path class="st3" d="M1952.48,333.14c1.61,6.75-2.56,13.54-9.31,15.15c-6.75,1.61-13.54-2.56-15.15-9.31
				c-1.61-6.75,2.56-13.54,9.31-15.15C1944.09,322.21,1950.87,326.38,1952.48,333.14z"/>
			<path class="st2" d="M1937.83,350.3c-2.6,0-5.16-0.72-7.43-2.11c-3.24-1.99-5.51-5.13-6.4-8.83c-0.88-3.7-0.27-7.52,1.72-10.77
				c1.99-3.24,5.13-5.51,8.83-6.4c3.7-0.88,7.52-0.27,10.77,1.72c3.24,1.99,5.51,5.13,6.4,8.83c0.88,3.7,0.27,7.52-1.72,10.77
				c-1.99,3.24-5.13,5.51-8.83,6.4C1940.05,350.17,1938.94,350.3,1937.83,350.3z M1937.87,325.15c-0.85,0-1.7,0.1-2.55,0.3
				c-2.83,0.68-5.23,2.41-6.76,4.9c-1.53,2.48-1.99,5.41-1.32,8.24c0.68,2.83,2.41,5.23,4.9,6.76c2.48,1.53,5.41,1.99,8.24,1.32
				c2.83-0.68,5.23-2.41,6.76-4.9c1.53-2.48,1.99-5.41,1.32-8.24c-0.68-2.83-2.41-5.23-4.9-6.76
				C1941.82,325.7,1939.87,325.15,1937.87,325.15z"/>
		</g>
		<g>
			<path class="st3" d="M1957.14,502.15c-1.73,6.72-8.59,10.77-15.31,9.04c-6.72-1.73-10.77-8.59-9.04-15.31
				c1.73-6.73,8.59-10.77,15.31-9.04C1954.83,488.57,1958.88,495.43,1957.14,502.15z"/>
			<path class="st2" d="M1942.57,513.26c-1.17,0-2.36-0.15-3.55-0.45c-7.61-1.96-12.2-9.74-10.24-17.35
				c0.95-3.68,3.28-6.78,6.55-8.71c3.28-1.93,7.11-2.48,10.79-1.53c3.68,0.95,6.78,3.28,8.71,6.55c1.93,3.28,2.48,7.11,1.53,10.79
				C1954.71,508.99,1948.91,513.26,1942.57,513.26z M1942.55,488.11c-1.93,0-3.82,0.51-5.52,1.52c-2.51,1.48-4.29,3.85-5.01,6.67
				c-0.73,2.82-0.31,5.75,1.17,8.26c1.48,2.51,3.85,4.29,6.67,5.01c2.82,0.73,5.75,0.31,8.26-1.17c2.51-1.48,4.29-3.85,5.01-6.67
				c0.73-2.82,0.31-5.75-1.17-8.26c-1.48-2.51-3.85-4.29-6.67-5.01C1944.38,488.22,1943.46,488.11,1942.55,488.11z"/>
		</g>
		<g>
			<path class="st3" d="M2132.18,438.03c0,6.94-5.63,12.57-12.57,12.57c-6.94,0-12.57-5.63-12.57-12.57
				c0-6.94,5.63-12.57,12.57-12.57C2126.55,425.45,2132.18,431.08,2132.18,438.03z"/>
			<path class="st2" d="M2117.2,452.27c-7.85,0-14.24-6.39-14.24-14.24c0-7.85,6.39-14.24,14.24-14.24
				c7.85,0,14.24,6.39,14.24,14.24C2131.45,445.88,2125.06,452.27,2117.2,452.27z M2117.2,427.12c-6.01,0-10.9,4.89-10.9,10.9
				c0,6.01,4.89,10.9,10.9,10.9c6.01,0,10.9-4.89,10.9-10.9C2128.11,432.02,2123.21,427.12,2117.2,427.12z"/>
		</g>
	</g>
	<g>
		<g>
			<g>
				<g>
					<path class="st0" d="M717.07,408.28v278.8V408.28z"/>
					<path class="st2" d="M714.67,688.76c-0.92,0-1.67-0.75-1.67-1.67V408.28c0-0.92,0.75-1.67,1.67-1.67
						c0.92,0,1.67,0.75,1.67,1.67v278.81C716.34,688.01,715.59,688.76,714.67,688.76z"/>
				</g>
				<g>
					<path class="st2" d="M727.72,423.01c-0.43,0-0.86-0.16-1.18-0.49l-11.87-11.87l-11.78,11.78c-0.65,0.65-1.71,0.65-2.36,0
						c-0.65-0.65-0.65-1.71,0-2.36l12.96-12.96c0.65-0.65,1.71-0.65,2.36,0l13.05,13.05c0.65,0.65,0.65,1.71,0,2.36
						C728.58,422.84,728.15,423.01,727.72,423.01z"/>
				</g>
			</g>
			<g>
				<g>
					<path class="st0" d="M995.88,687.1H717.07H995.88z"/>
					<path class="st2" d="M993.48,688.77H714.67c-0.92,0-1.67-0.75-1.67-1.67c0-0.92,0.75-1.67,1.67-1.67h278.81
						c0.92,0,1.67,0.75,1.67,1.67C995.15,688.02,994.4,688.77,993.48,688.77z"/>
				</g>
				<g>
					<path class="st2" d="M980.42,701.82c-0.43,0-0.86-0.16-1.18-0.49c-0.65-0.65-0.65-1.71,0-2.36l11.87-11.87l-11.78-11.78
						c-0.65-0.65-0.65-1.71,0-2.36c0.65-0.65,1.71-0.65,2.36,0l12.96,12.96c0.31,0.31,0.49,0.74,0.49,1.18
						c0,0.44-0.18,0.87-0.49,1.18l-13.05,13.05C981.28,701.65,980.85,701.82,980.42,701.82z"/>
				</g>
			</g>
		</g>
		<g>
			<path class="st2" d="M943,648.95c-26.09,0-51.4-5.11-75.22-15.19c-23.01-9.73-43.68-23.67-61.43-41.41
				c-17.75-17.75-31.68-38.41-41.41-61.43c-10.08-23.83-15.19-49.13-15.19-75.22c0-0.92,0.75-1.67,1.67-1.67
				c0.92,0,1.67,0.75,1.67,1.67c0,104.72,85.19,189.91,189.91,189.91c0.92,0,1.67,0.75,1.67,1.67
				C944.67,648.2,943.92,648.95,943,648.95z"/>
		</g>
	</g>
	<g>
		<g>
			<path class="st4" d="M1893.51,2053.18h-288.76c0-6.84,2.81-13.07,7.32-17.59c4.51-4.53,10.73-7.32,17.59-7.32h238.94
				C1882.29,2028.27,1893.51,2039.48,1893.51,2053.18z"/>
			<path class="st2" d="M1891.11,2054.85h-288.76c-0.92,0-1.67-0.75-1.67-1.67c0-7.06,2.77-13.73,7.81-18.77
				c5.02-5.04,11.69-7.81,18.77-7.81h238.94c14.66,0,26.58,11.92,26.58,26.58C1892.78,2054.1,1892.03,2054.85,1891.11,2054.85z
				 M1604.08,2051.51h285.3c-0.86-12.04-10.93-21.57-23.18-21.57h-238.94c-6.19,0-12.01,2.43-16.4,6.83
				C1606.85,2040.78,1604.48,2045.96,1604.08,2051.51z"/>
		</g>
		<g>
			<g>
				<path class="st2" d="M1863,2029.94c-0.92,0-1.67-0.75-1.67-1.67V1827.5c0-12.68-10.32-23-23-23h-183.2c-12.68,0-23,10.32-23,23
					v200.76c0,0.92-0.75,1.67-1.67,1.67c-0.92,0-1.67-0.75-1.67-1.67V1827.5c0-14.53,11.82-26.34,26.34-26.34h183.2
					c14.53,0,26.34,11.82,26.34,26.34v200.76C1864.67,2029.19,1863.92,2029.94,1863,2029.94z"/>
			</g>
		</g>
		<g>
			<g>
				<path class="st3" d="M1685.84,1984.11c0,9.38-7.6,16.98-16.98,16.98s-16.98-7.6-16.98-16.98c0-9.38,7.6-16.98,16.98-16.98
					S1685.84,1974.73,1685.84,1984.11z"/>
				<path class="st2" d="M1666.46,2002.77c-10.29,0-18.65-8.37-18.65-18.65s8.37-18.65,18.65-18.65c10.29,0,18.65,8.37,18.65,18.65
					S1676.74,2002.77,1666.46,2002.77z M1666.46,1968.8c-8.44,0-15.31,6.87-15.31,15.31c0,8.44,6.87,15.31,15.31,15.31
					s15.31-6.87,15.31-15.31C1681.77,1975.67,1674.9,1968.8,1666.46,1968.8z"/>
			</g>
			<g>
				<path class="st2" d="M1666.46,1968.8c-0.92,0-1.67-0.75-1.67-1.67v-164.3c0-0.92,0.75-1.67,1.67-1.67s1.67,0.75,1.67,1.67v164.3
					C1668.13,1968.05,1667.38,1968.8,1666.46,1968.8z"/>
			</g>
		</g>
		<g>
			<g>
				<path class="st3" d="M1731.28,1984.11c0,9.38-7.6,16.98-16.98,16.98c-9.38,0-16.98-7.6-16.98-16.98
					c0-9.38,7.6-16.98,16.98-16.98C1723.67,1967.13,1731.28,1974.73,1731.28,1984.11z"/>
				<path class="st2" d="M1711.89,2002.77c-10.29,0-18.65-8.37-18.65-18.65s8.37-18.65,18.65-18.65c10.29,0,18.65,8.37,18.65,18.65
					S1722.18,2002.77,1711.89,2002.77z M1711.89,1968.8c-8.44,0-15.31,6.87-15.31,15.31c0,8.44,6.87,15.31,15.31,15.31
					s15.31-6.87,15.31-15.31C1727.2,1975.67,1720.34,1968.8,1711.89,1968.8z"/>
			</g>
			<g>
				<path class="st2" d="M1711.89,1968.8c-0.92,0-1.67-0.75-1.67-1.67v-164.3c0-0.92,0.75-1.67,1.67-1.67
					c0.92,0,1.67,0.75,1.67,1.67v164.3C1713.56,1968.05,1712.82,1968.8,1711.89,1968.8z"/>
			</g>
		</g>
		<g>
			<g>
				<path class="st3" d="M1776.71,1984.11c0,9.38-7.6,16.98-16.98,16.98c-9.38,0-16.98-7.6-16.98-16.98
					c0-9.38,7.6-16.98,16.98-16.98C1769.11,1967.13,1776.71,1974.73,1776.71,1984.11z"/>
				<path class="st2" d="M1757.33,2002.77c-10.29,0-18.65-8.37-18.65-18.65s8.37-18.65,18.65-18.65c10.29,0,18.65,8.37,18.65,18.65
					S1767.61,2002.77,1757.33,2002.77z M1757.33,1968.8c-8.44,0-15.31,6.87-15.31,15.31c0,8.44,6.87,15.31,15.31,15.31
					c8.44,0,15.31-6.87,15.31-15.31C1772.64,1975.67,1765.77,1968.8,1757.33,1968.8z"/>
			</g>
			<g>
				<path class="st2" d="M1757.33,1968.8c-0.92,0-1.67-0.75-1.67-1.67v-164.3c0-0.92,0.75-1.67,1.67-1.67
					c0.92,0,1.67,0.75,1.67,1.67v164.3C1759,1968.05,1758.25,1968.8,1757.33,1968.8z"/>
			</g>
		</g>
		<g>
			<g>
				<path class="st3" d="M1847.27,1964.12c0,9.38-7.6,16.98-16.98,16.98c-9.38,0-16.98-7.6-16.98-16.98s7.6-16.98,16.98-16.98
					C1839.67,1947.14,1847.27,1954.74,1847.27,1964.12z"/>
				<path class="st2" d="M1827.89,1982.78c-10.29,0-18.65-8.37-18.65-18.65c0-10.29,8.37-18.65,18.65-18.65
					c10.29,0,18.65,8.37,18.65,18.65C1846.54,1974.41,1838.17,1982.78,1827.89,1982.78z M1827.89,1948.81
					c-8.44,0-15.31,6.87-15.31,15.31c0,8.44,6.87,15.31,15.31,15.31c8.44,0,15.31-6.87,15.31-15.31
					C1843.2,1955.68,1836.33,1948.81,1827.89,1948.81z"/>
			</g>
			<g>
				<path class="st2" d="M1827.88,1948.81c-0.77,0-1.46-0.53-1.63-1.31l-31.79-144.31c-0.2-0.9,0.37-1.79,1.27-1.99
					c0.9-0.2,1.79,0.37,1.99,1.27l31.79,144.31c0.2,0.9-0.37,1.79-1.27,1.99C1828.12,1948.8,1828,1948.81,1827.88,1948.81z"/>
			</g>
		</g>
	</g>
	<g>
		<g>
			<g>
				<path class="st4" d="M1487.8,543.71v114.65c0,18.44-3.72,31.97-11.15,40.6c-7.43,8.62-19.38,12.93-35.87,12.93
					c-17.03,0-29.23-4.28-36.61-12.85c-7.37-8.57-11.06-22.02-11.06-40.35V543.71h-50.27v122.62c0,27.23,8.46,48.68,25.38,64.35
					c16.91,15.67,40.67,23.5,71.26,23.5c20.28,0,37.85-3.52,52.71-10.57c14.85-7.04,26.21-17.19,34.08-30.42
					c7.87-13.23,11.8-28.63,11.8-46.2V543.71H1487.8z"/>
				<path class="st2" d="M1437.08,755.86c-30.88,0-55.24-8.06-72.39-23.95c-17.2-15.92-25.92-37.98-25.92-65.58V543.71
					c0-0.92,0.75-1.67,1.67-1.67h50.27c0.92,0,1.67,0.75,1.67,1.67v114.98c0,17.83,3.59,31.04,10.66,39.26
					c7.01,8.14,18.9,12.27,35.35,12.27c15.9,0,27.54-4.16,34.6-12.35c7.13-8.28,10.75-21.57,10.75-39.51V543.71
					c0-0.92,0.75-1.67,1.67-1.67h50.27c0.92,0,1.67,0.75,1.67,1.67v123.28c0,17.8-4.05,33.63-12.03,47.06
					c-8.01,13.47-19.72,23.93-34.8,31.08C1475.49,752.24,1457.52,755.86,1437.08,755.86z M1342.11,545.38v120.95
					c0,26.62,8.36,47.86,24.85,63.12c16.52,15.3,40.11,23.06,70.12,23.06c19.94,0,37.43-3.5,52-10.41
					c14.47-6.86,25.69-16.87,33.36-29.76c7.67-12.9,11.56-28.16,11.56-45.35V545.38h-46.93v112.98c0,18.76-3.89,32.78-11.56,41.69
					c-7.73,8.96-20.22,13.51-37.13,13.51c-17.46,0-30.2-4.52-37.88-13.43c-7.61-8.85-11.47-22.79-11.47-41.44V545.38H1342.11z"/>
			</g>
		</g>
		<g>
			<path class="st3" d="M1538.07,589.96v77.03c0,17.57-3.93,32.97-11.8,46.2c-7.87,13.23-19.22,23.38-34.08,30.42
				c-14.87,7.05-32.44,10.57-52.71,10.57c-30.59,0-54.34-7.83-71.26-23.5c-16.93-15.67-25.38-37.12-25.38-64.35v-76.37h50.27v68.73
				c0,18.33,3.69,31.78,11.06,40.35c7.38,8.57,19.59,12.85,36.61,12.85c16.48,0,28.44-4.31,35.87-12.93
				c7.43-8.63,11.15-22.16,11.15-40.6v-68.4H1538.07z"/>
			<path class="st2" d="M1437.08,755.86c-30.88,0-55.24-8.06-72.39-23.95c-17.2-15.92-25.92-37.98-25.92-65.58v-76.37
				c0-0.92,0.75-1.67,1.67-1.67h50.27c0.92,0,1.67,0.75,1.67,1.67v68.73c0,17.83,3.59,31.04,10.66,39.26
				c7.01,8.14,18.9,12.27,35.35,12.27c15.9,0,27.54-4.16,34.6-12.35c7.13-8.28,10.75-21.57,10.75-39.51v-68.4
				c0-0.92,0.75-1.67,1.67-1.67h50.27c0.92,0,1.67,0.75,1.67,1.67v77.03c0,17.8-4.05,33.63-12.03,47.06
				c-8.01,13.47-19.72,23.93-34.8,31.08C1475.49,752.24,1457.52,755.86,1437.08,755.86z M1342.11,591.63v74.7
				c0,26.62,8.36,47.86,24.85,63.12c16.52,15.3,40.11,23.06,70.12,23.06c19.94,0,37.43-3.5,52-10.41
				c14.47-6.86,25.69-16.87,33.36-29.76c7.67-12.9,11.56-28.16,11.56-45.35v-75.36h-46.93v66.73c0,18.76-3.89,32.78-11.56,41.69
				c-7.73,8.96-20.22,13.51-37.13,13.51c-17.46,0-30.2-4.52-37.88-13.43c-7.61-8.85-11.47-22.79-11.47-41.44v-67.06H1342.11z"/>
		</g>
		<g>
			<path class="st3" d="M1357.27,565.73h21.71H1357.27z"/>
			<path class="st2" d="M1376.58,567.4h-21.71c-0.92,0-1.67-0.75-1.67-1.67c0-0.92,0.75-1.67,1.67-1.67h21.71
				c0.92,0,1.67,0.75,1.67,1.67C1378.25,566.65,1377.5,567.4,1376.58,567.4z"/>
		</g>
		<g>
			<path class="st3" d="M1502.91,565.73h21.71H1502.91z"/>
			<path class="st2" d="M1522.22,567.4h-21.71c-0.92,0-1.67-0.75-1.67-1.67c0-0.92,0.75-1.67,1.67-1.67h21.71
				c0.92,0,1.67,0.75,1.67,1.67C1523.89,566.65,1523.14,567.4,1522.22,567.4z"/>
		</g>
		<g>
			<path class="st3" d="M1513.77,576.58v-21.71V576.58z"/>
			<path class="st2" d="M1511.37,578.26c-0.92,0-1.67-0.75-1.67-1.67v-21.71c0-0.92,0.75-1.67,1.67-1.67s1.67,0.75,1.67,1.67v21.71
				C1513.04,577.51,1512.29,578.26,1511.37,578.26z"/>
		</g>
	</g>
	<g>
		<g>
			<g>
				<path class="st3" d="M3344.91,1157.53c0,30.88-25.03,55.92-55.92,55.92c-30.88,0-55.92-25.03-55.92-55.92
					c0-30.88,25.03-55.92,55.92-55.92C3319.88,1101.61,3344.91,1126.65,3344.91,1157.53z"/>
				<path class="st2" d="M3286.6,1215.12c-31.75,0-57.59-25.83-57.59-57.59s25.83-57.59,57.59-57.59
					c31.75,0,57.59,25.83,57.59,57.59S3318.35,1215.12,3286.6,1215.12z M3286.6,1103.28c-29.91,0-54.25,24.33-54.25,54.25
					c0,29.91,24.33,54.25,54.25,54.25c29.91,0,54.25-24.33,54.25-54.25C3340.84,1127.62,3316.51,1103.28,3286.6,1103.28z"/>
			</g>
			<g>
				<path class="st0" d="M3300.66,1157.53c0,6.44-5.22,11.67-11.67,11.67c-6.44,0-11.67-5.22-11.67-11.67
					c0-6.44,5.22-11.67,11.67-11.67C3295.44,1145.86,3300.66,1151.09,3300.66,1157.53z"/>
				<path class="st2" d="M3286.6,1170.87c-7.35,0-13.34-5.98-13.34-13.34s5.98-13.34,13.34-13.34c7.35,0,13.34,5.98,13.34,13.34
					S3293.95,1170.87,3286.6,1170.87z M3286.6,1147.53c-5.51,0-10,4.48-10,10c0,5.51,4.48,10,10,10c5.51,0,10-4.48,10-10
					C3296.59,1152.02,3292.11,1147.53,3286.6,1147.53z"/>
			</g>
		</g>
		<g>
			<g>
				
					<ellipse transform="matrix(0.1602 -0.9871 0.9871 0.1602 1870.4374 4195.5005)" class="st3" cx="3400.83" cy="998.53" rx="55.92" ry="55.92"/>
				<path class="st2" d="M3398.43,1056.12c-31.75,0-57.59-25.83-57.59-57.59c0-31.75,25.83-57.59,57.59-57.59
					c31.75,0,57.59,25.83,57.59,57.59C3456.02,1030.29,3430.18,1056.12,3398.43,1056.12z M3398.43,944.29
					c-29.91,0-54.25,24.33-54.25,54.25c0,29.91,24.33,54.25,54.25,54.25s54.25-24.33,54.25-54.25
					C3452.68,968.62,3428.34,944.29,3398.43,944.29z"/>
			</g>
			<g>
				<path class="st0" d="M3412.5,998.53c0,6.44-5.22,11.67-11.67,11.67c-6.44,0-11.67-5.22-11.67-11.67
					c0-6.44,5.22-11.67,11.67-11.67C3407.27,986.86,3412.5,992.09,3412.5,998.53z"/>
				<path class="st2" d="M3398.43,1011.87c-7.35,0-13.34-5.98-13.34-13.34c0-7.35,5.98-13.34,13.34-13.34
					c7.35,0,13.34,5.98,13.34,13.34C3411.77,1005.89,3405.78,1011.87,3398.43,1011.87z M3398.43,988.54c-5.51,0-10,4.48-10,10
					c0,5.51,4.48,10,10,10s10-4.48,10-10C3408.43,993.02,3403.94,988.54,3398.43,988.54z"/>
			</g>
		</g>
		<g>
			<path class="st2" d="M3342.51,1159.2c-0.92,0-1.67-0.75-1.67-1.67v-159c0-0.92,0.75-1.67,1.67-1.67s1.67,0.75,1.67,1.67v159
				C3344.18,1158.45,3343.44,1159.2,3342.51,1159.2z"/>
		</g>
		<g>
			<path class="st2" d="M3454.34,1084.87c-0.92,0-1.67-0.75-1.67-1.67v-84.67c0-0.92,0.75-1.67,1.67-1.67
				c0.92,0,1.67,0.75,1.67,1.67v84.67C3456.01,1084.12,3455.26,1084.87,3454.34,1084.87z"/>
		</g>
		<g>
			<path class="st2" d="M3454.34,1215.12c-0.92,0-1.67-0.75-1.67-1.67v-59.88c0-0.92,0.75-1.67,1.67-1.67
				c0.92,0,1.67,0.75,1.67,1.67v59.88C3456.01,1214.37,3455.26,1215.12,3454.34,1215.12z"/>
		</g>
		<g>
			<path class="st2" d="M3230.68,1159.2c-0.92,0-1.67-0.75-1.67-1.67v-159c0-0.92,0.75-1.67,1.67-1.67c0.92,0,1.67,0.75,1.67,1.67
				v159C3232.35,1158.45,3231.6,1159.2,3230.68,1159.2z"/>
		</g>
		<g>
			<path class="st2" d="M3208.9,1021.99c-0.43,0-0.86-0.16-1.18-0.49c-0.65-0.65-0.65-1.71,0-2.36l21.78-21.78
				c0.65-0.65,1.71-0.65,2.36,0c0.65,0.65,0.65,1.71,0,2.36l-21.78,21.78C3209.75,1021.82,3209.33,1021.99,3208.9,1021.99z"/>
		</g>
		<g>
			<path class="st2" d="M3252.46,1021.99c-0.43,0-0.85-0.16-1.18-0.49l-21.78-21.78c-0.65-0.65-0.65-1.71,0-2.36
				c0.65-0.65,1.71-0.65,2.36,0l21.78,21.78c0.65,0.65,0.65,1.71,0,2.36C3253.32,1021.82,3252.89,1021.99,3252.46,1021.99z"/>
		</g>
		<g>
			<g>
				<path class="st2" d="M3454.35,1215.12c-0.43,0-0.86-0.16-1.18-0.49l-21.78-21.78c-0.65-0.65-0.65-1.71,0-2.36
					c0.65-0.65,1.71-0.65,2.36,0l21.78,21.78c0.65,0.65,0.65,1.71,0,2.36C3455.2,1214.95,3454.77,1215.12,3454.35,1215.12z"/>
			</g>
			<g>
				<path class="st2" d="M3454.35,1215.12c-0.43,0-0.86-0.16-1.18-0.49c-0.65-0.65-0.65-1.71,0-2.36l21.78-21.78
					c0.65-0.65,1.71-0.65,2.36,0c0.65,0.65,0.65,1.71,0,2.36l-21.78,21.78C3455.2,1214.95,3454.77,1215.12,3454.35,1215.12z"/>
			</g>
		</g>
		<g>
			<rect x="3413.25" y="1083.2" class="st4" width="86.99" height="70.37"/>
			<path class="st2" d="M3497.84,1155.23h-86.99c-0.92,0-1.67-0.75-1.67-1.67v-70.37c0-0.92,0.75-1.67,1.67-1.67h86.99
				c0.92,0,1.67,0.75,1.67,1.67v70.37C3499.51,1154.49,3498.76,1155.23,3497.84,1155.23z M3412.52,1151.89h83.65v-67.02h-83.65
				V1151.89z"/>
		</g>
	</g>
	<g>
		<g>
			<path class="st3" d="M3062.14,365.97c0,20.6-16.7,37.31-37.31,37.31c-20.6,0-37.31-16.7-37.31-37.31
				c0-20.6,16.7-37.31,37.31-37.31C3045.44,328.66,3062.14,345.36,3062.14,365.97z"/>
			<path class="st2" d="M3022.44,404.94c-21.49,0-38.98-17.49-38.98-38.98c0-21.49,17.49-38.98,38.98-38.98
				c21.49,0,38.98,17.49,38.98,38.98C3061.41,387.46,3043.93,404.94,3022.44,404.94z M3022.44,330.33
				c-19.65,0-35.64,15.99-35.64,35.64s15.99,35.64,35.64,35.64c19.65,0,35.64-15.99,35.64-35.64S3042.09,330.33,3022.44,330.33z"/>
		</g>
		<g>
			<path class="st3" d="M2898.34,464.46c0,4.5-3.64,8.14-8.14,8.14s-8.14-3.64-8.14-8.14c0-4.5,3.64-8.14,8.14-8.14
				S2898.34,459.96,2898.34,464.46z"/>
			<path class="st2" d="M2887.8,474.27c-5.41,0-9.81-4.4-9.81-9.81c0-5.41,4.4-9.81,9.81-9.81s9.81,4.4,9.81,9.81
				C2897.61,469.87,2893.21,474.27,2887.8,474.27z M2887.8,457.99c-3.57,0-6.47,2.9-6.47,6.47c0,3.57,2.9,6.47,6.47,6.47
				s6.47-2.9,6.47-6.47C2894.27,460.89,2891.37,457.99,2887.8,457.99z"/>
		</g>
		<g>
			<path class="st2" d="M2887.8,457.99c-0.92,0-1.67-0.75-1.67-1.67v-90.35c0-0.92,0.75-1.67,1.67-1.67h97.33
				c0.92,0,1.67,0.75,1.67,1.67c0,0.92-0.75,1.67-1.67,1.67h-95.66v88.68C2889.47,457.24,2888.72,457.99,2887.8,457.99z"/>
		</g>
		<g>
			<path class="st2" d="M2939.42,489.58l-5.11-13.05h-16.44l-5.05,13.05h-4.83l16.22-41.19h4.01l16.14,41.19H2939.42z
				 M2932.82,472.24l-4.77-12.71c-0.62-1.61-1.25-3.58-1.91-5.92c-0.41,1.8-1,3.77-1.77,5.92l-4.83,12.71H2932.82z"/>
		</g>
		<g>
			<path class="st3" d="M3151.33,464.46c0,4.5,3.64,8.14,8.14,8.14c4.5,0,8.14-3.64,8.14-8.14c0-4.5-3.65-8.14-8.14-8.14
				C3154.98,456.32,3151.33,459.96,3151.33,464.46z"/>
			<path class="st2" d="M3157.07,474.27c-5.41,0-9.81-4.4-9.81-9.81c0-5.41,4.4-9.81,9.81-9.81c5.41,0,9.81,4.4,9.81,9.81
				C3166.88,469.87,3162.48,474.27,3157.07,474.27z M3157.07,457.99c-3.57,0-6.47,2.9-6.47,6.47c0,3.57,2.9,6.47,6.47,6.47
				c3.57,0,6.47-2.9,6.47-6.47C3163.54,460.89,3160.64,457.99,3157.07,457.99z"/>
		</g>
		<g>
			<path class="st2" d="M3157.07,457.99c-0.92,0-1.67-0.75-1.67-1.67v-88.68h-95.66c-0.92,0-1.67-0.75-1.67-1.67
				c0-0.92,0.75-1.67,1.67-1.67h97.33c0.92,0,1.67,0.75,1.67,1.67v90.35C3158.74,457.24,3157.99,457.99,3157.07,457.99z"/>
		</g>
		<g>
			<path class="st2" d="M3106.9,448.55h11.59c5.44,0,9.38,0.81,11.81,2.44c2.43,1.63,3.65,4.2,3.65,7.72c0,2.43-0.68,4.44-2.03,6.02
				c-1.36,1.58-3.33,2.61-5.94,3.07v0.28c6.23,1.07,9.34,4.34,9.34,9.82c0,3.67-1.24,6.53-3.72,8.59c-2.48,2.06-5.94,3.09-10.4,3.09
				h-14.31V448.55z M3111.67,466.12h7.86c3.37,0,5.79-0.53,7.27-1.59c1.48-1.06,2.22-2.84,2.22-5.35c0-2.3-0.82-3.96-2.47-4.98
				c-1.65-1.02-4.26-1.53-7.86-1.53h-7.02V466.12z M3111.67,470.16v15.35h8.56c3.31,0,5.8-0.64,7.48-1.92
				c1.67-1.28,2.51-3.29,2.51-6.02c0-2.54-0.86-4.41-2.57-5.61c-1.71-1.2-4.32-1.8-7.82-1.8H3111.67z"/>
		</g>
		<g>
			<path class="st2" d="M3033.96,348.83h5.14l-14.79,41.03h-4.71l-14.7-41.03h5.05l9.43,26.55c1.09,3.05,1.95,6.01,2.58,8.9
				c0.67-3.03,1.55-6.05,2.64-9.06L3033.96,348.83z"/>
		</g>
	</g>
	<g>
		<g>
			<path class="st3" d="M2855.01,1971.09l279.57-219.47L2855.01,1971.09z"/>
			<path class="st2" d="M2852.61,1972.77c-0.5,0-0.99-0.22-1.32-0.64c-0.57-0.73-0.44-1.78,0.28-2.35l279.57-219.47
				c0.73-0.57,1.78-0.44,2.35,0.28c0.57,0.73,0.44,1.78-0.28,2.35l-279.57,219.47C2853.34,1972.65,2852.97,1972.77,2852.61,1972.77z
				"/>
		</g>
		<g>
			
				<rect x="2925.68" y="1805.85" transform="matrix(0.7869 -0.6171 0.6171 0.7869 -498.2776 2229.0186)" class="st3" width="105.33" height="60.28"/>
			<path class="st2" d="M2953.1,1893.87c-0.07,0-0.13,0-0.2-0.01c-0.44-0.05-0.84-0.28-1.11-0.63l-37.19-47.43
				c-0.57-0.73-0.44-1.78,0.28-2.35l82.88-64.99c0.73-0.57,1.78-0.44,2.35,0.28l37.19,47.43c0.27,0.35,0.4,0.79,0.34,1.23
				c-0.05,0.44-0.28,0.84-0.63,1.11l-82.88,64.99C2953.84,1893.75,2953.48,1893.87,2953.1,1893.87z M2918.25,1845.05l35.13,44.8
				l80.25-62.93l-35.13-44.8L2918.25,1845.05z"/>
		</g>
		<g>
			<g>
				<path class="st2" d="M3029.05,1906.63c-0.5,0-0.99-0.22-1.32-0.64l-26.94-34.36c-0.57-0.73-0.44-1.78,0.28-2.35
					c0.73-0.57,1.78-0.44,2.35,0.28l26.94,34.36c0.57,0.73,0.44,1.78-0.28,2.35C3029.78,1906.51,3029.41,1906.63,3029.05,1906.63z"
					/>
			</g>
			<g>
				<path class="st2" d="M3029.61,1907.31c-0.07,0-0.13,0-0.2-0.01l-16.07-1.94c-0.92-0.11-1.57-0.94-1.46-1.86
					c0.11-0.92,0.95-1.56,1.86-1.46l16.07,1.94c0.92,0.11,1.57,0.94,1.46,1.86C3031.16,1906.69,3030.44,1907.31,3029.61,1907.31z"/>
			</g>
			<g>
				<path class="st2" d="M3029.61,1907.31c-0.07,0-0.13,0-0.2-0.01c-0.92-0.11-1.57-0.94-1.46-1.86l1.94-16.08
					c0.11-0.92,0.95-1.57,1.86-1.46c0.92,0.11,1.57,0.94,1.46,1.86l-1.94,16.07C3031.16,1906.69,3030.44,1907.31,3029.61,1907.31z"
					/>
			</g>
		</g>
		<g>
			<g>
				<path class="st2" d="M3031.55,1794.59c-0.5,0-0.99-0.22-1.32-0.64c-0.57-0.73-0.44-1.78,0.28-2.35l34.36-26.94
					c0.73-0.57,1.78-0.44,2.34,0.28c0.57,0.73,0.44,1.78-0.28,2.35l-34.36,26.94C3032.27,1794.48,3031.91,1794.59,3031.55,1794.59z"
					/>
			</g>
			<g>
				<path class="st2" d="M3064.65,1783.17c-0.07,0-0.14,0-0.2-0.01c-0.92-0.11-1.57-0.94-1.46-1.86l1.94-16.07
					c0.11-0.92,0.95-1.56,1.86-1.46c0.92,0.11,1.57,0.94,1.46,1.86l-1.94,16.07C3066.2,1782.55,3065.48,1783.17,3064.65,1783.17z"/>
			</g>
			<g>
				<path class="st2" d="M3066.59,1767.1c-0.07,0-0.14,0-0.2-0.01l-16.07-1.94c-0.92-0.11-1.57-0.94-1.46-1.86
					c0.11-0.92,0.95-1.57,1.86-1.46l16.07,1.94c0.92,0.11,1.57,0.94,1.46,1.86C3068.14,1766.47,3067.42,1767.1,3066.59,1767.1z"/>
			</g>
		</g>
		<g>
			<g>
				<path class="st2" d="M2882.08,1908.87c-0.5,0-0.99-0.22-1.32-0.64c-0.57-0.73-0.44-1.78,0.28-2.35l34.36-26.94
					c0.73-0.57,1.78-0.44,2.35,0.28c0.57,0.73,0.44,1.78-0.28,2.35l-34.36,26.94C2882.8,1908.76,2882.44,1908.87,2882.08,1908.87z"
					/>
			</g>
			<g>
				<path class="st2" d="M2881.4,1909.43c-0.07,0-0.14,0-0.2-0.01c-0.92-0.11-1.57-0.94-1.46-1.86l1.94-16.07
					c0.11-0.92,0.95-1.57,1.86-1.46c0.92,0.11,1.57,0.94,1.46,1.86l-1.94,16.07C2882.96,1908.8,2882.24,1909.43,2881.4,1909.43z"/>
			</g>
			<g>
				<path class="st2" d="M2897.48,1911.37c-0.07,0-0.13,0-0.2-0.01l-16.07-1.94c-0.92-0.11-1.57-0.94-1.46-1.86
					c0.11-0.92,0.95-1.57,1.86-1.46l16.07,1.95c0.92,0.11,1.57,0.94,1.46,1.86C2899.03,1910.75,2898.31,1911.37,2897.48,1911.37z"/>
			</g>
		</g>
		<g>
			<path class="st2" d="M2844.01,1919.56h-3.53v-21.77h12.28v3.01h-8.76v6.8h8.2v3.02h-8.2V1919.56z"/>
			<path class="st2" d="M2865.45,1919.56h-3.5v-14.06c0-1.68,0.04-3.01,0.12-3.99c-0.23,0.24-0.51,0.5-0.84,0.79
				c-0.33,0.29-1.45,1.2-3.34,2.74l-1.76-2.22l6.4-5.03h2.92V1919.56z"/>
		</g>
		<g>
			<path class="st2" d="M3051.15,1931.91h-3.53v-21.77h12.28v3.01h-8.75v6.8h8.2v3.02h-8.2V1931.91z"/>
			<path class="st2" d="M3077.07,1931.91h-14.76v-2.65l5.61-5.64c1.66-1.7,2.76-2.9,3.3-3.61c0.54-0.71,0.94-1.38,1.18-2
				c0.25-0.63,0.37-1.3,0.37-2.01c0-0.98-0.3-1.76-0.89-2.32c-0.59-0.57-1.41-0.85-2.45-0.85c-0.83,0-1.64,0.15-2.42,0.46
				c-0.78,0.31-1.68,0.86-2.7,1.67l-1.89-2.31c1.21-1.02,2.39-1.75,3.53-2.17c1.14-0.43,2.36-0.64,3.65-0.64
				c2.02,0,3.65,0.53,4.87,1.59c1.22,1.06,1.83,2.48,1.83,4.27c0,0.98-0.18,1.92-0.53,2.8c-0.35,0.88-0.89,1.79-1.62,2.73
				c-0.73,0.94-1.94,2.21-3.64,3.8l-3.78,3.66v0.15h10.33V1931.91z"/>
		</g>
		<g>
			<path class="st2" d="M3083.13,1753.48h-3.53v-21.77h12.28v3.01h-8.75v6.81h8.2v3.02h-8.2V1753.48z"/>
			<path class="st2" d="M3108.23,1736.72c0,1.38-0.4,2.53-1.21,3.45c-0.8,0.92-1.94,1.54-3.39,1.85v0.12
				c1.75,0.22,3.06,0.76,3.93,1.63c0.87,0.87,1.31,2.02,1.31,3.46c0,2.09-0.74,3.71-2.22,4.85c-1.48,1.14-3.58,1.7-6.31,1.7
				c-2.41,0-4.45-0.39-6.1-1.18v-3.11c0.92,0.46,1.9,0.81,2.93,1.06c1.03,0.25,2.03,0.37,2.98,0.37c1.69,0,2.95-0.31,3.78-0.94
				c0.83-0.62,1.25-1.59,1.25-2.9c0-1.16-0.46-2.01-1.38-2.56c-0.92-0.55-2.37-0.82-4.35-0.82h-1.89v-2.84h1.92
				c3.48,0,5.21-1.2,5.21-3.6c0-0.93-0.3-1.65-0.91-2.16c-0.61-0.51-1.5-0.76-2.68-0.76c-0.82,0-1.62,0.12-2.38,0.35
				c-0.76,0.23-1.67,0.69-2.71,1.36l-1.71-2.44c2-1.47,4.31-2.2,6.95-2.2c2.19,0,3.91,0.47,5.14,1.41
				C3107.62,1733.76,3108.23,1735.06,3108.23,1736.72z"/>
		</g>
	</g>
	<g>
		<polygon class="st3" points="2643.4,627.27 2568.82,627.27 2605.86,507.48 2493.95,670.62 2568.53,670.62 2531.49,790.41 		"/>
		<path class="st2" d="M2529.09,792.08c-0.25,0-0.49-0.05-0.73-0.17c-0.74-0.36-1.11-1.21-0.87-2l36.37-117.63h-72.31
			c-0.62,0-1.19-0.34-1.48-0.89c-0.29-0.55-0.25-1.21,0.1-1.72l111.91-163.14c0.47-0.68,1.36-0.92,2.11-0.56
			c0.74,0.36,1.11,1.21,0.87,2l-36.37,117.63H2641c0.62,0,1.19,0.34,1.48,0.89c0.29,0.55,0.25,1.21-0.1,1.72l-111.91,163.14
			C2530.14,791.83,2529.62,792.08,2529.09,792.08z M2494.72,668.95h71.41c0.53,0,1.03,0.25,1.34,0.68c0.31,0.43,0.41,0.98,0.25,1.49
			l-33.79,109.28l103.89-151.45h-71.41c-0.53,0-1.03-0.25-1.34-0.68c-0.31-0.43-0.41-0.98-0.25-1.49l33.79-109.28L2494.72,668.95z"
			/>
	</g>
	<g>
		<g>
			<path class="st2" d="M1019.5,1868.91c-17.43,0-34.33-3.41-50.25-10.15c-15.37-6.5-29.18-15.81-41.04-27.67
				c-11.86-11.86-21.16-25.66-27.67-41.04c-6.73-15.92-10.15-32.82-10.15-50.25c0-17.43,3.41-34.33,10.15-50.25
				c6.5-15.37,15.81-29.18,27.67-41.04c11.86-11.86,25.66-21.16,41.04-27.67c15.92-6.73,32.82-10.15,50.25-10.15
				s34.33,3.41,50.25,10.15c15.37,6.5,29.18,15.81,41.04,27.67c11.86,11.86,21.16,25.66,27.67,41.04
				c6.73,15.92,10.15,32.82,10.15,50.25c0,17.43-3.41,34.33-10.15,50.25c-6.5,15.37-15.81,29.18-27.67,41.04
				c-11.86,11.86-25.66,21.16-41.04,27.67C1053.83,1865.49,1036.93,1868.91,1019.5,1868.91z M1019.5,1614.05
				c-69.34,0-125.76,56.41-125.76,125.76c0,69.34,56.41,125.76,125.76,125.76c69.34,0,125.76-56.41,125.76-125.76
				C1145.26,1670.47,1088.84,1614.05,1019.5,1614.05z"/>
		</g>
		<g>
			<path class="st3" d="M1038.91,1739.81c0,9.4-7.62,17.01-17.02,17.01c-9.4,0-17.01-7.62-17.01-17.01c0-9.4,7.62-17.01,17.01-17.01
				C1031.3,1722.79,1038.91,1730.41,1038.91,1739.81z"/>
			<path class="st2" d="M1019.5,1758.5c-10.3,0-18.69-8.38-18.69-18.69c0-10.3,8.38-18.69,18.69-18.69
				c10.3,0,18.69,8.38,18.69,18.69C1038.19,1750.11,1029.8,1758.5,1019.5,1758.5z M1019.5,1724.46c-8.46,0-15.34,6.88-15.34,15.34
				c0,8.46,6.88,15.34,15.34,15.34c8.46,0,15.34-6.88,15.34-15.34C1034.84,1731.35,1027.96,1724.46,1019.5,1724.46z"/>
		</g>
		<g>
			<path class="st3" d="M987.4,1735.16h-73.38H987.4z"/>
			<path class="st2" d="M985,1736.83h-73.38c-0.92,0-1.67-0.75-1.67-1.67c0-0.92,0.75-1.67,1.67-1.67H985
				c0.92,0,1.67,0.75,1.67,1.67C986.67,1736.08,985.92,1736.83,985,1736.83z"/>
		</g>
		<g>
			<polygon class="st3" points="1043.82,1712.78 1043.84,1712.78 1081.46,1649.73 			"/>
			<path class="st2" d="M1041.44,1714.45c-0.92,0-1.68-0.75-1.68-1.67c0-0.36,0.12-0.7,0.31-0.98l37.55-62.92
				c0.47-0.79,1.5-1.05,2.29-0.58c0.79,0.47,1.05,1.5,0.58,2.29l-37.62,63.05C1042.57,1714.14,1042.02,1714.45,1041.44,1714.45z"/>
		</g>
		<g>
			<path class="st3" d="M1008.5,1771.96L970.88,1835L1008.5,1771.96z"/>
			<path class="st2" d="M968.48,1836.67c-0.29,0-0.59-0.08-0.85-0.24c-0.79-0.47-1.05-1.5-0.58-2.29l37.62-63.05
				c0.47-0.79,1.5-1.05,2.29-0.58c0.79,0.47,1.05,1.5,0.58,2.29l-37.62,63.04C969.61,1836.38,969.05,1836.67,968.48,1836.67z"/>
		</g>
		<g>
			<g>
				<path class="st3" d="M987.08,1739.81c0-1.58,0.1-3.13,0.31-4.65h-73.38c-0.07,1.54-0.1,3.1-0.1,4.65
					c0,41.18,23.06,76.99,56.97,95.19l37.62-63.05C995.93,1766.7,987.08,1754.29,987.08,1739.81z"/>
				<path class="st2" d="M968.48,1836.67c-0.27,0-0.54-0.06-0.79-0.2c-35.69-19.16-57.85-56.2-57.85-96.66
					c0-1.65,0.04-3.24,0.11-4.73c0.04-0.89,0.78-1.59,1.67-1.59H985c0.48,0,0.94,0.21,1.26,0.57c0.32,0.36,0.46,0.85,0.4,1.33
					c-0.2,1.44-0.3,2.93-0.3,4.43c0,13.42,8.01,25.43,20.39,30.61c0.45,0.19,0.79,0.56,0.94,1.02s0.1,0.96-0.15,1.38l-37.62,63.04
					C969.61,1836.38,969.05,1836.67,968.48,1836.67z M913.22,1736.83c-0.03,0.96-0.04,1.96-0.04,2.98
					c0,38.7,20.91,74.17,54.69,92.96l35.83-60.05c-12.63-6.06-20.7-18.78-20.7-32.9c0-1,0.04-2,0.12-2.98H913.22z"/>
			</g>
			<g>
				<path class="st3" d="M1129.78,1735.16h-73.38c0.21,1.52,0.31,3.08,0.31,4.65c0,14.34-8.67,26.65-21.05,31.99l37.61,63.01
					c33.72-18.27,56.62-53.96,56.62-95C1129.89,1738.25,1129.86,1736.7,1129.78,1735.16z"/>
				<path class="st2" d="M1070.87,1836.48c-0.57,0-1.12-0.29-1.44-0.81l-37.61-63.01c-0.25-0.41-0.3-0.91-0.15-1.37
					c0.15-0.46,0.49-0.83,0.93-1.02c12.18-5.25,20.04-17.2,20.04-30.46c0-1.5-0.1-2.99-0.3-4.43c-0.07-0.48,0.08-0.96,0.4-1.33
					c0.32-0.36,0.78-0.57,1.26-0.57h73.38c0.89,0,1.63,0.7,1.67,1.59c0.07,1.51,0.11,3.05,0.11,4.73c0,40.3-22.03,77.26-57.49,96.47
					C1071.42,1836.42,1071.14,1836.48,1070.87,1836.48z M1035.65,1772.54l35.83,60.03c33.56-18.83,54.34-54.23,54.34-92.76
					c0-1.04-0.01-2.03-0.04-2.98h-69.91c0.08,0.99,0.12,1.98,0.12,2.98C1055.99,1753.76,1048.06,1766.41,1035.65,1772.54z"/>
			</g>
			<g>
				<path class="st3" d="M1043.84,1712.78l37.62-63.05c-17.07-11.32-37.55-17.91-59.56-17.91c-21.86,0-42.22,6.5-59.22,17.69
					l37.61,63c5.94-4.71,13.45-7.52,21.61-7.52c8.31,0,15.94,2.92,21.93,7.78H1043.84z"/>
				<path class="st2" d="M1041.44,1714.45h-0.01c-0.38,0-0.76-0.13-1.05-0.37c-5.88-4.78-13.3-7.41-20.87-7.41
					c-7.55,0-14.66,2.48-20.57,7.16c-0.38,0.3-0.87,0.42-1.34,0.33c-0.47-0.09-0.89-0.37-1.13-0.79l-37.61-63
					c-0.46-0.77-0.23-1.76,0.52-2.25c17.86-11.75,38.65-17.97,60.14-17.97c21.63,0,42.54,6.29,60.48,18.19
					c0.74,0.49,0.97,1.48,0.51,2.25l-37.62,63.05C1042.57,1714.14,1042.02,1714.45,1041.44,1714.45z M1041.44,1712.78
					L1041.44,1712.78L1041.44,1712.78z M1019.5,1703.32c7.7,0,15.25,2.47,21.46,6.99l35.84-60.06
					c-17.09-10.97-36.87-16.76-57.3-16.76c-20.3,0-39.95,5.72-56.96,16.55l35.83,60.02
					C1004.56,1705.65,1011.83,1703.32,1019.5,1703.32z"/>
			</g>
		</g>
		<g>
			<path class="st3" d="M1000.29,1712.52l-37.61-63L1000.29,1712.52z"/>
			<path class="st2" d="M997.89,1714.19c-0.57,0-1.12-0.29-1.44-0.81l-37.61-63c-0.47-0.79-0.21-1.82,0.58-2.29
				c0.79-0.47,1.82-0.21,2.29,0.58l37.61,63c0.47,0.79,0.21,1.82-0.58,2.29C998.48,1714.11,998.18,1714.19,997.89,1714.19z"/>
		</g>
	</g>
	<g>
		<g>
			<path class="st3" d="M2513.25,1840.69h-151.21c-1.47,0-2.68-1.21-2.68-2.68v-15.93c0-1.47,1.21-2.68,2.68-2.68h151.21
				c1.48,0,2.68,1.21,2.68,2.68v15.93C2515.93,1839.49,2514.73,1840.69,2513.25,1840.69z"/>
			<path class="st2" d="M2510.85,1842.36h-151.21c-2.4,0-4.35-1.95-4.35-4.35v-15.93c0-2.4,1.95-4.35,4.35-4.35h151.21
				c2.4,0,4.35,1.95,4.35,4.35v15.93C2515.2,1840.41,2513.25,1842.36,2510.85,1842.36z M2359.64,1821.07
				c-0.55,0-1.01,0.46-1.01,1.01v15.93c0,0.55,0.46,1.01,1.01,1.01h151.21c0.55,0,1.01-0.46,1.01-1.01v-15.93
				c0-0.55-0.46-1.01-1.01-1.01H2359.64z"/>
		</g>
		<g>
			<polygon class="st3" points="2492.78,1819.4 2475.8,1772.45 2399.49,1772.45 2382.51,1819.4 			"/>
			<path class="st2" d="M2490.38,1821.07h-110.27c-0.54,0-1.05-0.27-1.37-0.71c-0.31-0.45-0.39-1.02-0.2-1.53l16.98-46.95
				c0.24-0.66,0.87-1.1,1.57-1.1h76.31c0.7,0,1.33,0.44,1.57,1.1l16.98,46.95c0.19,0.51,0.11,1.08-0.2,1.53
				C2491.44,1820.81,2490.93,1821.07,2490.38,1821.07z M2382.49,1817.73H2488l-15.77-43.61h-73.96L2382.49,1817.73z"/>
		</g>
		<g>
			<g>
				
					<rect x="2319.81" y="1544.34" transform="matrix(0.7071 -0.7071 0.7071 0.7071 -418.5831 2112.0215)" class="st0" width="40.55" height="33.86"/>
				<path class="st2" d="M2335.32,1589.25c-0.43,0-0.86-0.16-1.18-0.49l-23.95-23.94c-0.31-0.31-0.49-0.74-0.49-1.18
					c0-0.44,0.18-0.87,0.49-1.18l28.67-28.67c0.65-0.65,1.71-0.65,2.36,0l23.94,23.95c0.65,0.65,0.65,1.71,0,2.36
					c-0.65,0.65-1.71,0.65-2.36,0l-22.76-22.76l-26.31,26.31l22.76,22.76c0.65,0.65,0.65,1.71,0,2.36
					C2336.18,1589.09,2335.75,1589.25,2335.32,1589.25z"/>
			</g>
			<g>
				
					<rect x="2430.33" y="1654.86" transform="matrix(0.7071 -0.7071 0.7071 0.7071 -464.3706 2222.4915)" class="st0" width="40.55" height="33.86"/>
				<path class="st2" d="M2445.84,1699.77c-0.44,0-0.87-0.18-1.18-0.49l-23.95-23.95c-0.65-0.65-0.65-1.71,0-2.36
					c0.65-0.65,1.71-0.65,2.36,0l22.76,22.76l26.31-26.31l-22.76-22.76c-0.65-0.65-0.65-1.71,0-2.36c0.65-0.65,1.71-0.65,2.36,0
					l23.95,23.95c0.65,0.65,0.65,1.71,0,2.36l-28.67,28.67C2446.71,1699.6,2446.29,1699.77,2445.84,1699.77z"/>
			</g>
			<g>
				<path class="st4" d="M2453.99,1644.46l-30.71,30.71c-3.11,3.11-8.2,3.11-11.31,0l-75.26-75.26c-3.11-3.11-3.11-8.2,0-11.31
					l30.71-30.71c3.11-3.11,8.2-3.11,11.31,0l75.26,75.26C2457.1,1636.27,2457.1,1641.35,2453.99,1644.46z"/>
				<path class="st2" d="M2415.23,1679.18c-2.48,0-4.95-0.94-6.84-2.83l-75.26-75.26c-1.82-1.82-2.82-4.25-2.82-6.84
					c0-2.59,1-5.02,2.82-6.84l30.71-30.71c3.77-3.77,9.9-3.77,13.67,0l75.26,75.26c1.82,1.82,2.82,4.25,2.82,6.84
					c0,2.59-1,5.02-2.82,6.84l0,0l-30.71,30.71C2420.18,1678.24,2417.7,1679.18,2415.23,1679.18z M2370.67,1557.22
					c-1.62,0-3.24,0.62-4.47,1.85l-30.71,30.71c-1.19,1.19-1.84,2.78-1.84,4.47c0,1.7,0.66,3.28,1.84,4.47l75.26,75.26
					c2.47,2.47,6.48,2.47,8.95,0l30.71-30.71l1.18,1.18l-1.18-1.18c1.19-1.19,1.84-2.78,1.84-4.47s-0.65-3.28-1.84-4.47
					l-75.26-75.26C2373.91,1557.84,2372.29,1557.22,2370.67,1557.22z"/>
			</g>
			<g>
				<path class="st4" d="M2344.54,1532.87l-32.86,32.86c-2.52,2.52-6.64,2.52-9.16,0l0,0c-2.52-2.52-2.52-6.64,0-9.16l32.86-32.86
					c2.52-2.52,6.64-2.52,9.16,0l0,0C2347.06,1526.23,2347.06,1530.35,2344.54,1532.87z"/>
				<path class="st2" d="M2304.71,1569.29c-2.18,0-4.23-0.85-5.76-2.38c-3.18-3.18-3.18-8.35,0-11.53l32.86-32.86
					c3.18-3.18,8.35-3.18,11.53,0c3.18,3.18,3.18,8.35,0,11.53l0,0l-32.86,32.86C2308.94,1568.44,2306.89,1569.29,2304.71,1569.29z
					 M2337.56,1523.49c-1.29,0-2.5,0.5-3.4,1.4l-32.86,32.86c-1.87,1.87-1.87,4.93,0,6.8c0.9,0.9,2.11,1.4,3.4,1.4
					c1.29,0,2.5-0.5,3.4-1.4l32.86-32.86l0,0c1.88-1.88,1.88-4.93,0-6.8C2340.06,1523.99,2338.85,1523.49,2337.56,1523.49z
					 M2342.14,1532.87L2342.14,1532.87L2342.14,1532.87z"/>
			</g>
		</g>
		<g>
			<g>
				<path class="st0" d="M2446.23,1787.87c-4.54,0-8.97-0.23-13.22-0.68c-24.96-2.64-47.72-13.29-64.08-29.99
					c-8.32-8.49-14.81-18.3-19.28-29.15c-4.64-11.25-6.99-23.36-6.99-35.98c0-11.93,2.21-23.56,6.57-34.56
					c2.01-5.07,7.74-7.55,12.81-5.54s7.55,7.74,5.54,12.81c-3.44,8.67-5.18,17.85-5.18,27.29c0,39.92,29.89,70.96,72.69,75.49
					c26.59,2.81,53.95-4.59,65.05-17.61c5.45-6.39,6.91-13.89,4.46-22.94c-1.42-5.26,1.69-10.68,6.95-12.1
					c5.26-1.42,10.68,1.69,12.1,6.95c4.15,15.37,1.21,29.51-8.5,40.9C2499.98,1780.56,2471.58,1787.87,2446.23,1787.87z"/>
				<path class="st2" d="M2443.83,1789.54L2443.83,1789.54c-4.55,0-9.05-0.23-13.39-0.69c-25.35-2.68-48.47-13.51-65.1-30.48
					c-8.47-8.65-15.08-18.63-19.63-29.68c-4.72-11.46-7.12-23.78-7.12-36.62c0-12.14,2.25-23.98,6.68-35.17
					c1.14-2.87,3.32-5.12,6.15-6.34c2.83-1.22,5.97-1.27,8.83-0.14c2.87,1.14,5.12,3.32,6.34,6.15c1.22,2.83,1.27,5.97,0.14,8.83
					c-3.36,8.48-5.06,17.45-5.06,26.67c0,39.03,29.28,69.39,71.19,73.83c26.08,2.76,52.83-4.41,63.61-17.04
					c5.06-5.94,6.41-12.95,4.12-21.42c-0.8-2.98-0.4-6.09,1.13-8.76c1.54-2.67,4.02-4.59,7-5.39c6.14-1.66,12.49,1.99,14.15,8.13
					c4.3,15.93,1.25,30.6-8.84,42.42C2500.31,1779.93,2474.06,1789.54,2443.83,1789.54z M2356,1652.94c-1.1,0-2.21,0.23-3.25,0.68
					c-2.01,0.87-3.56,2.47-4.37,4.51c-4.28,10.8-6.45,22.22-6.45,33.94c0,12.4,2.31,24.3,6.87,35.35
					c4.39,10.65,10.76,20.28,18.93,28.62c16.09,16.42,38.48,26.9,63.06,29.5c4.22,0.45,8.61,0.67,13.04,0.67
					c29.27,0,54.56-9.17,67.66-24.53c9.34-10.95,12.16-24.57,8.16-39.39c-1.18-4.36-5.69-6.96-10.06-5.78
					c-4.36,1.18-6.96,5.69-5.78,10.05c2.6,9.62,1.03,17.62-4.8,24.46c-11.43,13.41-39.4,21.06-66.5,18.19
					c-43.68-4.62-74.18-36.35-74.18-77.15c0-9.64,1.78-19.03,5.3-27.9c0.81-2.04,0.77-4.26-0.1-6.28c-0.87-2.01-2.47-3.56-4.51-4.37
					C2358.05,1653.13,2357.02,1652.94,2356,1652.94z"/>
			</g>
		</g>
		<g>
			<path class="st3" d="M2533.82,1699.02l-53.47,53.47c-3.11,3.11-8.2,3.11-11.31,0l-4.27-4.27c-3.11-3.11-3.11-8.2,0-11.31
				l53.47-53.47c3.11-3.11,8.2-3.11,11.31,0l4.27,4.27C2536.93,1690.82,2536.93,1695.91,2533.82,1699.02z"/>
			<path class="st2" d="M2472.3,1756.5c-2.48,0-4.95-0.94-6.84-2.83l-4.27-4.27c-3.77-3.77-3.77-9.9,0-13.67l53.47-53.47
				c1.82-1.82,4.25-2.82,6.84-2.82c2.59,0,5.02,1,6.84,2.82l4.27,4.27c3.77,3.77,3.77,9.9,0,13.67l-53.47,53.47
				C2477.25,1755.56,2474.77,1756.5,2472.3,1756.5z M2521.49,1682.78c-1.7,0-3.28,0.65-4.47,1.84l-53.47,53.47
				c-2.47,2.47-2.47,6.48,0,8.95l4.27,4.27c2.47,2.47,6.48,2.47,8.95,0l53.47-53.47c2.47-2.47,2.47-6.48,0-8.95l-4.27-4.27
				C2524.78,1683.44,2523.19,1682.78,2521.49,1682.78z"/>
		</g>
		<g>
			<path class="st3" d="M2402.26,1637.68c0,15.5-12.57,28.07-28.07,28.07c-15.5,0-28.07-12.57-28.07-28.07
				c0-15.5,12.57-28.07,28.07-28.07C2389.7,1609.62,2402.26,1622.18,2402.26,1637.68z"/>
			<path class="st2" d="M2371.8,1667.42c-16.4,0-29.74-13.34-29.74-29.74c0-16.4,13.34-29.74,29.74-29.74
				c16.4,0,29.74,13.34,29.74,29.74C2401.54,1654.08,2388.19,1667.42,2371.8,1667.42z M2371.8,1611.29
				c-14.56,0-26.4,11.84-26.4,26.4c0,14.56,11.84,26.4,26.4,26.4c14.56,0,26.4-11.84,26.4-26.4
				C2398.19,1623.13,2386.35,1611.29,2371.8,1611.29z"/>
		</g>
	</g>
	<g>
		<g>
			<g>
				<path class="st4" d="M544.38,1108.59v50.26c0,10.4-8.51,18.92-18.92,18.92c-10.4,0-18.92-8.51-18.92-18.92v-50.26H544.38z"/>
				<path class="st2" d="M523.07,1179.44c-11.35,0-20.59-9.24-20.59-20.59v-50.26c0-0.92,0.75-1.67,1.67-1.67h37.84
					c0.92,0,1.67,0.75,1.67,1.67v50.26C543.65,1170.2,534.42,1179.44,523.07,1179.44z M505.82,1110.26v48.59
					c0,9.51,7.74,17.25,17.25,17.25s17.25-7.74,17.25-17.25v-48.59H505.82z"/>
			</g>
			<g>
				<path class="st2" d="M523.07,1179.44c-11.35,0-20.59-9.24-20.59-20.59v-113.76c0-0.92,0.75-1.67,1.67-1.67h37.84
					c0.92,0,1.67,0.75,1.67,1.67v113.76C543.65,1170.2,534.42,1179.44,523.07,1179.44z M505.82,1046.76v112.09
					c0,9.51,7.74,17.25,17.25,17.25s17.25-7.74,17.25-17.25v-112.09H505.82z"/>
			</g>
			<g>
				<path class="st4" d="M549.61,1049.99c0,1.35-0.55,2.57-1.44,3.46c-0.89,0.89-2.11,1.44-3.46,1.44h-38.48
					c-2.69,0-4.9-2.21-4.9-4.9c0-1.35,0.55-2.57,1.44-3.46c0.89-0.89,2.11-1.44,3.46-1.44h38.48
					C547.4,1045.09,549.61,1047.29,549.61,1049.99z"/>
				<path class="st2" d="M542.31,1056.56h-38.48c-3.62,0-6.57-2.95-6.57-6.57c0-1.75,0.69-3.4,1.93-4.64
					c1.24-1.24,2.89-1.93,4.64-1.93h38.48c3.62,0,6.57,2.95,6.57,6.57c0,1.75-0.69,3.4-1.93,4.64
					C545.7,1055.87,544.05,1056.56,542.31,1056.56z M503.83,1046.76c-0.86,0-1.66,0.34-2.28,0.95c-0.61,0.61-0.95,1.42-0.95,2.28
					c0,1.78,1.45,3.23,3.23,3.23h38.48c0.86,0,1.67-0.34,2.28-0.95c0.61-0.61,0.95-1.42,0.95-2.28c0-1.78-1.45-3.23-3.23-3.23
					H503.83z"/>
			</g>
			<g>
				<path class="st4" d="M506.55,1067.63h14.42H506.55z"/>
				<path class="st2" d="M518.57,1069.3h-14.42c-0.92,0-1.67-0.75-1.67-1.67s0.75-1.67,1.67-1.67h14.42c0.92,0,1.67,0.75,1.67,1.67
					S519.49,1069.3,518.57,1069.3z"/>
			</g>
			<g>
				<path class="st4" d="M506.55,1079.7h8.46H506.55z"/>
				<path class="st2" d="M512.61,1081.37h-8.46c-0.92,0-1.67-0.75-1.67-1.67c0-0.92,0.75-1.67,1.67-1.67h8.46
					c0.92,0,1.67,0.75,1.67,1.67C514.28,1080.62,513.53,1081.37,512.61,1081.37z"/>
			</g>
			<g>
				<path class="st4" d="M506.55,1091.77h8.46H506.55z"/>
				<path class="st2" d="M512.61,1093.44h-8.46c-0.92,0-1.67-0.75-1.67-1.67c0-0.92,0.75-1.67,1.67-1.67h8.46
					c0.92,0,1.67,0.75,1.67,1.67C514.28,1092.69,513.53,1093.44,512.61,1093.44z"/>
			</g>
			<g>
				<path class="st4" d="M506.55,1103.84h8.46H506.55z"/>
				<path class="st2" d="M512.61,1105.51h-8.46c-0.92,0-1.67-0.75-1.67-1.67s0.75-1.67,1.67-1.67h8.46c0.92,0,1.67,0.75,1.67,1.67
					S513.53,1105.51,512.61,1105.51z"/>
			</g>
			<g>
				<path class="st4" d="M506.55,1115.91h8.46H506.55z"/>
				<path class="st2" d="M512.61,1117.58h-8.46c-0.92,0-1.67-0.75-1.67-1.67c0-0.92,0.75-1.67,1.67-1.67h8.46
					c0.92,0,1.67,0.75,1.67,1.67C514.28,1116.83,513.53,1117.58,512.61,1117.58z"/>
			</g>
			<g>
				<path class="st4" d="M506.55,1127.97h14.42H506.55z"/>
				<path class="st2" d="M518.57,1129.65h-14.42c-0.92,0-1.67-0.75-1.67-1.67s0.75-1.67,1.67-1.67h14.42c0.92,0,1.67,0.75,1.67,1.67
					S519.49,1129.65,518.57,1129.65z"/>
			</g>
			<g>
				<path class="st4" d="M506.55,1140.04h8.46H506.55z"/>
				<path class="st2" d="M512.61,1141.71h-8.46c-0.92,0-1.67-0.75-1.67-1.67c0-0.92,0.75-1.67,1.67-1.67h8.46
					c0.92,0,1.67,0.75,1.67,1.67C514.28,1140.97,513.53,1141.71,512.61,1141.71z"/>
			</g>
			<g>
				<path class="st4" d="M506.55,1152.11h8.46H506.55z"/>
				<path class="st2" d="M512.61,1153.78h-8.46c-0.92,0-1.67-0.75-1.67-1.67c0-0.92,0.75-1.67,1.67-1.67h8.46
					c0.92,0,1.67,0.75,1.67,1.67C514.28,1153.03,513.53,1153.78,512.61,1153.78z"/>
			</g>
		</g>
		<g>
			<g>
				<path class="st4" d="M618.21,1108.59v50.26c0,10.4-8.51,18.92-18.92,18.92c-10.4,0-18.92-8.51-18.92-18.92v-50.26H618.21z"/>
				<path class="st2" d="M596.9,1179.44c-11.35,0-20.59-9.24-20.59-20.59v-50.26c0-0.92,0.75-1.67,1.67-1.67h37.84
					c0.92,0,1.67,0.75,1.67,1.67v50.26C617.48,1170.2,608.25,1179.44,596.9,1179.44z M579.65,1110.26v48.59
					c0,9.51,7.74,17.25,17.25,17.25c9.51,0,17.25-7.74,17.25-17.25v-48.59H579.65z"/>
			</g>
			<g>
				<path class="st2" d="M596.9,1179.44c-11.35,0-20.59-9.24-20.59-20.59v-113.76c0-0.92,0.75-1.67,1.67-1.67h37.84
					c0.92,0,1.67,0.75,1.67,1.67v113.76C617.48,1170.2,608.25,1179.44,596.9,1179.44z M579.65,1046.76v112.09
					c0,9.51,7.74,17.25,17.25,17.25c9.51,0,17.25-7.74,17.25-17.25v-112.09H579.65z"/>
			</g>
			<g>
				<path class="st4" d="M623.44,1049.99c0,1.35-0.55,2.57-1.44,3.46c-0.89,0.89-2.11,1.44-3.46,1.44h-38.48
					c-2.69,0-4.9-2.21-4.9-4.9c0-1.35,0.55-2.57,1.44-3.46c0.89-0.89,2.11-1.44,3.46-1.44h38.48
					C621.23,1045.09,623.44,1047.29,623.44,1049.99z"/>
				<path class="st2" d="M616.14,1056.56h-38.48c-3.62,0-6.57-2.95-6.57-6.57c0-1.75,0.69-3.4,1.93-4.64
					c1.24-1.24,2.89-1.93,4.64-1.93h38.48c3.62,0,6.57,2.95,6.57,6.57c0,1.75-0.69,3.4-1.93,4.64
					C619.53,1055.87,617.89,1056.56,616.14,1056.56z M577.66,1046.76c-0.86,0-1.66,0.34-2.28,0.95c-0.61,0.61-0.95,1.42-0.95,2.28
					c0,1.78,1.45,3.23,3.23,3.23h38.48c0.86,0,1.66-0.34,2.28-0.95c0.61-0.61,0.95-1.42,0.95-2.28c0-1.78-1.45-3.23-3.23-3.23
					H577.66z"/>
			</g>
			<g>
				<path class="st4" d="M580.38,1067.63h14.42H580.38z"/>
				<path class="st2" d="M592.4,1069.3h-14.42c-0.92,0-1.67-0.75-1.67-1.67s0.75-1.67,1.67-1.67h14.42c0.92,0,1.67,0.75,1.67,1.67
					S593.32,1069.3,592.4,1069.3z"/>
			</g>
			<g>
				<path class="st4" d="M580.38,1079.7h8.46H580.38z"/>
				<path class="st2" d="M586.44,1081.37h-8.46c-0.92,0-1.67-0.75-1.67-1.67c0-0.92,0.75-1.67,1.67-1.67h8.46
					c0.92,0,1.67,0.75,1.67,1.67C588.11,1080.62,587.36,1081.37,586.44,1081.37z"/>
			</g>
			<g>
				<path class="st4" d="M580.38,1091.77h8.46H580.38z"/>
				<path class="st2" d="M586.44,1093.44h-8.46c-0.92,0-1.67-0.75-1.67-1.67c0-0.92,0.75-1.67,1.67-1.67h8.46
					c0.92,0,1.67,0.75,1.67,1.67C588.11,1092.69,587.36,1093.44,586.44,1093.44z"/>
			</g>
			<g>
				<path class="st4" d="M580.38,1103.84h8.46H580.38z"/>
				<path class="st2" d="M586.44,1105.51h-8.46c-0.92,0-1.67-0.75-1.67-1.67s0.75-1.67,1.67-1.67h8.46c0.92,0,1.67,0.75,1.67,1.67
					S587.36,1105.51,586.44,1105.51z"/>
			</g>
			<g>
				<path class="st4" d="M580.38,1115.91h8.46H580.38z"/>
				<path class="st2" d="M586.44,1117.58h-8.46c-0.92,0-1.67-0.75-1.67-1.67c0-0.92,0.75-1.67,1.67-1.67h8.46
					c0.92,0,1.67,0.75,1.67,1.67C588.11,1116.83,587.36,1117.58,586.44,1117.58z"/>
			</g>
			<g>
				<path class="st4" d="M580.38,1127.97h14.42H580.38z"/>
				<path class="st2" d="M592.4,1129.65h-14.42c-0.92,0-1.67-0.75-1.67-1.67s0.75-1.67,1.67-1.67h14.42c0.92,0,1.67,0.75,1.67,1.67
					S593.32,1129.65,592.4,1129.65z"/>
			</g>
			<g>
				<path class="st4" d="M580.38,1140.04h8.46H580.38z"/>
				<path class="st2" d="M586.44,1141.71h-8.46c-0.92,0-1.67-0.75-1.67-1.67c0-0.92,0.75-1.67,1.67-1.67h8.46
					c0.92,0,1.67,0.75,1.67,1.67C588.11,1140.97,587.36,1141.71,586.44,1141.71z"/>
			</g>
			<g>
				<path class="st4" d="M580.38,1152.11h8.46H580.38z"/>
				<path class="st2" d="M586.44,1153.78h-8.46c-0.92,0-1.67-0.75-1.67-1.67c0-0.92,0.75-1.67,1.67-1.67h8.46
					c0.92,0,1.67,0.75,1.67,1.67C588.11,1153.03,587.36,1153.78,586.44,1153.78z"/>
			</g>
		</g>
		<g>
			<g>
				<path class="st4" d="M692.04,1108.59v50.26c0,10.4-8.51,18.92-18.92,18.92c-10.4,0-18.92-8.51-18.92-18.92v-50.26H692.04z"/>
				<path class="st2" d="M670.73,1179.44c-11.35,0-20.59-9.24-20.59-20.59v-50.26c0-0.92,0.75-1.67,1.67-1.67h37.84
					c0.92,0,1.67,0.75,1.67,1.67v50.26C691.31,1170.2,682.08,1179.44,670.73,1179.44z M653.48,1110.26v48.59
					c0,9.51,7.74,17.25,17.25,17.25c9.51,0,17.25-7.74,17.25-17.25v-48.59H653.48z"/>
			</g>
			<g>
				<path class="st2" d="M670.73,1179.44c-11.35,0-20.59-9.24-20.59-20.59v-113.76c0-0.92,0.75-1.67,1.67-1.67h37.84
					c0.92,0,1.67,0.75,1.67,1.67v113.76C691.31,1170.2,682.08,1179.44,670.73,1179.44z M653.48,1046.76v112.09
					c0,9.51,7.74,17.25,17.25,17.25c9.51,0,17.25-7.74,17.25-17.25v-112.09H653.48z"/>
			</g>
			<g>
				<path class="st4" d="M697.27,1049.99c0,1.35-0.55,2.57-1.44,3.46c-0.89,0.89-2.11,1.44-3.46,1.44h-38.48
					c-2.69,0-4.9-2.21-4.9-4.9c0-1.35,0.55-2.57,1.44-3.46c0.89-0.89,2.11-1.44,3.46-1.44h38.48
					C695.06,1045.09,697.27,1047.29,697.27,1049.99z"/>
				<path class="st2" d="M689.97,1056.56h-38.48c-3.62,0-6.57-2.95-6.57-6.57c0-1.75,0.69-3.4,1.93-4.64
					c1.24-1.24,2.89-1.93,4.64-1.93h38.48c3.62,0,6.57,2.95,6.57,6.57c0,1.75-0.69,3.4-1.93,4.64
					C693.36,1055.87,691.71,1056.56,689.97,1056.56z M651.49,1046.76c-0.86,0-1.66,0.34-2.28,0.95c-0.61,0.61-0.95,1.42-0.95,2.28
					c0,1.78,1.45,3.23,3.23,3.23h38.48c0.86,0,1.66-0.34,2.28-0.95c0.61-0.61,0.95-1.42,0.95-2.28c0-1.78-1.45-3.23-3.23-3.23
					H651.49z"/>
			</g>
			<g>
				<path class="st4" d="M654.21,1067.63h14.42H654.21z"/>
				<path class="st2" d="M666.23,1069.3h-14.42c-0.92,0-1.67-0.75-1.67-1.67s0.75-1.67,1.67-1.67h14.42c0.92,0,1.67,0.75,1.67,1.67
					S667.15,1069.3,666.23,1069.3z"/>
			</g>
			<g>
				<path class="st4" d="M654.21,1079.7h8.46H654.21z"/>
				<path class="st2" d="M660.27,1081.37h-8.46c-0.92,0-1.67-0.75-1.67-1.67c0-0.92,0.75-1.67,1.67-1.67h8.46
					c0.92,0,1.67,0.75,1.67,1.67C661.94,1080.62,661.19,1081.37,660.27,1081.37z"/>
			</g>
			<g>
				<path class="st4" d="M654.21,1091.77h8.46H654.21z"/>
				<path class="st2" d="M660.27,1093.44h-8.46c-0.92,0-1.67-0.75-1.67-1.67c0-0.92,0.75-1.67,1.67-1.67h8.46
					c0.92,0,1.67,0.75,1.67,1.67C661.94,1092.69,661.19,1093.44,660.27,1093.44z"/>
			</g>
			<g>
				<path class="st4" d="M654.21,1103.84h8.46H654.21z"/>
				<path class="st2" d="M660.27,1105.51h-8.46c-0.92,0-1.67-0.75-1.67-1.67s0.75-1.67,1.67-1.67h8.46c0.92,0,1.67,0.75,1.67,1.67
					S661.19,1105.51,660.27,1105.51z"/>
			</g>
			<g>
				<path class="st4" d="M654.21,1115.91h8.46H654.21z"/>
				<path class="st2" d="M660.27,1117.58h-8.46c-0.92,0-1.67-0.75-1.67-1.67c0-0.92,0.75-1.67,1.67-1.67h8.46
					c0.92,0,1.67,0.75,1.67,1.67C661.94,1116.83,661.19,1117.58,660.27,1117.58z"/>
			</g>
			<g>
				<path class="st4" d="M654.21,1127.97h14.42H654.21z"/>
				<path class="st2" d="M666.23,1129.65h-14.42c-0.92,0-1.67-0.75-1.67-1.67s0.75-1.67,1.67-1.67h14.42c0.92,0,1.67,0.75,1.67,1.67
					S667.15,1129.65,666.23,1129.65z"/>
			</g>
			<g>
				<path class="st4" d="M654.21,1140.04h8.46H654.21z"/>
				<path class="st2" d="M660.27,1141.71h-8.46c-0.92,0-1.67-0.75-1.67-1.67c0-0.92,0.75-1.67,1.67-1.67h8.46
					c0.92,0,1.67,0.75,1.67,1.67C661.94,1140.97,661.19,1141.71,660.27,1141.71z"/>
			</g>
			<g>
				<path class="st4" d="M654.21,1152.11h8.46H654.21z"/>
				<path class="st2" d="M660.27,1153.78h-8.46c-0.92,0-1.67-0.75-1.67-1.67c0-0.92,0.75-1.67,1.67-1.67h8.46
					c0.92,0,1.67,0.75,1.67,1.67C661.94,1153.03,661.19,1153.78,660.27,1153.78z"/>
			</g>
		</g>
		<g>
			<rect x="479.05" y="1067.63" class="st4" width="9.56" height="131.01"/>
			<path class="st2" d="M486.21,1200.31h-9.56c-0.92,0-1.67-0.75-1.67-1.67v-131.01c0-0.92,0.75-1.67,1.67-1.67h9.56
				c0.92,0,1.67,0.75,1.67,1.67v131.01C487.88,1199.56,487.13,1200.31,486.21,1200.31z M478.32,1196.97h6.21V1069.3h-6.21V1196.97z"
				/>
		</g>
		<g>
			
				<rect x="594.46" y="977.5" transform="matrix(-1.836970e-16 1 -1 -1.836970e-16 1687.4862 488.8942)" class="st4" width="9.66" height="221.38"/>
			<path class="st2" d="M707.59,1094.69H486.21c-0.92,0-1.67-0.75-1.67-1.67v-9.66c0-0.92,0.75-1.67,1.67-1.67h221.38
				c0.92,0,1.67,0.75,1.67,1.67v9.66C709.26,1093.94,708.51,1094.69,707.59,1094.69z M487.88,1091.35h218.04v-6.32H487.88V1091.35z"
				/>
		</g>
		<g>
			<rect x="709.99" y="1067.63" class="st4" width="9.58" height="131.01"/>
			<path class="st2" d="M717.16,1200.31h-9.58c-0.92,0-1.67-0.75-1.67-1.67v-131.01c0-0.92,0.75-1.67,1.67-1.67h9.58
				c0.92,0,1.67,0.75,1.67,1.67v131.01C718.83,1199.56,718.09,1200.31,717.16,1200.31z M709.26,1196.97h6.24V1069.3h-6.24V1196.97z"
				/>
		</g>
		<g>
			
				<rect x="587.33" y="1072.89" transform="matrix(6.123234e-17 -1 1 6.123234e-17 -608.9425 1806.8715)" class="st3" width="23.27" height="270.03"/>
			<path class="st2" d="M731.58,1221.21H461.55c-0.92,0-1.67-0.75-1.67-1.67v-23.27c0-0.92,0.75-1.67,1.67-1.67h270.03
				c0.92,0,1.67,0.75,1.67,1.67v23.27C733.25,1220.46,732.5,1221.21,731.58,1221.21z M463.22,1217.87h266.69v-19.93H463.22V1217.87z
				"/>
		</g>
	</g>
	<g>
		<g>
			<g>
				<path class="st4" d="M1971.8,904.64c-0.92,0-1.84-0.35-2.54-1.05c-1.4-1.4-1.4-3.68,0-5.08l33.88-33.88l-33.83-33.83
					c-1.4-1.4-1.4-3.68,0-5.08c1.4-1.4,3.68-1.4,5.08,0l36.37,36.37c0.67,0.67,1.05,1.59,1.05,2.54c0,0.95-0.38,1.87-1.05,2.54
					l-36.42,36.42C1973.64,904.29,1972.72,904.64,1971.8,904.64z"/>
			</g>
			<g>
				<path class="st4" d="M2015.93,904.64c-0.92,0-1.84-0.35-2.54-1.05c-1.4-1.4-1.4-3.68,0-5.08l33.88-33.88l-33.83-33.83
					c-1.4-1.4-1.4-3.68,0-5.08c1.4-1.4,3.68-1.4,5.08,0l36.37,36.37c1.4,1.4,1.4,3.68,0,5.08l-36.42,36.42
					C2017.77,904.29,2016.85,904.64,2015.93,904.64z"/>
			</g>
			<g>
				<path class="st4" d="M2060.06,904.64c-0.92,0-1.84-0.35-2.54-1.05c-1.4-1.4-1.4-3.68,0-5.08l33.88-33.88l-33.83-33.83
					c-1.4-1.4-1.4-3.68,0-5.08c1.4-1.4,3.68-1.4,5.08,0l36.37,36.37c1.4,1.4,1.4,3.68,0,5.08l-36.42,36.42
					C2061.9,904.29,2060.98,904.64,2060.06,904.64z"/>
			</g>
		</g>
	</g>
	<g>
		<g>
			<g>
				<path class="st4" d="M2789.64,1632.76h-24.86c-1.99,0-3.6-1.61-3.6-3.6c0-8.84,7.19-16.03,16.03-16.03
					c8.84,0,16.02,7.19,16.02,16.03C2793.23,1631.15,2791.62,1632.76,2789.64,1632.76z M2769.14,1625.57h16.14
					c-1.38-3.09-4.48-5.24-8.07-5.24C2773.62,1620.33,2770.52,1622.48,2769.14,1625.57z"/>
			</g>
			<g>
				<path class="st4" d="M2789.64,1632.76h-24.86c-1.99,0-3.6-1.61-3.6-3.6c0-8.84,7.19-16.03,16.03-16.03
					c8.84,0,16.02,7.19,16.02,16.03C2793.23,1631.15,2791.62,1632.76,2789.64,1632.76z M2769.14,1625.57h16.14
					c-1.38-3.09-4.48-5.24-8.07-5.24C2773.62,1620.33,2770.52,1622.48,2769.14,1625.57z"/>
			</g>
			<g>
				<path class="st4" d="M2807.76,1632.76h-61.11c-1.99,0-3.59-1.61-3.59-3.6c0-18.83,15.32-34.15,34.15-34.15
					c18.83,0,34.15,15.32,34.15,34.15C2811.36,1631.15,2809.75,1632.76,2807.76,1632.76z M2750.49,1625.57h53.44
					c-1.76-13.17-13.07-23.36-26.72-23.36C2763.56,1602.21,2752.25,1612.4,2750.49,1625.57z"/>
			</g>
			<g>
				<path class="st4" d="M2825.58,1632.76h-96.74c-1.99,0-3.6-1.61-3.6-3.6c0-28.65,23.31-51.96,51.96-51.96
					c28.65,0,51.96,23.31,51.96,51.96C2829.17,1631.15,2827.56,1632.76,2825.58,1632.76z M2732.58,1625.57h89.26
					c-1.84-23.01-21.15-41.18-44.63-41.18C2753.73,1584.39,2734.41,1602.55,2732.58,1625.57z"/>
			</g>
			<g>
				<path class="st4" d="M2843.07,1632.76h-131.73c-1.99,0-3.59-1.61-3.59-3.6c0-38.3,31.16-69.46,69.46-69.46
					c38.3,0,69.46,31.16,69.46,69.46C2846.67,1631.15,2845.06,1632.76,2843.07,1632.76z M2715.04,1625.57h124.34
					c-1.87-32.67-29.04-58.67-62.17-58.67S2716.91,1592.9,2715.04,1625.57z"/>
			</g>
		</g>
	</g>
	<g>
		<g>
			<g>
				<path class="st4" d="M1513.77,1444.1c-8.84,0-16.03-7.19-16.03-16.03c0-1.99,1.61-3.6,3.6-3.6h24.86c1.99,0,3.59,1.61,3.59,3.6
					C1529.79,1436.91,1522.6,1444.1,1513.77,1444.1z M1505.7,1431.66c1.38,3.09,4.48,5.24,8.07,5.24c3.59,0,6.69-2.16,8.07-5.24
					H1505.7z"/>
			</g>
			<g>
				<path class="st4" d="M1513.77,1444.1c-8.84,0-16.03-7.19-16.03-16.03c0-1.99,1.61-3.6,3.6-3.6h24.86c1.99,0,3.59,1.61,3.59,3.6
					C1529.79,1436.91,1522.6,1444.1,1513.77,1444.1z M1505.7,1431.66c1.38,3.09,4.48,5.24,8.07,5.24c3.59,0,6.69-2.16,8.07-5.24
					H1505.7z"/>
			</g>
			<g>
				<path class="st4" d="M1513.77,1462.21c-18.83,0-34.15-15.32-34.15-34.15c0-1.99,1.61-3.6,3.59-3.6h61.11
					c1.99,0,3.6,1.61,3.6,3.6C1547.91,1446.9,1532.6,1462.21,1513.77,1462.21z M1487.05,1431.66c1.76,13.17,13.07,23.36,26.72,23.36
					c13.65,0,24.96-10.19,26.72-23.36H1487.05z"/>
			</g>
			<g>
				<path class="st4" d="M1513.77,1480.03c-28.65,0-51.96-23.31-51.96-51.96c0-1.99,1.61-3.6,3.6-3.6h96.74
					c1.99,0,3.59,1.61,3.59,3.6C1565.73,1456.72,1542.42,1480.03,1513.77,1480.03z M1469.14,1431.66
					c1.84,23.01,21.15,41.18,44.63,41.18c23.48,0,42.79-18.16,44.63-41.18H1469.14z"/>
			</g>
			<g>
				<path class="st4" d="M1513.77,1497.53c-38.3,0-69.46-31.16-69.46-69.46c0-1.99,1.61-3.6,3.59-3.6h131.73
					c1.99,0,3.6,1.61,3.6,3.6C1583.23,1466.37,1552.07,1497.53,1513.77,1497.53z M1451.6,1431.66
					c1.87,32.67,29.04,58.68,62.17,58.68s60.3-26.01,62.17-58.68H1451.6z"/>
			</g>
		</g>
	</g>
	<g>
		<g>
			<g>
				<path class="st4" d="M2011.03,1838.64c-1.12,0-2.23-0.53-2.93-1.51l-50.49-70.91c-1.15-1.62-0.77-3.86,0.84-5.01
					c1.62-1.15,3.86-0.77,5.01,0.84l50.49,70.91c1.15,1.62,0.77,3.86-0.84,5.01C2012.47,1838.42,2011.75,1838.64,2011.03,1838.64z"
					/>
			</g>
			<g>
				<path class="st4" d="M2043.68,1838.64c-1.12,0-2.23-0.53-2.93-1.51l-50.49-70.91c-1.15-1.62-0.77-3.86,0.84-5.01
					c1.62-1.15,3.86-0.77,5.01,0.84l50.49,70.91c1.15,1.62,0.77,3.86-0.84,5.01C2045.13,1838.42,2044.4,1838.64,2043.68,1838.64z"/>
			</g>
			<g>
				<path class="st4" d="M2076.34,1838.64c-1.12,0-2.23-0.53-2.93-1.51l-50.49-70.91c-1.15-1.62-0.77-3.86,0.84-5.01
					c1.62-1.15,3.86-0.77,5.01,0.84l50.49,70.91c1.15,1.62,0.77,3.86-0.84,5.01C2077.79,1838.42,2077.06,1838.64,2076.34,1838.64z"
					/>
			</g>
			<g>
				<path class="st4" d="M2108.99,1838.64c-1.12,0-2.23-0.53-2.93-1.51l-50.49-70.91c-1.15-1.62-0.77-3.86,0.84-5.01
					c1.62-1.15,3.86-0.77,5.01,0.84l50.49,70.91c1.15,1.62,0.77,3.86-0.84,5.01C2110.44,1838.42,2109.71,1838.64,2108.99,1838.64z"
					/>
			</g>
			<g>
				<path class="st4" d="M2141.65,1838.64c-1.12,0-2.23-0.53-2.93-1.51l-50.49-70.91c-1.15-1.62-0.77-3.86,0.84-5.01
					c1.62-1.15,3.86-0.77,5.01,0.84l50.49,70.91c1.15,1.62,0.77,3.86-0.84,5.01C2143.1,1838.42,2142.37,1838.64,2141.65,1838.64z"/>
			</g>
			<g>
				<path class="st4" d="M2174.3,1838.64c-1.12,0-2.23-0.53-2.93-1.51l-50.49-70.91c-1.15-1.62-0.77-3.86,0.84-5.01
					c1.62-1.15,3.86-0.77,5.01,0.84l50.49,70.91c1.15,1.62,0.77,3.86-0.84,5.01C2175.75,1838.42,2175.02,1838.64,2174.3,1838.64z"/>
			</g>
			<g>
				<path class="st4" d="M2206.96,1838.64c-1.12,0-2.23-0.53-2.93-1.51l-50.49-70.91c-1.15-1.62-0.77-3.86,0.84-5.01
					c1.62-1.15,3.86-0.77,5.01,0.84l50.49,70.91c1.15,1.62,0.77,3.86-0.84,5.01C2208.41,1838.42,2207.68,1838.64,2206.96,1838.64z"
					/>
			</g>
			<g>
				<path class="st4" d="M2239.61,1838.64c-1.12,0-2.23-0.53-2.93-1.51l-50.49-70.91c-1.15-1.62-0.77-3.86,0.84-5.01
					c1.62-1.15,3.86-0.77,5.01,0.84l50.49,70.91c1.15,1.62,0.77,3.86-0.84,5.01C2241.06,1838.42,2240.34,1838.64,2239.61,1838.64z"
					/>
			</g>
		</g>
	</g>
	<g>
		<g>
			<g>
				<path class="st4" d="M2136.56,1529.83h-118.39c-1.99,0-3.6-1.61-3.6-3.6v-118.39c0-1.99,1.61-3.6,3.6-3.6h118.39
					c1.99,0,3.6,1.61,3.6,3.6v118.39C2140.15,1528.22,2138.54,1529.83,2136.56,1529.83z M2021.76,1522.64h111.2v-111.2h-111.2
					V1522.64z"/>
			</g>
			<g>
				<path class="st4" d="M2112.13,1547.33h-118.39c-1.99,0-3.6-1.61-3.6-3.6v-118.39c0-1.99,1.61-3.6,3.6-3.6h118.39
					c1.99,0,3.6,1.61,3.6,3.6v118.39C2115.72,1545.72,2114.11,1547.33,2112.13,1547.33z M1997.34,1540.14h111.2v-111.2h-111.2
					V1540.14z"/>
			</g>
		</g>
	</g>
	<g>
		<g>
			<g>
				<g>
					<path class="st4" d="M3059.9,1195.76c-38.3,0-69.46-31.16-69.46-69.46c0-38.3,31.16-69.46,69.46-69.46
						c38.3,0,69.46,31.16,69.46,69.46C3129.36,1164.6,3098.2,1195.76,3059.9,1195.76z M3059.9,1064.04
						c-34.34,0-62.27,27.93-62.27,62.27c0,34.33,27.93,62.27,62.27,62.27s62.27-27.93,62.27-62.27
						C3122.17,1091.97,3094.24,1064.04,3059.9,1064.04z"/>
				</g>
			</g>
			<g>
				<path class="st4" d="M3105.71,1082.57h-91.61c-1.99,0-3.6-1.61-3.6-3.59c0-1.99,1.61-3.6,3.6-3.6h91.61
					c1.99,0,3.59,1.61,3.59,3.6C3109.3,1080.96,3107.69,1082.57,3105.71,1082.57z"/>
			</g>
			<g>
				<path class="st4" d="M3121.04,1105.35h-122.28c-1.99,0-3.6-1.61-3.6-3.6s1.61-3.6,3.6-3.6h122.28c1.99,0,3.6,1.61,3.6,3.6
					S3123.03,1105.35,3121.04,1105.35z"/>
			</g>
			<g>
				<path class="st4" d="M3125.74,1128.14h-131.68c-1.99,0-3.6-1.61-3.6-3.6s1.61-3.59,3.6-3.59h131.68c1.99,0,3.6,1.61,3.6,3.59
					S3127.73,1128.14,3125.74,1128.14z"/>
			</g>
			<g>
				<path class="st4" d="M3122.34,1150.92h-124.88c-1.99,0-3.59-1.61-3.59-3.59c0-1.99,1.61-3.6,3.59-3.6h124.88
					c1.99,0,3.59,1.61,3.59,3.6C3125.94,1149.31,3124.33,1150.92,3122.34,1150.92z"/>
			</g>
			<g>
				<path class="st4" d="M3109.09,1173.7h-98.37c-1.99,0-3.6-1.61-3.6-3.6s1.61-3.59,3.6-3.59h98.37c1.99,0,3.6,1.61,3.6,3.59
					S3111.07,1173.7,3109.09,1173.7z"/>
			</g>
		</g>
	</g>
	<g>
		<g>
			<g>
				<path class="st4" d="M3421.79,428.96c-0.92,0-1.84-0.35-2.54-1.05l-25.53-25.53c-1.4-1.4-1.4-3.68,0-5.08
					c1.4-1.4,3.68-1.4,5.08,0l25.53,25.53c1.4,1.4,1.4,3.68,0,5.08C3423.63,428.61,3422.71,428.96,3421.79,428.96z"/>
			</g>
			<g>
				<path class="st4" d="M3490.66,497.83c-0.92,0-1.84-0.35-2.54-1.05l-25.53-25.53c-1.4-1.4-1.4-3.68,0-5.08
					c1.4-1.4,3.68-1.4,5.08,0l25.53,25.53c1.4,1.4,1.4,3.68,0,5.08C3492.5,497.48,3491.58,497.83,3490.66,497.83z"/>
			</g>
			<g>
				<path class="st4" d="M3465.12,428.96c-0.92,0-1.84-0.35-2.54-1.05c-1.4-1.4-1.4-3.68,0-5.08l25.53-25.53
					c1.4-1.4,3.68-1.4,5.08,0c1.4,1.4,1.4,3.68,0,5.08l-25.53,25.53C3466.96,428.61,3466.04,428.96,3465.12,428.96z"/>
			</g>
			<g>
				<path class="st4" d="M3396.25,497.83c-0.92,0-1.84-0.35-2.54-1.05c-1.4-1.4-1.4-3.68,0-5.08l25.53-25.53
					c1.4-1.4,3.68-1.4,5.08,0c1.4,1.4,1.4,3.68,0,5.08l-25.53,25.53C3398.09,497.48,3397.17,497.83,3396.25,497.83z"/>
			</g>
		</g>
	</g>
	<g>
		<g>
			<g>
				<path class="st4" d="M574.37,812.75c-0.72,0-1.46-0.22-2.09-0.67l-29.37-21.01c-1.61-1.16-1.99-3.4-0.83-5.02
					c1.16-1.61,3.4-1.99,5.02-0.83l29.37,21.01c1.61,1.16,1.99,3.4,0.83,5.02C576.6,812.22,575.49,812.75,574.37,812.75z"/>
			</g>
			<g>
				<path class="st4" d="M653.58,869.43c-0.72,0-1.46-0.22-2.09-0.67l-29.37-21.01c-1.61-1.16-1.99-3.4-0.83-5.02
					c1.16-1.61,3.4-1.99,5.02-0.83l29.37,21.01c1.61,1.16,1.99,3.4,0.83,5.02C655.81,868.9,654.7,869.43,653.58,869.43z"/>
			</g>
			<g>
				<path class="st4" d="M624.22,812.75c-1.12,0-2.22-0.52-2.93-1.5c-1.16-1.61-0.78-3.86,0.83-5.02l29.37-21.01
					c1.62-1.16,3.86-0.78,5.02,0.83c1.16,1.61,0.78,3.86-0.83,5.02l-29.37,21.01C625.67,812.53,624.94,812.75,624.22,812.75z"/>
			</g>
			<g>
				<path class="st4" d="M545.01,869.43c-1.12,0-2.22-0.52-2.93-1.5c-1.16-1.61-0.78-3.86,0.83-5.02l29.37-21.01
					c1.62-1.16,3.86-0.78,5.02,0.83c1.16,1.61,0.78,3.86-0.83,5.02l-29.37,21.01C546.47,869.21,545.74,869.43,545.01,869.43z"/>
			</g>
			<g>
				<path class="st4" d="M599.3,799.94c-1.99,0-3.6-1.61-3.6-3.6v-36.11c0-1.99,1.61-3.6,3.6-3.6c1.99,0,3.6,1.61,3.6,3.6v36.11
					C602.89,798.33,601.28,799.94,599.3,799.94z"/>
			</g>
			<g>
				<path class="st4" d="M599.3,897.33c-1.99,0-3.6-1.61-3.6-3.6v-36.11c0-1.99,1.61-3.6,3.6-3.6c1.99,0,3.6,1.61,3.6,3.6v36.11
					C602.89,895.72,601.28,897.33,599.3,897.33z"/>
			</g>
		</g>
	</g>
	<g>
		<g>
			<path class="st4" d="M749.75,1941.34c-1.6,0-2.9-1.3-2.9-2.9v-83.46c0-1.6,1.3-2.9,2.9-2.9c1.6,0,2.9,1.3,2.9,2.9v83.46
				C752.65,1940.04,751.35,1941.34,749.75,1941.34z"/>
		</g>
		<g>
			<path class="st4" d="M791.48,1899.61h-83.46c-1.6,0-2.9-1.3-2.9-2.9c0-1.6,1.3-2.9,2.9-2.9h83.46c1.6,0,2.9,1.3,2.9,2.9
				C794.38,1898.31,793.08,1899.61,791.48,1899.61z"/>
		</g>
	</g>
	<g>
		<path class="st4" d="M1429.28,346.14c-1.77,0-3.52-0.11-5.26-0.34c-8.46-1.11-14.58-4.67-19.97-7.81
			c-5.84-3.4-10.86-6.32-18.07-6.21c-8.13,0.14-16.45,4.1-24.73,11.79c-1.17,1.09-3.01,1.02-4.1-0.15c-1.09-1.17-1.02-3.01,0.15-4.1
			c9.36-8.69,18.98-13.18,28.59-13.34c8.81-0.14,15.05,3.48,21.08,6.99c5.17,3.01,10.51,6.12,17.81,7.07
			c10.06,1.32,21.08-1.86,32.77-9.45c1.34-0.87,3.14-0.49,4.01,0.85c0.87,1.34,0.49,3.14-0.85,4.01
			C1449.78,342.56,1439.23,346.14,1429.28,346.14z"/>
	</g>
	<g>
		<g>
			<path class="st4" d="M2476.19,925.37c-1.6,0-2.9-1.3-2.9-2.9v-83.46c0-1.6,1.3-2.9,2.9-2.9c1.6,0,2.9,1.3,2.9,2.9v83.46
				C2479.09,924.08,2477.79,925.37,2476.19,925.37z"/>
		</g>
		<g>
			<path class="st4" d="M2517.92,883.64h-83.46c-1.6,0-2.9-1.3-2.9-2.9c0-1.6,1.3-2.9,2.9-2.9h83.46c1.6,0,2.9,1.3,2.9,2.9
				C2520.82,882.34,2519.52,883.64,2517.92,883.64z"/>
		</g>
	</g>
	<g>
		<path class="st4" d="M2446.73,1999.39c-0.74,0-1.49-0.28-2.05-0.85l-23.96-23.96c-1.13-1.13-1.13-2.97,0-4.1
			c1.13-1.13,2.97-1.13,4.1,0l21.91,21.91l53.32-53.32c1.13-1.13,2.97-1.13,4.1,0s1.13,2.97,0,4.1l-55.38,55.38
			C2448.22,1999.11,2447.48,1999.39,2446.73,1999.39z"/>
	</g>
	<g>
		<g>
			<path class="st4" d="M1508.97,913.82c0,0.46-0.01,0.91-0.03,1.35h-76.7c-0.01-0.45-0.03-0.9-0.03-1.35
				c0-21.19,17.18-38.37,38.37-38.37c2.9,0,5.71,0.32,8.42,0.93C1496.15,880.22,1508.97,895.53,1508.97,913.82z"/>
		</g>
		<g>
			<path class="st4" d="M1583.5,894.28c0,7.41-1.5,14.47-4.2,20.89h-99.14c-2.71-6.42-4.21-13.48-4.21-20.89
				c0-6.28,1.08-12.3,3.06-17.91c7.37-20.9,27.29-35.87,50.71-35.87c17.75,0,33.49,8.6,43.28,21.86
				C1579.61,871.29,1583.5,882.33,1583.5,894.28z"/>
		</g>
		<g>
			<path class="st4" d="M1641.79,915.17h-109.31c0-25.3,17.19-46.59,40.53-52.81c4.5-1.21,9.24-1.85,14.13-1.85
				C1617.32,860.51,1641.79,884.99,1641.79,915.17z"/>
		</g>
	</g>
	<g>
		<g>
			<path class="st4" d="M2641.97,399.82h-93.51c-1.6,0-2.9-1.3-2.9-2.9c0-1.6,1.3-2.9,2.9-2.9h93.51c1.6,0,2.9,1.3,2.9,2.9
				C2644.87,398.52,2643.57,399.82,2641.97,399.82z"/>
		</g>
		<g>
			<path class="st4" d="M2641.97,430.67c-0.57,0-1.15-0.17-1.66-0.52c-1.31-0.92-1.63-2.73-0.71-4.04l20.39-29.13l-20.34-27.25
				c-0.96-1.28-0.69-3.1,0.59-4.06c1.28-0.96,3.1-0.69,4.06,0.59l21.59,28.93c0.75,1,0.77,2.37,0.05,3.4l-21.59,30.85
				C2643.78,430.23,2642.88,430.67,2641.97,430.67z"/>
		</g>
	</g>
	<g>
		<path class="st4" d="M1250.03,2044.41c-0.74,0-1.49-0.28-2.05-0.85l-23.71-23.71l-23.03,23.03c-1.13,1.13-2.97,1.13-4.1,0
			l-27.09-27.09l-26.82,26.81c-1.13,1.13-2.97,1.13-4.1,0c-1.13-1.13-1.13-2.97,0-4.1l28.87-28.87c1.13-1.13,2.97-1.13,4.1,0
			l27.09,27.09l23.03-23.03c1.13-1.13,2.97-1.13,4.1,0l23.71,23.71l25.45-25.45c1.13-1.13,2.97-1.13,4.1,0l26.9,26.9
			c1.13,1.13,1.13,2.97,0,4.1c-1.13,1.13-2.97,1.13-4.1,0l-24.85-24.85l-25.45,25.45
			C1251.51,2044.12,1250.77,2044.41,1250.03,2044.41z"/>
	</g>
	<g>
		<path class="st4" d="M3388.4,1817.31c-0.74,0-1.49-0.28-2.05-0.85l-34.63-34.63c-1.13-1.13-1.13-2.97,0-4.1l34.63-34.63
			c0.54-0.54,1.28-0.85,2.05-0.85c0.77,0,1.51,0.31,2.05,0.85l34.63,34.63c1.13,1.13,1.13,2.97,0,4.1l-34.63,34.63
			C3389.89,1817.02,3389.14,1817.31,3388.4,1817.31z M3357.87,1779.77l30.53,30.53l30.53-30.53l-30.53-30.53L3357.87,1779.77z"/>
	</g>
	<g>
		<g>
			<path class="st4" d="M890.4,1258.3c-27.79,0-50.39-22.6-50.39-50.39c0-27.79,22.6-50.39,50.39-50.39
				c27.78,0,50.39,22.6,50.39,50.39C940.79,1235.69,918.19,1258.3,890.4,1258.3z M890.4,1163.32c-24.59,0-44.59,20-44.59,44.59
				s20,44.59,44.59,44.59c24.59,0,44.59-20,44.59-44.59S914.99,1163.32,890.4,1163.32z"/>
		</g>
		<g>
			<path class="st4" d="M910.2,1207.91c0,10.93-8.86,19.79-19.79,19.79c-10.93,0-19.79-8.86-19.79-19.79s8.86-19.79,19.79-19.79
				C901.33,1188.11,910.2,1196.98,910.2,1207.91z"/>
		</g>
	</g>
	<g>
		<g>
			<path class="st4" d="M1028.08,822.72L1028.08,822.72c-0.77,0-1.51-0.31-2.05-0.85l-23.96-23.96c-1.13-1.13-1.13-2.97,0-4.1
				c1.13-1.13,2.97-1.13,4.1,0l21.91,21.91l53.32-53.32c1.13-1.13,2.97-1.13,4.1,0c1.13,1.13,1.13,2.97,0,4.1l-55.38,55.38
				C1029.58,822.41,1028.85,822.72,1028.08,822.72z"/>
		</g>
		<g>
			<g>
				<path class="st4" d="M1043.82,859.89c-37.36,0-67.76-30.4-67.76-67.76c0-37.36,30.4-67.76,67.76-67.76
					c37.36,0,67.76,30.4,67.76,67.76C1111.59,829.49,1081.19,859.89,1043.82,859.89z M1043.82,730.17
					c-34.16,0-61.96,27.79-61.96,61.96c0,34.16,27.79,61.96,61.96,61.96c34.16,0,61.96-27.79,61.96-61.96
					C1105.78,757.97,1077.99,730.17,1043.82,730.17z"/>
			</g>
		</g>
	</g>
	<g>
		<path class="st4" d="M2956,694.4h-32v-7.2h32V694.4z M2892,694.4h-32v-7.2h32V694.4z M2828,694.4h-32v-7.2h32V694.4z M2764,694.4
			h-32v-7.2h32V694.4z M2700,694.4h-32v-7.2h32V694.4z M2981.6,680.8h-7.2v-32h7.2V680.8z M2981.6,616.8h-7.2v-32h7.2V616.8z
			 M2981.6,552.8h-7.2V544h7.2V552.8z"/>
	</g>
	<g>
		<path class="st4" d="M2844,936h-7.2v-32h7.2V936z M2844,872h-7.2v-32h7.2V872z M2844,808h-7.2v-32h7.2V808z M2844,744h-7.2v-32
			h7.2V744z"/>
	</g>
	<g>
		<path class="st4" d="M2929.6,1749.6h-7.2v-32h7.2V1749.6z M2929.6,1685.6h-7.2v-32h7.2V1685.6z M2929.6,1621.6h-7.2v-32h7.2
			V1621.6z M2929.6,1557.6h-7.2v-32h7.2V1557.6z M2929.6,1493.6h-7.2v-20.8h-4v-7.2h11.2V1493.6z M2886.4,1472.8h-32v-7.2h32V1472.8
			z M2822.4,1472.8h-32v-7.2h32V1472.8z M2758.4,1472.8h-32v-7.2h32V1472.8z M2694.4,1472.8H2664v-8.8h7.2v1.6h23.2V1472.8z
			 M2671.2,1432h-7.2v-32h7.2V1432z M2671.2,1368h-7.2v-32h7.2V1368z"/>
	</g>
	<g>
		<path class="st4" d="M3360,1557.6h-32v-7.2h32V1557.6z M3296,1557.6h-32v-7.2h32V1557.6z M3232,1557.6h-32v-7.2h32V1557.6z
			 M3168,1557.6h-32v-7.2h32V1557.6z M3104,1557.6h-32v-7.2h32V1557.6z M3040,1557.6h-32v-7.2h32V1557.6z M2976,1557.6h-32v-7.2h32
			V1557.6z M3392,1550.4h-7.2v-32h7.2V1550.4z M3392,1486.4h-7.2v-32h7.2V1486.4z M3392,1422.4h-7.2v-32h7.2V1422.4z M3392,1358.4
			h-7.2v-32h7.2V1358.4z M3392,1294.4h-7.2v-32h7.2V1294.4z"/>
	</g>
	<g>
		<path class="st4" d="M856.8,1671.2h-7.2v-7.2h7.2V1671.2z M817.6,1671.2h-32v-7.2h32V1671.2z M753.6,1671.2h-32v-7.2h32V1671.2z
			 M689.6,1671.2h-32v-7.2h32V1671.2z M625.6,1671.2h-6.4v-32.8h7.2v29.2h-0.8V1671.2z M626.4,1606.4h-7.2v-32h7.2V1606.4z
			 M626.4,1542.4h-7.2v-32h7.2V1542.4z M626.4,1478.4h-7.2v-32h7.2V1478.4z M626.4,1414.4h-7.2v-32h7.2V1414.4z M626.4,1350.4h-7.2
			v-32h7.2V1350.4z M626.4,1286.4h-7.2v-32h7.2V1286.4z"/>
	</g>
	<g>
		<path class="st4" d="M1779.2,944h-7.2v-8.8h7.2V944z M1779.2,903.2h-7.2v-32h7.2V903.2z M1779.2,839.2h-7.2v-32h7.2V839.2z
			 M1779.2,775.2h-7.2v-32h7.2V775.2z M1779.2,711.2h-7.2v-32h7.2V711.2z M1760.8,665.6h-32v-7.2h32V665.6z M1696.8,665.6h-32v-7.2
			h32V665.6z M1632.8,665.6h-32v-7.2h32V665.6z"/>
	</g>
	<g>
		<path class="st4" d="M1227.2,925.6h-7.2v-32h7.2V925.6z M1227.2,861.6h-7.2v-32h7.2V861.6z M1227.2,797.6h-7.2v-32h7.2V797.6z
			 M1227.2,733.6h-7.2v-32h7.2V733.6z M1227.2,669.6h-7.2v-32h7.2V669.6z M1227.2,605.6h-7.2v-32h7.2V605.6z M1227.2,541.6h-7.2v-32
			h7.2V541.6z M1227.2,477.6h-7.2v-32h7.2V477.6z M1850.4,436h-32v-7.2h32V436z M1786.4,436h-32v-7.2h32V436z M1722.4,436h-32v-7.2
			h32V436z M1658.4,436h-32v-7.2h32V436z M1594.4,436h-32v-7.2h32V436z M1530.4,436h-32v-7.2h32V436z M1466.4,436h-32v-7.2h32V436z
			 M1402.4,436h-32v-7.2h32V436z M1338.4,436h-32v-7.2h32V436z M1274.4,436h-32v-7.2h32V436z"/>
	</g>
	<g>
		<path class="st4" d="M1195.2,545.6h-32v-7.2h32V545.6z M1131.2,545.6h-32v-7.2h32V545.6z M1067.2,545.6h-32v-7.2h32V545.6z
			 M1003.2,545.6h-32v-7.2h32V545.6z"/>
	</g>
	<g>
		<path class="st4" d="M1064,1024h-32v-7.2h32V1024z M1000,1024h-32v-7.2h32V1024z M936,1024h-32v-7.2h32V1024z M872,1024h-32v-7.2
			h32V1024z M817.6,1014.4h-7.2v-32h7.2V1014.4z M817.6,950.4h-7.2v-32h7.2V950.4z M817.6,886.4h-7.2v-32h7.2V886.4z M817.6,822.4
			h-7.2v-32h7.2V822.4z M817.6,758.4h-7.2v-32h7.2V758.4z"/>
	</g>
	<g>
		<path class="st4" d="M2297.6,911.2h-7.2v-32h7.2V911.2z M2297.6,847.2h-7.2v-32h7.2V847.2z M2297.6,783.2h-7.2v-32h7.2V783.2z
			 M2297.6,719.2h-7.2v-32h7.2V719.2z M2297.6,655.2h-7.2v-18.4h20.8v7.2h-13.6V655.2z M2439.2,644h-32v-7.2h32V644z M2375.2,644
			h-32v-7.2h32V644z"/>
	</g>
	<g>
		<path class="st4" d="M1226.4,1421.6h-27.2v-7.2h20v-4.8h7.2V1421.6z M1167.2,1421.6h-32v-7.2h32V1421.6z M1103.2,1421.6h-32v-7.2
			h32V1421.6z M1039.2,1421.6h-32v-7.2h32V1421.6z M975.2,1421.6h-32v-7.2h32V1421.6z M911.2,1421.6h-32v-7.2h32V1421.6z
			 M847.2,1421.6h-32v-7.2h32V1421.6z M783.2,1421.6h-32v-7.2h32V1421.6z M719.2,1421.6h-32v-7.2h32V1421.6z M655.2,1421.6h-32v-7.2
			h32V1421.6z M1226.4,1377.6h-7.2v-32h7.2V1377.6z"/>
	</g>
	<g>
		<path class="st4" d="M1600.8,1910.4h-32v-7.2h32V1910.4z M1536.8,1910.4h-32v-7.2h32V1910.4z M1472.8,1910.4h-32v-7.2h32V1910.4z
			 M1412.8,1906.4h-7.2v-32h7.2V1906.4z M1412.8,1842.4h-7.2v-32h7.2V1842.4z M1412.8,1778.4h-7.2v-32h7.2V1778.4z M1412.8,1714.4
			h-7.2v-32h7.2V1714.4z M1412.8,1650.4h-7.2v-33.6h5.6v3.6h1.6V1650.4z M2293.6,1624h-18.4v-7.2h18.4V1624z M2243.2,1624h-32v-7.2
			h32V1624z M2179.2,1624h-32v-7.2h32V1624z M2115.2,1624h-32v-7.2h32V1624z M2051.2,1624h-32v-7.2h32V1624z M1987.2,1624h-32v-7.2
			h32V1624z M1923.2,1624h-32v-7.2h32V1624z M1859.2,1624h-32v-7.2h32V1624z M1795.2,1624h-32v-7.2h32V1624z M1731.2,1624h-32v-7.2
			h32V1624z M1667.2,1624h-32v-7.2h32V1624z M1603.2,1624h-32v-7.2h32V1624z M1539.2,1624h-32v-7.2h32V1624z M1475.2,1624h-32v-7.2
			h32V1624z"/>
	</g>
	<g>
		<path class="st4" d="M1868,1587.2h-7.2v-32h7.2V1587.2z M1868,1523.2h-7.2v-32h7.2V1523.2z M1868,1459.2h-7.2v-32h7.2V1459.2z
			 M1868,1395.2h-7.2v-32h7.2V1395.2z"/>
	</g>
</g>
</svg>
