<svg width="216" height="217" viewBox="0 0 216 217" fill="none" xmlns="http://www.w3.org/2000/svg">
<g clip-path="url(#clip0_1_2)">
<path d="M182.599 183.206C223.822 141.982 223.822 75.1459 182.599 33.9226C141.375 -7.30076 74.5392 -7.30077 33.3158 33.9226C-7.90753 75.1459 -7.90754 141.982 33.3158 183.206C74.5392 224.429 141.375 224.429 182.599 183.206Z" fill="#E6E7E8"/>
<path d="M74.62 68.28C74.62 61.01 68.73 55.12 61.46 55.12C54.19 55.12 48.3 61.01 48.3 68.28C48.3 72.87 50.65 76.91 54.21 79.26C54.89 79.71 55.3 80.47 55.3 81.29V83.58C55.3 84.86 56.34 85.9 57.62 85.9H65.31C66.59 85.9 67.63 84.86 67.63 83.58V81.29C67.63 80.47 68.04 79.71 68.72 79.26C72.28 76.91 74.62 72.87 74.62 68.28Z" fill="#61F8FF"/>
<path d="M67.63 93.04C67.63 94.32 66.59 95.36 65.31 95.36H57.62C56.34 95.36 55.3 94.32 55.3 93.04C55.3 92.48 55.75 92.03 56.31 92.03H66.62C67.18 92.03 67.63 92.48 67.63 93.04Z" fill="#CE3838"/>
<path d="M67.63 89.7C67.63 89.14 67.18 88.69 66.62 88.69H56.31C55.75 88.69 55.3 89.14 55.3 89.7V91.12C55.3 91.68 55.75 92.12 56.31 92.12H66.62C67.18 92.12 67.63 91.67 67.63 91.12V89.7V89.7Z" fill="#CE3838"/>
<path d="M67.63 86.24C67.63 85.68 67.18 85.24 66.62 85.24H56.31C55.75 85.24 55.3 85.69 55.3 86.24V87.66C55.3 88.22 55.75 88.66 56.31 88.66H66.62C67.18 88.66 67.63 88.21 67.63 87.66V86.24V86.24Z" fill="#CE3838"/>
<path d="M61.46 85.24H56.3C55.74 85.24 55.29 85.69 55.29 86.24V87.66C55.29 88.21 55.74 88.66 56.3 88.66H61.46V85.24Z" fill="#E44F49"/>
<path d="M61.46 88.69H56.3C55.74 88.69 55.29 89.14 55.29 89.7V91.12C55.29 91.68 55.74 92.12 56.3 92.12H61.46V88.69Z" fill="#E44F49"/>
<path d="M61.46 92.03H56.3C55.74 92.03 55.29 92.48 55.29 93.04C55.29 94.32 56.33 95.36 57.61 95.36H61.46V92.03V92.03Z" fill="#E44F49"/>
<path d="M56.4317 68.8941L55.4498 69.0834L58.5827 85.3338L59.5646 85.1445L56.4317 68.8941Z" fill="#000F4A"/>
<path d="M66.4153 68.8926L63.2027 85.1379L64.1837 85.3319L67.3963 69.0866L66.4153 68.8926Z" fill="#000F4A"/>
<path d="M62.85 72.95L61.45 71.81L59.94 72.91L58.36 71.78L56.84 72.72L56.31 71.86L58.4 70.58L59.93 71.67L61.48 70.55L62.81 71.63L64.37 70.22L66.56 71.89L65.95 72.69L64.43 71.52L62.85 72.95Z" fill="#000F4A"/>
<path d="M52.81 67.61C52.8 67.61 52.79 67.61 52.78 67.61C52.5 67.59 52.3 67.35 52.31 67.08C52.45 64.89 53.18 61.9 55.84 60.09C57.44 59 58.97 58.86 59.04 58.86C59.32 58.84 59.56 59.04 59.58 59.32C59.6 59.59 59.4 59.84 59.12 59.86C59.11 59.86 57.75 59.99 56.36 60.95C54.52 62.23 53.49 64.31 53.31 67.15C53.29 67.4 53.07 67.61 52.81 67.61Z" fill="white"/>
<path d="M187.8 155.41H135.9V88.58H186.66C188.46 88.58 189.92 90.04 189.92 91.84V153.29C189.93 154.46 188.98 155.41 187.8 155.41Z" fill="#010923"/>
<path d="M135.91 155.41H84.01C82.84 155.41 81.89 154.46 81.89 153.29V91.84C81.89 90.04 83.35 88.58 85.15 88.58H135.91V155.41Z" fill="#010923"/>
<path d="M135.91 152.67H84.01C82.84 152.67 81.89 151.72 81.89 150.55V89.23C81.89 87.43 83.34 85.98 85.14 85.97L135.91 85.84V152.67Z" fill="#000F4A"/>
<path d="M187.8 152.67H135.9V85.84L186.67 85.97C188.47 85.97 189.92 87.43 189.92 89.23V150.55C189.93 151.72 188.98 152.67 187.8 152.67Z" fill="#000F4A"/>
<path d="M135.91 152.67C135.91 152.67 106.65 144.37 86.8 147.9C86.8 124.12 86.8 80.53 86.8 80.53C86.8 80.53 121.68 78.6 135.39 90.17C135.38 115.82 135.91 152.67 135.91 152.67Z" fill="#D1D3D4"/>
<path d="M135.91 152.67C135.91 152.67 165.17 144.37 185.02 147.9C185.02 124.12 185.02 80.53 185.02 80.53C185.02 80.53 150.14 78.6 136.43 90.17C136.43 115.82 135.91 152.67 135.91 152.67Z" fill="#D1D3D4"/>
<path d="M135.91 86.06C135.91 86.06 130.47 75.21 90.77 75.21C90.77 108.17 90.77 142.24 90.77 142.24C90.77 142.24 117.95 141.41 135.91 152.67C135.91 116.37 135.91 86.06 135.91 86.06Z" fill="white"/>
<path d="M135.91 86.06C135.91 86.06 141.35 75.21 181.05 75.21C181.05 108.17 181.05 142.24 181.05 142.24C181.05 142.24 153.87 141.41 135.91 152.67C135.91 116.37 135.91 86.06 135.91 86.06Z" fill="white"/>
<path d="M157.81 127.64C155.57 127.64 154.16 124.12 153.37 121.16C152.3 117.18 151.71 111.9 151.71 106.28C151.71 100.67 152.3 95.38 153.37 91.4C154.16 88.44 155.58 84.92 157.81 84.92C160.05 84.92 161.46 88.44 162.25 91.4C163.32 95.38 163.91 100.66 163.91 106.28C163.91 111.89 163.32 117.18 162.25 121.16C161.46 124.11 160.04 127.64 157.81 127.64ZM157.81 85.92C156.6 85.92 155.3 88.07 154.33 91.66C153.28 95.56 152.71 100.75 152.71 106.28C152.71 111.81 153.29 117 154.33 120.9C155.3 124.49 156.6 126.64 157.81 126.64C159.02 126.64 160.32 124.49 161.29 120.9C162.34 117 162.91 111.81 162.91 106.28C162.91 100.75 162.33 95.56 161.29 91.66C160.32 88.07 159.02 85.92 157.81 85.92Z" fill="#000F4A"/>
<path d="M142.87 119.29C141.64 119.29 140.61 118.99 140.06 118.16C138.82 116.3 140.96 113.17 142.97 110.86C145.68 107.76 149.75 104.33 154.41 101.2C159.07 98.08 163.79 95.63 167.7 94.3C170.6 93.32 174.31 92.53 175.56 94.39C176.8 96.25 174.66 99.38 172.65 101.69C169.94 104.79 165.87 108.22 161.21 111.35L160.93 110.93L161.21 111.35C156.55 114.47 151.83 116.92 147.92 118.25C146.3 118.8 144.43 119.29 142.87 119.29ZM172.77 94.27C169.46 94.27 162.67 96.89 154.97 102.04C150.38 105.12 146.38 108.48 143.73 111.52C141.28 114.32 140.22 116.6 140.9 117.6C142.24 119.61 150.69 117.19 160.66 110.51C165.25 107.43 169.25 104.07 171.9 101.03C174.35 98.23 175.41 95.95 174.73 94.95C174.42 94.5 173.74 94.27 172.77 94.27Z" fill="#000F4A"/>
<path d="M172.74 119.29C171.18 119.29 169.31 118.8 167.69 118.25C163.79 116.92 159.07 114.47 154.4 111.35C149.74 108.23 145.67 104.8 142.96 101.69C140.95 99.39 138.81 96.25 140.05 94.39C141.29 92.53 145.01 93.32 147.91 94.3C151.81 95.63 156.53 98.08 161.2 101.2C165.86 104.32 169.93 107.75 172.64 110.86C174.65 113.16 176.79 116.3 175.55 118.16C175.01 118.98 173.97 119.29 172.74 119.29ZM142.86 94.27C141.88 94.27 141.2 94.5 140.89 94.95C139.55 96.96 145 103.84 154.97 110.52C159.56 113.6 164.2 116.01 168.02 117.3C171.54 118.5 174.05 118.61 174.72 117.6C176.06 115.59 170.61 108.71 160.64 102.03C156.05 98.95 151.41 96.54 147.59 95.25C145.67 94.6 144.05 94.27 142.86 94.27Z" fill="#000F4A"/>
<path d="M157.81 108.93C159.274 108.93 160.46 107.744 160.46 106.28C160.46 104.816 159.274 103.63 157.81 103.63C156.346 103.63 155.16 104.816 155.16 106.28C155.16 107.744 156.346 108.93 157.81 108.93Z" fill="#E44F49"/>
<path d="M143.44 139.34L143.03 138.43C143.07 138.41 146.99 136.65 152.66 135.08C157.9 133.63 165.75 132.06 173.4 132.77L173.31 133.77C165.81 133.07 158.1 134.62 152.94 136.04C147.35 137.59 143.48 139.32 143.44 139.34Z" fill="#000F4A"/>
<path d="M143.44 142.24L143.03 141.33C143.07 141.31 146.99 139.55 152.66 137.98C157.9 136.53 165.75 134.96 173.4 135.67L173.31 136.67C165.81 135.97 158.08 137.52 152.93 138.95C147.33 140.49 143.48 142.22 143.44 142.24Z" fill="#000F4A"/>
<path d="M128.45 90.48C128.41 90.46 124.54 88.73 118.94 87.18C113.79 85.76 106.07 84.21 98.57 84.91L98.48 83.91C106.13 83.2 113.99 84.77 119.22 86.22C124.89 87.79 128.81 89.55 128.85 89.57L128.45 90.48Z" fill="#000F4A"/>
<path d="M128.45 93.38C128.41 93.36 124.54 91.63 118.94 90.08C113.79 88.66 106.07 87.11 98.57 87.81L98.48 86.81C106.13 86.1 113.99 87.67 119.22 89.12C124.89 90.69 128.81 92.45 128.85 92.47L128.45 93.38Z" fill="#000F4A"/>
<path d="M128.45 96.51C128.41 96.49 124.54 94.76 118.94 93.21C113.79 91.79 106.07 90.24 98.57 90.94L98.48 89.94C106.13 89.23 113.99 90.8 119.22 92.25C124.89 93.82 128.81 95.58 128.85 95.6L128.45 96.51Z" fill="#000F4A"/>
<path d="M128.45 103.78C128.41 103.76 124.54 102.03 118.94 100.48C113.79 99.06 106.07 97.51 98.57 98.21L98.48 97.21C106.13 96.5 113.99 98.07 119.22 99.52C124.89 101.09 128.81 102.85 128.85 102.87L128.45 103.78Z" fill="#000F4A"/>
<path d="M128.45 106.67C128.41 106.65 124.54 104.92 118.94 103.37C113.79 101.95 106.07 100.4 98.57 101.1L98.48 100.1C106.13 99.39 113.99 100.96 119.22 102.41C124.89 103.98 128.81 105.74 128.85 105.76L128.45 106.67Z" fill="#000F4A"/>
<path d="M128.45 109.81C128.41 109.79 124.54 108.06 118.94 106.51C113.79 105.09 106.07 103.54 98.57 104.24L98.48 103.24C106.13 102.53 113.99 104.1 119.22 105.55C124.89 107.12 128.81 108.88 128.85 108.9L128.45 109.81Z" fill="#000F4A"/>
<path d="M128.45 116.62C128.41 116.6 124.54 114.87 118.94 113.32C113.79 111.9 106.07 110.35 98.57 111.05L98.48 110.05C106.13 109.34 113.99 110.91 119.22 112.36C124.89 113.93 128.81 115.69 128.85 115.71L128.45 116.62Z" fill="#000F4A"/>
<path d="M128.45 119.52C128.41 119.5 124.54 117.77 118.94 116.22C113.79 114.8 106.07 113.25 98.57 113.95L98.48 112.95C106.13 112.24 113.99 113.81 119.22 115.26C124.89 116.83 128.81 118.59 128.85 118.61L128.45 119.52Z" fill="#000F4A"/>
<path d="M128.45 122.65C128.41 122.63 124.54 120.9 118.94 119.35C113.79 117.93 106.07 116.38 98.57 117.08L98.48 116.08C106.13 115.37 113.99 116.94 119.22 118.39C124.89 119.96 128.81 121.72 128.85 121.74L128.45 122.65Z" fill="#000F4A"/>
<path d="M128.45 129.91C128.41 129.89 124.54 128.16 118.94 126.61C113.79 125.19 106.07 123.64 98.57 124.34L98.48 123.34C106.13 122.63 113.99 124.2 119.22 125.65C124.89 127.22 128.81 128.98 128.85 129L128.45 129.91Z" fill="#000F4A"/>
<path d="M128.45 132.81C128.41 132.79 124.54 131.06 118.94 129.51C113.79 128.09 106.07 126.54 98.57 127.24L98.48 126.24C106.13 125.53 113.99 127.1 119.22 128.55C124.89 130.12 128.81 131.88 128.85 131.9L128.45 132.81Z" fill="#000F4A"/>
<path d="M128.45 135.95C128.41 135.93 124.54 134.2 118.94 132.65C113.79 131.23 106.07 129.68 98.57 130.38L98.48 129.38C106.13 128.67 113.99 130.24 119.22 131.69C124.89 133.26 128.81 135.02 128.85 135.04L128.45 135.95Z" fill="#000F4A"/>
<path d="M140.19 157.37H131.62C130.62 157.37 129.81 156.56 129.81 155.56V153.44H142V155.56C142 156.56 141.19 157.37 140.19 157.37Z" fill="#010923"/>
<path d="M51.66 145.84H29.78C28.4 145.84 27.29 144.72 27.29 143.35V120.37C27.29 118.99 28.41 117.88 29.78 117.88H51.66C53.04 117.88 54.15 119 54.15 120.37V143.35C54.15 144.72 53.04 145.84 51.66 145.84Z" fill="#CE3838"/>
<path d="M51.66 143.45H29.78C28.4 143.45 27.29 142.33 27.29 140.96V117.98C27.29 116.6 28.41 115.49 29.78 115.49H51.66C53.04 115.49 54.15 116.61 54.15 117.98V140.96C54.15 142.34 53.04 143.45 51.66 143.45Z" fill="#E44F49"/>
<path d="M40.72 129.03C46.1434 129.03 50.54 124.969 50.54 119.96C50.54 114.951 46.1434 110.89 40.72 110.89C35.2966 110.89 30.9 114.951 30.9 119.96C30.9 124.969 35.2966 129.03 40.72 129.03Z" fill="#E44F49"/>
<path d="M40.72 113.29C36.39 113.29 32.88 116.7 32.88 120.9H48.57C48.57 116.7 45.05 113.29 40.72 113.29Z" fill="white"/>
<path d="M44.2766 114.092L40.5014 120.769L40.9367 121.015L44.7119 114.339L44.2766 114.092Z" fill="#E06C61"/>
<path d="M40.72 121.69C41.1563 121.69 41.51 121.336 41.51 120.9C41.51 120.464 41.1563 120.11 40.72 120.11C40.2837 120.11 39.93 120.464 39.93 120.9C39.93 121.336 40.2837 121.69 40.72 121.69Z" fill="#E06C61"/>
<path d="M40.97 113.29H40.47V114.68H40.97V113.29Z" fill="#2C3F5D"/>
<path d="M48.5 119.71H47.12V120.21H48.5V119.71Z" fill="#2C3F5D"/>
<path d="M34.32 119.71H32.94V120.21H34.32V119.71Z" fill="#2C3F5D"/>
<path d="M45.4987 114.825L44.4811 115.843L44.8348 116.197L45.8525 115.178L45.4987 114.825Z" fill="#2C3F5D"/>
<path d="M35.9335 114.829L35.5797 115.182L36.5974 116.201L36.9511 115.847L35.9335 114.829Z" fill="#2C3F5D"/>
<path d="M47.4689 116.95L46.1174 117.502L46.3065 117.965L47.658 117.413L47.4689 116.95Z" fill="#2C3F5D"/>
<path d="M38.3998 113.597L37.937 113.787L38.4702 115.092L38.9331 114.903L38.3998 113.597Z" fill="#2C3F5D"/>
<path d="M42.9922 113.608L42.4738 114.908L42.9382 115.094L43.4566 113.793L42.9922 113.608Z" fill="#2C3F5D"/>
<path d="M35.11 117.99L33.76 117.46L33.85 117.23V116.97H33.9L35.29 117.53L35.11 117.99Z" fill="#2C3F5D"/>
<path d="M41.97 129.92C41.97 130.61 41.41 131.17 40.72 131.17C40.03 131.17 39.47 130.61 39.47 129.92C39.47 129.23 40.03 128.67 40.72 128.67C41.41 128.67 41.97 129.23 41.97 129.92Z" fill="#D8503A"/>
<path d="M41.97 129.58C41.97 130.27 41.41 130.83 40.72 130.83C40.03 130.83 39.47 130.27 39.47 129.58C39.47 128.89 40.03 128.33 40.72 128.33C41.41 128.33 41.97 128.89 41.97 129.58Z" fill="white"/>
<path d="M36.44 135.23C36.44 135.92 35.88 136.48 35.19 136.48C34.5 136.48 33.94 135.92 33.94 135.23C33.94 134.54 34.5 133.98 35.19 133.98C35.88 133.98 36.44 134.54 36.44 135.23Z" fill="#D8503A"/>
<path d="M36.44 134.89C36.44 135.58 35.88 136.14 35.19 136.14C34.5 136.14 33.94 135.58 33.94 134.89C33.94 134.2 34.5 133.64 35.19 133.64C35.88 133.64 36.44 134.2 36.44 134.89Z" fill="white"/>
<path d="M47.22 135.23C47.22 135.92 46.66 136.48 45.97 136.48C45.28 136.48 44.72 135.92 44.72 135.23C44.72 134.54 45.28 133.98 45.97 133.98C46.66 133.98 47.22 134.54 47.22 135.23Z" fill="#D8503A"/>
<path d="M47.22 134.89C47.22 135.58 46.66 136.14 45.97 136.14C45.28 136.14 44.72 135.58 44.72 134.89C44.72 134.2 45.28 133.64 45.97 133.64C46.66 133.64 47.22 134.2 47.22 134.89Z" fill="white"/>
<path d="M112.39 145.84H90.51C89.13 145.84 88.02 144.72 88.02 143.35V120.37C88.02 118.99 89.14 117.88 90.51 117.88H112.39C113.77 117.88 114.88 119 114.88 120.37V143.35C114.88 144.72 113.76 145.84 112.39 145.84Z" fill="#CE3838"/>
<path d="M112.39 143.45H90.51C89.13 143.45 88.02 142.33 88.02 140.96V117.98C88.02 116.6 89.14 115.49 90.51 115.49H112.39C113.77 115.49 114.88 116.61 114.88 117.98V140.96C114.88 142.34 113.76 143.45 112.39 143.45Z" fill="#E44F49"/>
<path d="M101.45 129.03C106.873 129.03 111.27 124.969 111.27 119.96C111.27 114.951 106.873 110.89 101.45 110.89C96.0266 110.89 91.63 114.951 91.63 119.96C91.63 124.969 96.0266 129.03 101.45 129.03Z" fill="#E44F49"/>
<path d="M101.45 113.29C97.12 113.29 93.61 116.7 93.61 120.9H109.3C109.29 116.7 105.78 113.29 101.45 113.29Z" fill="white"/>
<path d="M105.003 114.087L101.228 120.764L101.663 121.01L105.438 114.333L105.003 114.087Z" fill="#E06C61"/>
<path d="M101.45 121.69C101.886 121.69 102.24 121.336 102.24 120.9C102.24 120.464 101.886 120.11 101.45 120.11C101.014 120.11 100.66 120.464 100.66 120.9C100.66 121.336 101.014 121.69 101.45 121.69Z" fill="#E06C61"/>
<path d="M101.7 113.29H101.2V114.68H101.7V113.29Z" fill="#2C3F5D"/>
<path d="M109.23 119.71H107.85V120.21H109.23V119.71Z" fill="#2C3F5D"/>
<path d="M95.04 119.71H93.66V120.21H95.04V119.71Z" fill="#2C3F5D"/>
<path d="M106.227 114.823L105.21 115.842L105.563 116.196L106.581 115.177L106.227 114.823Z" fill="#2C3F5D"/>
<path d="M96.6633 114.828L96.3095 115.181L97.3272 116.2L97.6809 115.847L96.6633 114.828Z" fill="#2C3F5D"/>
<path d="M108.201 116.952L106.849 117.504L107.038 117.967L108.39 117.414L108.201 116.952Z" fill="#2C3F5D"/>
<path d="M99.127 113.593L98.6641 113.782L99.1974 115.087L99.6602 114.898L99.127 113.593Z" fill="#2C3F5D"/>
<path d="M103.729 113.592L103.211 114.892L103.675 115.077L104.193 113.777L103.729 113.592Z" fill="#2C3F5D"/>
<path d="M95.84 117.99L94.48 117.46L94.58 117.23V116.97H94.63L96.02 117.53L95.84 117.99Z" fill="#2C3F5D"/>
<path d="M102.7 129.92C102.7 130.61 102.14 131.17 101.45 131.17C100.76 131.17 100.2 130.61 100.2 129.92C100.2 129.23 100.76 128.67 101.45 128.67C102.14 128.67 102.7 129.23 102.7 129.92Z" fill="#D8503A"/>
<path d="M102.7 129.58C102.7 130.27 102.14 130.83 101.45 130.83C100.76 130.83 100.2 130.27 100.2 129.58C100.2 128.89 100.76 128.33 101.45 128.33C102.14 128.33 102.7 128.89 102.7 129.58Z" fill="white"/>
<path d="M97.16 135.23C97.16 135.92 96.6 136.48 95.91 136.48C95.22 136.48 94.66 135.92 94.66 135.23C94.66 134.54 95.22 133.98 95.91 133.98C96.61 133.98 97.16 134.54 97.16 135.23Z" fill="#D8503A"/>
<path d="M97.16 134.89C97.16 135.58 96.6 136.14 95.91 136.14C95.22 136.14 94.66 135.58 94.66 134.89C94.66 134.2 95.22 133.64 95.91 133.64C96.61 133.64 97.16 134.2 97.16 134.89Z" fill="white"/>
<path d="M107.94 135.23C107.94 135.92 107.38 136.48 106.69 136.48C106 136.48 105.44 135.92 105.44 135.23C105.44 134.54 106 133.98 106.69 133.98C107.38 133.98 107.94 134.54 107.94 135.23Z" fill="#D8503A"/>
<path d="M107.94 134.89C107.94 135.58 107.38 136.14 106.69 136.14C106 136.14 105.44 135.58 105.44 134.89C105.44 134.2 106 133.64 106.69 133.64C107.38 133.64 107.94 134.2 107.94 134.89Z" fill="white"/>
<path d="M67.59 142.62C67.59 142.62 66.89 141.83 65.12 141.29C63.46 140.79 60.51 140.41 55.84 141.47C52.32 142.27 49.6 141.96 47.74 140.57C45.64 138.99 45.47 136.61 45.47 136.51L46.47 136.45C46.47 136.47 46.62 138.49 48.36 139.78C49.97 140.98 52.42 141.22 55.63 140.5C65.19 138.33 68.24 141.84 68.37 141.99L67.59 142.62Z" fill="#000F4A"/>
<path d="M74.3 142.62L73.53 141.98C73.66 141.83 76.71 138.32 86.27 140.49C89.48 141.22 91.92 140.98 93.54 139.77C95.27 138.48 95.43 136.46 95.43 136.44L96.43 136.5C96.42 136.6 96.26 138.98 94.16 140.56C92.3 141.96 89.58 142.26 86.06 141.46C77.09 139.43 74.33 142.59 74.3 142.62Z" fill="#000F4A"/>
<path d="M70.91 152.16C73.9973 152.16 76.5 149.657 76.5 146.57C76.5 143.483 73.9973 140.98 70.91 140.98C67.8227 140.98 65.32 143.483 65.32 146.57C65.32 149.657 67.8227 152.16 70.91 152.16Z" fill="#E44F49"/>
<path d="M119.49 155.67H23.69C22.87 155.67 22.21 155.01 22.21 154.19V146.58C22.21 145.76 22.87 145.1 23.69 145.1H119.5C120.32 145.1 120.98 145.76 120.98 146.58V154.19C120.97 155.01 120.31 155.67 119.49 155.67Z" fill="#EE7EB0"/>
<path d="M119.49 155.67H23.69C22.87 155.67 22.21 155.01 22.21 154.19C22.21 153.37 22.87 152.71 23.69 152.71H119.5C120.32 152.71 120.98 153.37 120.98 154.19C120.97 155.01 120.31 155.67 119.49 155.67Z" fill="#E266A1"/>
<path d="M71.41 132.26H70.41V140.98H71.41V132.26Z" fill="#000F4A"/>
<path d="M73.88 132.26C73.88 133.9 72.55 135.23 70.91 135.23C69.81 135.23 68.85 134.63 68.34 133.74C68.09 133.3 67.94 132.8 67.94 132.26C67.94 130.62 69.27 129.29 70.91 129.29C71.45 129.29 71.95 129.43 72.39 129.69C73.28 130.2 73.88 131.16 73.88 132.26Z" fill="#EF8E01"/>
<path d="M72.79 131.17C72.79 132.81 71.46 134.14 69.82 134.14C69.28 134.14 68.78 134 68.34 133.74C68.09 133.3 67.94 132.8 67.94 132.26C67.94 130.62 69.27 129.29 70.91 129.29C71.45 129.29 71.95 129.43 72.39 129.69C72.64 130.13 72.79 130.63 72.79 131.17Z" fill="#FFBE1A"/>
<path d="M44.23 169.25C43.28 169.25 42.33 169.14 41.39 168.93C38.27 168.2 35.89 166.5 34.32 163.87C32.38 160.63 31.65 155.94 32.15 149.93C32.48 145.98 33.32 141.54 34.72 136.35L35.69 136.61C32.29 149.23 32.12 158.23 35.19 163.36C36.62 165.75 38.79 167.3 41.63 167.96C44.71 168.68 48.01 168.09 50.25 166.42C50.79 166.02 51.27 165.59 51.73 165.18C53.16 163.91 54.51 162.71 56.98 162.71V163.71C54.89 163.71 53.79 164.69 52.39 165.93C51.91 166.36 51.41 166.8 50.84 167.22C49.06 168.54 46.68 169.25 44.23 169.25Z" fill="#000F4A"/>
<path d="M83.31 175.13H58.58C57.69 175.13 56.97 174.41 56.97 173.52V163.77C56.97 162.88 57.69 162.16 58.58 162.16H83.31C84.2 162.16 84.92 162.88 84.92 163.77V173.52C84.92 174.41 84.2 175.13 83.31 175.13Z" fill="#D1D3D4"/>
<path d="M97.67 169.25C95.22 169.25 92.84 168.54 91.06 167.21C90.49 166.78 89.99 166.34 89.51 165.92C88.11 164.68 87.01 163.7 84.92 163.7V162.7C87.39 162.7 88.74 163.9 90.17 165.17C90.64 165.58 91.12 166.01 91.65 166.41C93.89 168.08 97.19 168.67 100.27 167.95C103.12 167.29 105.28 165.74 106.71 163.35C109.78 158.22 109.61 149.22 106.21 136.6L107.18 136.34C108.58 141.53 109.42 145.97 109.75 149.92C110.25 155.93 109.52 160.62 107.58 163.86C106.01 166.49 103.63 168.19 100.51 168.92C99.57 169.14 98.61 169.25 97.67 169.25Z" fill="#000F4A"/>
<path d="M63.48 160.71C64.1262 160.71 64.65 160.186 64.65 159.54C64.65 158.894 64.1262 158.37 63.48 158.37C62.8338 158.37 62.31 158.894 62.31 159.54C62.31 160.186 62.8338 160.71 63.48 160.71Z" fill="#D1D3D4"/>
<path d="M68.53 160.71C69.1762 160.71 69.7 160.186 69.7 159.54C69.7 158.894 69.1762 158.37 68.53 158.37C67.8838 158.37 67.36 158.894 67.36 159.54C67.36 160.186 67.8838 160.71 68.53 160.71Z" fill="#D1D3D4"/>
<path d="M73.57 160.71C74.2162 160.71 74.74 160.186 74.74 159.54C74.74 158.894 74.2162 158.37 73.57 158.37C72.9238 158.37 72.4 158.894 72.4 159.54C72.4 160.186 72.9238 160.71 73.57 160.71Z" fill="#D1D3D4"/>
<path d="M78.62 160.71C79.2662 160.71 79.79 160.186 79.79 159.54C79.79 158.894 79.2662 158.37 78.62 158.37C77.9738 158.37 77.45 158.894 77.45 159.54C77.45 160.186 77.9738 160.71 78.62 160.71Z" fill="#D1D3D4"/>
<path d="M83.31 172.51H58.58C57.69 172.51 56.97 171.79 56.97 170.9V161.15C56.97 160.26 57.69 159.54 58.58 159.54H83.31C84.2 159.54 84.92 160.26 84.92 161.15V170.9C84.92 171.79 84.2 172.51 83.31 172.51Z" fill="white"/>
<path d="M69.05 131C69.05 131.34 69.34 131.62 69.71 131.62C70.08 131.62 70.37 131.34 70.37 131C70.37 130.66 70.08 130.38 69.71 130.38C69.34 130.38 69.05 130.65 69.05 131Z" fill="white"/>
<path d="M153.22 169.41H168.46C169.05 169.41 169.53 168.93 169.53 168.34V165.96C169.53 165.37 169.05 164.89 168.46 164.89H153.22V169.41Z" fill="#EE7EB0"/>
<path d="M153.22 169.41H128.09C127.9 169.41 127.74 169.25 127.74 169.06V165.24C127.74 165.05 127.9 164.89 128.09 164.89H153.22V169.41Z" fill="#FFBE1A"/>
<path d="M127.74 165.16L121.48 166.68C121.17 166.75 121.16 167.18 121.46 167.28L127.74 169.18V165.16Z" fill="#F7EDD5"/>
<path d="M166.19 172.07L151.75 171.38V170.82H165.87L167.51 168.54L168.52 169.27L166.7 171.81C166.58 171.97 166.39 172.07 166.19 172.07Z" fill="#000F4A"/>
<path d="M153.22 169.41H128.09C127.9 169.41 127.74 169.25 127.74 169.06V167.15H153.22V169.41Z" fill="#EF8E01"/>
<path d="M153.22 169.41H168.46C169.05 169.41 169.53 168.93 169.53 168.34V167.15H153.22V169.41Z" fill="#E266A1"/>
<path d="M122.98 166.31V167.73L121.46 167.27C121.16 167.18 121.17 166.75 121.48 166.67L122.98 166.31Z" fill="#000F4A"/>
<path d="M146.07 31.47H101.31C100.54 31.47 99.91 30.84 99.91 30.07V25.48C99.91 24.71 100.54 24.08 101.31 24.08H146.07C146.84 24.08 147.47 24.71 147.47 25.48V30.07C147.47 30.84 146.84 31.47 146.07 31.47ZM101.32 25.08C101.1 25.08 100.92 25.26 100.92 25.48V30.07C100.92 30.29 101.1 30.47 101.32 30.47H146.08C146.3 30.47 146.48 30.29 146.48 30.07V25.48C146.48 25.26 146.3 25.08 146.08 25.08H101.32V25.08Z" fill="#000F4A"/>
<path d="M130.18 44.91H129.18V57.94H130.18V44.91Z" fill="#000F4A"/>
<path d="M117.9 43.98H116.9V57.94H117.9V43.98Z" fill="#000F4A"/>
<path d="M105.56 43.98H104.56V54.56H105.56V43.98Z" fill="#000F4A"/>
<path d="M109.85 60.79H100.26C99.74 60.79 99.32 60.37 99.32 59.85V55C99.32 54.48 99.74 54.06 100.26 54.06H109.85C110.37 54.06 110.79 54.48 110.79 55V59.85C110.79 60.37 110.37 60.79 109.85 60.79ZM100.32 59.79H109.79V55.06H100.32V59.79Z" fill="#000F4A"/>
<path d="M103.52 57.01V56.71H104.26L104.28 56.96C104.34 56.87 104.42 56.8 104.51 56.75C104.6 56.7 104.71 56.68 104.82 56.68C104.94 56.68 105.04 56.71 105.13 56.76C105.22 56.81 105.28 56.89 105.32 57C105.38 56.9 105.45 56.82 105.55 56.76C105.64 56.7 105.75 56.68 105.88 56.68C106.06 56.68 106.21 56.74 106.32 56.87C106.43 57 106.48 57.19 106.48 57.45V58.23L106.72 58.28V58.58H105.75V58.28L105.97 58.23V57.45C105.97 57.31 105.95 57.21 105.9 57.15C105.85 57.09 105.79 57.07 105.69 57.07C105.62 57.07 105.56 57.09 105.5 57.12C105.45 57.15 105.41 57.2 105.37 57.25C105.37 57.27 105.37 57.29 105.37 57.31C105.37 57.33 105.37 57.34 105.37 57.36V58.24L105.57 58.29V58.59H104.66V58.29L104.86 58.24V57.46C104.86 57.32 104.84 57.22 104.79 57.17C104.74 57.11 104.67 57.08 104.58 57.08C104.51 57.08 104.45 57.09 104.4 57.12C104.35 57.15 104.31 57.18 104.27 57.23V58.24L104.49 58.29V58.59H103.52V58.29L103.76 58.24V57.08L103.52 57.01Z" fill="#000F4A"/>
<path d="M123.5 65.48C119.82 65.48 116.82 62.48 116.82 58.8C116.82 58.37 116.86 57.93 116.94 57.51C117.55 54.39 120.31 52.12 123.49 52.12C126.68 52.12 129.43 54.39 130.04 57.51C130.12 57.93 130.16 58.36 130.16 58.8C130.18 62.48 127.18 65.48 123.5 65.48ZM123.5 53.12C120.79 53.12 118.45 55.05 117.93 57.7C117.86 58.06 117.82 58.43 117.82 58.8C117.82 61.93 120.37 64.48 123.5 64.48C126.63 64.48 129.18 61.93 129.18 58.8C129.18 58.43 129.14 58.06 129.07 57.7C128.55 55.05 126.21 53.12 123.5 53.12Z" fill="#000F4A"/>
<path d="M111.22 50.66C107.54 50.66 104.54 47.66 104.54 43.98C104.54 43.55 104.58 43.11 104.66 42.69C105.27 39.57 108.03 37.3 111.21 37.3C114.4 37.3 117.15 39.57 117.76 42.69C117.84 43.11 117.88 43.54 117.88 43.98C117.89 47.67 114.9 50.66 111.22 50.66ZM111.22 38.31C108.51 38.31 106.17 40.24 105.65 42.89C105.58 43.25 105.54 43.62 105.54 43.99C105.54 47.12 108.09 49.67 111.22 49.67C114.35 49.67 116.9 47.12 116.9 43.99C116.9 43.62 116.86 43.25 116.79 42.89C116.27 40.23 113.93 38.31 111.22 38.31Z" fill="#000F4A"/>
<path d="M111.52 30.99H110.52V43.99H111.52V30.99Z" fill="#000F4A"/>
<path d="M142.54 43.98H141.54V54.56H142.54V43.98Z" fill="#000F4A"/>
<path d="M135.86 50.66C132.18 50.66 129.18 47.66 129.18 43.98C129.18 43.55 129.22 43.11 129.3 42.69C129.91 39.57 132.67 37.3 135.85 37.3C139.04 37.3 141.79 39.57 142.4 42.69C142.48 43.11 142.52 43.54 142.52 43.98C142.54 47.67 139.54 50.66 135.86 50.66ZM135.86 38.31C133.15 38.31 130.81 40.24 130.29 42.89C130.22 43.25 130.18 43.62 130.18 43.99C130.18 47.12 132.73 49.67 135.86 49.67C138.99 49.67 141.54 47.12 141.54 43.99C141.54 43.62 141.5 43.25 141.43 42.89C140.91 40.23 138.57 38.31 135.86 38.31Z" fill="#000F4A"/>
<path d="M136.17 30.99H135.17V43.99H136.17V30.99Z" fill="#000F4A"/>
<path d="M122.17 69.24L123.49 73.69L124.83 69.24H122.17Z" fill="#000F4A"/>
<path d="M146.83 60.79H137.24C136.72 60.79 136.3 60.37 136.3 59.85V55C136.3 54.48 136.72 54.06 137.24 54.06H146.83C147.35 54.06 147.77 54.48 147.77 55V59.85C147.77 60.37 147.35 60.79 146.83 60.79ZM137.3 59.79H146.77V55.06H137.3V59.79Z" fill="#000F4A"/>
<path d="M140.5 57.01V56.71H141.24L141.26 56.96C141.32 56.87 141.4 56.8 141.49 56.75C141.58 56.7 141.69 56.68 141.8 56.68C141.92 56.68 142.02 56.71 142.11 56.76C142.2 56.81 142.26 56.89 142.3 57C142.36 56.9 142.43 56.82 142.53 56.76C142.62 56.7 142.73 56.68 142.86 56.68C143.04 56.68 143.19 56.74 143.3 56.87C143.41 57 143.46 57.19 143.46 57.45V58.23L143.7 58.28V58.58H142.73V58.28L142.95 58.23V57.45C142.95 57.31 142.93 57.21 142.88 57.15C142.83 57.09 142.77 57.07 142.67 57.07C142.6 57.07 142.54 57.09 142.48 57.12C142.43 57.15 142.39 57.2 142.35 57.25C142.35 57.27 142.35 57.29 142.35 57.31C142.35 57.33 142.35 57.34 142.35 57.36V58.24L142.55 58.29V58.59H141.64V58.29L141.84 58.24V57.46C141.84 57.32 141.82 57.22 141.77 57.17C141.72 57.11 141.65 57.08 141.56 57.08C141.49 57.08 141.43 57.09 141.38 57.12C141.33 57.15 141.29 57.18 141.25 57.23V58.24L141.47 58.29V58.59H140.5V58.29L140.74 58.24V57.08L140.5 57.01Z" fill="#000F4A"/>
<path d="M126.38 71.86L126.65 71.81V70L126.38 69.95V69.65H128.39V70.34H128L127.98 70.04H127.16V70.73H128.04V71.12H127.16V71.81L127.43 71.86V72.16H126.39V71.86H126.38Z" fill="#000F4A"/>
<path d="M123.99 58.67H122.99V72.17H123.99V58.67Z" fill="#000F4A"/>
</g>
<defs>
<clipPath id="clip0_1_2">
<rect width="216" height="217" fill="white"/>
</clipPath>
</defs>
</svg>
